<?xml version="1.0" encoding="us-ascii" standalone="no"?><svg xmlns="http://www.w3.org/2000/svg" xmlns:xlink="http://www.w3.org/1999/xlink" contentStyleType="text/css" height="898px" preserveAspectRatio="none" style="width:1679px;height:898px;background:#FFFFFF;" version="1.1" viewBox="0 0 1679 898" width="1679px" zoomAndPan="magnify"><defs/><g><text fill="#000000" font-family="sans-serif" font-size="14" font-weight="bold" lengthAdjust="spacing" textLength="225" x="721.25" y="43.1113">Add Reservation (POST) + Max 3</text><rect fill="#FFFFFF" height="621.3516" style="stroke:#181818;stroke-width:1.0;" width="10" x="369" y="170.7578"/><rect fill="#FFFFFF" height="591" style="stroke:#181818;stroke-width:1.0;" width="10" x="731" y="201.1094"/><rect fill="#FFFFFF" height="30.3516" style="stroke:#181818;stroke-width:1.0;" width="10" x="949" y="231.4609"/><rect fill="#FFFFFF" height="146.7578" style="stroke:#181818;stroke-width:1.0;" width="10" x="1057.5" y="292.1641"/><rect fill="#FFFFFF" height="469.5938" style="stroke:#181818;stroke-width:1.0;" width="10" x="1245.5" y="322.5156"/><rect fill="#FFFFFF" height="307" style="stroke:#181818;stroke-width:1.0;" width="10" x="1364.5" y="485.1094"/><rect fill="#FFFFFF" height="91.0547" style="stroke:#181818;stroke-width:1.0;" width="10" x="1369.5" y="647.7031"/><rect fill="#FFFFFF" height="30.3516" style="stroke:#181818;stroke-width:1.0;" width="10" x="1480.5" y="352.8672"/><rect fill="#FFFFFF" height="30.3516" style="stroke:#181818;stroke-width:1.0;" width="10" x="1593.5" y="515.4609"/><rect fill="#FFFFFF" height="30.3516" style="stroke:#181818;stroke-width:1.0;" width="10" x="1593.5" y="678.0547"/><rect fill="none" height="385.8906" style="stroke:#000000;stroke-width:1.5;" width="1652.5" x="10" y="398.2188"/><rect fill="none" height="216.2969" style="stroke:#000000;stroke-width:1.5;" width="1632.5" x="20" y="560.8125"/><line style="stroke:#181818;stroke-width:0.5;stroke-dasharray:5.0,5.0;" x1="55" x2="55" y1="138.4063" y2="801.1094"/><line style="stroke:#181818;stroke-width:0.5;stroke-dasharray:5.0,5.0;" x1="374" x2="374" y1="138.4063" y2="801.1094"/><line style="stroke:#181818;stroke-width:0.5;stroke-dasharray:5.0,5.0;" x1="736" x2="736" y1="138.4063" y2="801.1094"/><line style="stroke:#181818;stroke-width:0.5;stroke-dasharray:5.0,5.0;" x1="953.5" x2="953.5" y1="138.4063" y2="801.1094"/><line style="stroke:#181818;stroke-width:0.5;stroke-dasharray:5.0,5.0;" x1="1062.5" x2="1062.5" y1="138.4063" y2="801.1094"/><line style="stroke:#181818;stroke-width:0.5;stroke-dasharray:5.0,5.0;" x1="1250.5" x2="1250.5" y1="138.4063" y2="801.1094"/><line style="stroke:#181818;stroke-width:0.5;stroke-dasharray:5.0,5.0;" x1="1369.5" x2="1369.5" y1="138.4063" y2="801.1094"/><line style="stroke:#181818;stroke-width:0.5;stroke-dasharray:5.0,5.0;" x1="1485.5" x2="1485.5" y1="138.4063" y2="801.1094"/><line style="stroke:#181818;stroke-width:0.5;stroke-dasharray:5.0,5.0;" x1="1598.5" x2="1598.5" y1="138.4063" y2="801.1094"/><rect fill="#E2E2F0" height="31.6094" rx="2.5" ry="2.5" style="stroke:#181818;stroke-width:0.5;" width="50" x="30" y="105.7969"/><text fill="#000000" font-family="sans-serif" font-size="14" lengthAdjust="spacing" textLength="36" x="37" y="127.3301">Client</text><rect fill="#E2E2F0" height="31.6094" rx="2.5" ry="2.5" style="stroke:#181818;stroke-width:0.5;" width="50" x="30" y="800.1094"/><text fill="#000000" font-family="sans-serif" font-size="14" lengthAdjust="spacing" textLength="36" x="37" y="821.6426">Client</text><rect fill="#E2E2F0" height="49.2188" rx="2.5" ry="2.5" style="stroke:#181818;stroke-width:0.5;" width="92" x="328" y="88.1875"/><text fill="#000000" font-family="sans-serif" font-size="14" lengthAdjust="spacing" textLength="78" x="335" y="109.7207">&#171;javaScript&#187;</text><text fill="#000000" font-family="sans-serif" font-size="14" lengthAdjust="spacing" textLength="44" x="352" y="127.3301">:server</text><rect fill="#E2E2F0" height="49.2188" rx="2.5" ry="2.5" style="stroke:#181818;stroke-width:0.5;" width="92" x="328" y="800.1094"/><text fill="#000000" font-family="sans-serif" font-size="14" lengthAdjust="spacing" textLength="78" x="335" y="821.6426">&#171;javaScript&#187;</text><text fill="#000000" font-family="sans-serif" font-size="14" lengthAdjust="spacing" textLength="44" x="352" y="839.252">:server</text><rect fill="#E2E2F0" height="49.2188" rx="2.5" ry="2.5" style="stroke:#181818;stroke-width:0.5;" width="96" x="688" y="88.1875"/><text fill="#000000" font-family="sans-serif" font-size="14" lengthAdjust="spacing" textLength="54" x="709" y="109.7207">&#171;router&#187;</text><text fill="#000000" font-family="sans-serif" font-size="14" lengthAdjust="spacing" textLength="82" x="695" y="127.3301">:reservations</text><rect fill="#E2E2F0" height="49.2188" rx="2.5" ry="2.5" style="stroke:#181818;stroke-width:0.5;" width="96" x="688" y="800.1094"/><text fill="#000000" font-family="sans-serif" font-size="14" lengthAdjust="spacing" textLength="54" x="709" y="821.6426">&#171;router&#187;</text><text fill="#000000" font-family="sans-serif" font-size="14" lengthAdjust="spacing" textLength="82" x="695" y="839.252">:reservations</text><rect fill="#E2E2F0" height="49.2188" rx="2.5" ry="2.5" style="stroke:#181818;stroke-width:0.5;" width="101" x="903.5" y="88.1875"/><text fill="#000000" font-family="sans-serif" font-size="14" lengthAdjust="spacing" textLength="87" x="910.5" y="109.7207">&#171;middleware&#187;</text><text fill="#000000" font-family="sans-serif" font-size="14" lengthAdjust="spacing" textLength="32" x="938" y="127.3301">:auth</text><rect fill="#E2E2F0" height="49.2188" rx="2.5" ry="2.5" style="stroke:#181818;stroke-width:0.5;" width="101" x="903.5" y="800.1094"/><text fill="#000000" font-family="sans-serif" font-size="14" lengthAdjust="spacing" textLength="87" x="910.5" y="821.6426">&#171;middleware&#187;</text><text fill="#000000" font-family="sans-serif" font-size="14" lengthAdjust="spacing" textLength="32" x="938" y="839.252">:auth</text><rect fill="#E2E2F0" height="49.2188" rx="2.5" ry="2.5" style="stroke:#181818;stroke-width:0.5;" width="96" x="1014.5" y="88.1875"/><text fill="#000000" font-family="sans-serif" font-size="14" lengthAdjust="spacing" textLength="82" x="1021.5" y="109.7207">&#171;controllers&#187;</text><text fill="#000000" font-family="sans-serif" font-size="14" lengthAdjust="spacing" textLength="82" x="1021.5" y="127.3301">:reservations</text><rect fill="#E2E2F0" height="49.2188" rx="2.5" ry="2.5" style="stroke:#181818;stroke-width:0.5;" width="96" x="1014.5" y="800.1094"/><text fill="#000000" font-family="sans-serif" font-size="14" lengthAdjust="spacing" textLength="82" x="1021.5" y="821.6426">&#171;controllers&#187;</text><text fill="#000000" font-family="sans-serif" font-size="14" lengthAdjust="spacing" textLength="82" x="1021.5" y="839.252">:reservations</text><rect fill="#E2E2F0" height="49.2188" rx="2.5" ry="2.5" style="stroke:#181818;stroke-width:0.5;" width="124" x="1188.5" y="88.1875"/><text fill="#000000" font-family="sans-serif" font-size="14" lengthAdjust="spacing" textLength="54" x="1223.5" y="109.7207">&#171;model&#187;</text><text fill="#000000" font-family="sans-serif" font-size="14" lengthAdjust="spacing" textLength="110" x="1195.5" y="127.3301">:CoworkingSpace</text><rect fill="#E2E2F0" height="49.2188" rx="2.5" ry="2.5" style="stroke:#181818;stroke-width:0.5;" width="124" x="1188.5" y="800.1094"/><text fill="#000000" font-family="sans-serif" font-size="14" lengthAdjust="spacing" textLength="54" x="1223.5" y="821.6426">&#171;model&#187;</text><text fill="#000000" font-family="sans-serif" font-size="14" lengthAdjust="spacing" textLength="110" x="1195.5" y="839.252">:CoworkingSpace</text><rect fill="#E2E2F0" height="49.2188" rx="2.5" ry="2.5" style="stroke:#181818;stroke-width:0.5;" width="94" x="1322.5" y="88.1875"/><text fill="#000000" font-family="sans-serif" font-size="14" lengthAdjust="spacing" textLength="54" x="1342.5" y="109.7207">&#171;model&#187;</text><text fill="#000000" font-family="sans-serif" font-size="14" lengthAdjust="spacing" textLength="80" x="1329.5" y="127.3301">:Reservation</text><rect fill="#E2E2F0" height="49.2188" rx="2.5" ry="2.5" style="stroke:#181818;stroke-width:0.5;" width="94" x="1322.5" y="800.1094"/><text fill="#000000" font-family="sans-serif" font-size="14" lengthAdjust="spacing" textLength="54" x="1342.5" y="821.6426">&#171;model&#187;</text><text fill="#000000" font-family="sans-serif" font-size="14" lengthAdjust="spacing" textLength="80" x="1329.5" y="839.252">:Reservation</text><text fill="#000000" font-family="sans-serif" font-size="14" lengthAdjust="spacing" textLength="78" x="1443.5" y="117.7207">&#171;MongoDB&#187;</text><text fill="#000000" font-family="sans-serif" font-size="14" lengthAdjust="spacing" textLength="112" x="1426.5" y="135.3301">:coworkingspaces</text><path d="M1467.5,67.1875 C1467.5,57.1875 1485.5,57.1875 1485.5,57.1875 C1485.5,57.1875 1503.5,57.1875 1503.5,67.1875 L1503.5,93.1875 C1503.5,103.1875 1485.5,103.1875 1485.5,103.1875 C1485.5,103.1875 1467.5,103.1875 1467.5,93.1875 L1467.5,67.1875 " fill="#E2E2F0" style="stroke:#181818;stroke-width:1.5;"/><path d="M1467.5,67.1875 C1467.5,77.1875 1485.5,77.1875 1485.5,77.1875 C1485.5,77.1875 1503.5,77.1875 1503.5,67.1875 " fill="none" style="stroke:#181818;stroke-width:1.5;"/><text fill="#000000" font-family="sans-serif" font-size="14" lengthAdjust="spacing" textLength="78" x="1443.5" y="814.6426">&#171;MongoDB&#187;</text><text fill="#000000" font-family="sans-serif" font-size="14" lengthAdjust="spacing" textLength="112" x="1426.5" y="832.252">:coworkingspaces</text><path d="M1467.5,845.3281 C1467.5,835.3281 1485.5,835.3281 1485.5,835.3281 C1485.5,835.3281 1503.5,835.3281 1503.5,845.3281 L1503.5,871.3281 C1503.5,881.3281 1485.5,881.3281 1485.5,881.3281 C1485.5,881.3281 1467.5,881.3281 1467.5,871.3281 L1467.5,845.3281 " fill="#E2E2F0" style="stroke:#181818;stroke-width:1.5;"/><path d="M1467.5,845.3281 C1467.5,855.3281 1485.5,855.3281 1485.5,855.3281 C1485.5,855.3281 1503.5,855.3281 1503.5,845.3281 " fill="none" style="stroke:#181818;stroke-width:1.5;"/><text fill="#000000" font-family="sans-serif" font-size="14" lengthAdjust="spacing" textLength="78" x="1556.5" y="117.7207">&#171;MongoDB&#187;</text><text fill="#000000" font-family="sans-serif" font-size="14" lengthAdjust="spacing" textLength="82" x="1554.5" y="135.3301">:reservations</text><path d="M1580.5,67.1875 C1580.5,57.1875 1598.5,57.1875 1598.5,57.1875 C1598.5,57.1875 1616.5,57.1875 1616.5,67.1875 L1616.5,93.1875 C1616.5,103.1875 1598.5,103.1875 1598.5,103.1875 C1598.5,103.1875 1580.5,103.1875 1580.5,93.1875 L1580.5,67.1875 " fill="#E2E2F0" style="stroke:#181818;stroke-width:1.5;"/><path d="M1580.5,67.1875 C1580.5,77.1875 1598.5,77.1875 1598.5,77.1875 C1598.5,77.1875 1616.5,77.1875 1616.5,67.1875 " fill="none" style="stroke:#181818;stroke-width:1.5;"/><text fill="#000000" font-family="sans-serif" font-size="14" lengthAdjust="spacing" textLength="78" x="1556.5" y="814.6426">&#171;MongoDB&#187;</text><text fill="#000000" font-family="sans-serif" font-size="14" lengthAdjust="spacing" textLength="82" x="1554.5" y="832.252">:reservations</text><path d="M1580.5,845.3281 C1580.5,835.3281 1598.5,835.3281 1598.5,835.3281 C1598.5,835.3281 1616.5,835.3281 1616.5,845.3281 L1616.5,871.3281 C1616.5,881.3281 1598.5,881.3281 1598.5,881.3281 C1598.5,881.3281 1580.5,881.3281 1580.5,871.3281 L1580.5,845.3281 " fill="#E2E2F0" style="stroke:#181818;stroke-width:1.5;"/><path d="M1580.5,845.3281 C1580.5,855.3281 1598.5,855.3281 1598.5,855.3281 C1598.5,855.3281 1616.5,855.3281 1616.5,845.3281 " fill="none" style="stroke:#181818;stroke-width:1.5;"/><rect fill="#FFFFFF" height="621.3516" style="stroke:#181818;stroke-width:1.0;" width="10" x="369" y="170.7578"/><rect fill="#FFFFFF" height="591" style="stroke:#181818;stroke-width:1.0;" width="10" x="731" y="201.1094"/><rect fill="#FFFFFF" height="30.3516" style="stroke:#181818;stroke-width:1.0;" width="10" x="949" y="231.4609"/><rect fill="#FFFFFF" height="146.7578" style="stroke:#181818;stroke-width:1.0;" width="10" x="1057.5" y="292.1641"/><rect fill="#FFFFFF" height="469.5938" style="stroke:#181818;stroke-width:1.0;" width="10" x="1245.5" y="322.5156"/><rect fill="#FFFFFF" height="307" style="stroke:#181818;stroke-width:1.0;" width="10" x="1364.5" y="485.1094"/><rect fill="#FFFFFF" height="91.0547" style="stroke:#181818;stroke-width:1.0;" width="10" x="1369.5" y="647.7031"/><rect fill="#FFFFFF" height="30.3516" style="stroke:#181818;stroke-width:1.0;" width="10" x="1480.5" y="352.8672"/><rect fill="#FFFFFF" height="30.3516" style="stroke:#181818;stroke-width:1.0;" width="10" x="1593.5" y="515.4609"/><rect fill="#FFFFFF" height="30.3516" style="stroke:#181818;stroke-width:1.0;" width="10" x="1593.5" y="678.0547"/><polygon fill="#181818" points="357,166.7578,367,170.7578,357,174.7578,361,170.7578" style="stroke:#181818;stroke-width:1.0;"/><line style="stroke:#181818;stroke-width:1.0;" x1="55" x2="363" y1="170.7578" y2="170.7578"/><text fill="#000000" font-family="sans-serif" font-size="13" lengthAdjust="spacing" textLength="295" x="62" y="165.9014">req.post('/api/v1/coworkingspaces/{id}/reservations')</text><polygon fill="#181818" points="719,197.1094,729,201.1094,719,205.1094,723,201.1094" style="stroke:#181818;stroke-width:1.0;"/><line style="stroke:#181818;stroke-width:1.0;" x1="379" x2="725" y1="201.1094" y2="201.1094"/><text fill="#000000" font-family="sans-serif" font-size="13" lengthAdjust="spacing" textLength="333" x="386" y="196.2529">router.use('/:coworkingSpaceId/reservations', reservations)</text><polygon fill="#181818" points="937,227.4609,947,231.4609,937,235.4609,941,231.4609" style="stroke:#181818;stroke-width:1.0;"/><line style="stroke:#181818;stroke-width:1.0;" x1="741" x2="943" y1="231.4609" y2="231.4609"/><text fill="#000000" font-family="sans-serif" font-size="13" lengthAdjust="spacing" textLength="189" x="748" y="226.6045">protect + authorize('user','admin')</text><polygon fill="#181818" points="752,257.8125,742,261.8125,752,265.8125,748,261.8125" style="stroke:#181818;stroke-width:1.0;"/><line style="stroke:#181818;stroke-width:1.0;stroke-dasharray:2.0,2.0;" x1="746" x2="953" y1="261.8125" y2="261.8125"/><text fill="#000000" font-family="sans-serif" font-size="13" lengthAdjust="spacing" textLength="33" x="758" y="256.9561">next()</text><polygon fill="#181818" points="1045.5,288.1641,1055.5,292.1641,1045.5,296.1641,1049.5,292.1641" style="stroke:#181818;stroke-width:1.0;"/><line style="stroke:#181818;stroke-width:1.0;" x1="741" x2="1051.5" y1="292.1641" y2="292.1641"/><text fill="#000000" font-family="sans-serif" font-size="13" lengthAdjust="spacing" textLength="96" x="748" y="287.3076">addReservation()</text><polygon fill="#181818" points="1233.5,318.5156,1243.5,322.5156,1233.5,326.5156,1237.5,322.5156" style="stroke:#181818;stroke-width:1.0;"/><line style="stroke:#181818;stroke-width:1.0;" x1="1067.5" x2="1239.5" y1="322.5156" y2="322.5156"/><text fill="#000000" font-family="sans-serif" font-size="13" lengthAdjust="spacing" textLength="159" x="1074.5" y="317.6592">findById(coworkingSpaceId)</text><polygon fill="#181818" points="1468.5,348.8672,1478.5,352.8672,1468.5,356.8672,1472.5,352.8672" style="stroke:#181818;stroke-width:1.0;"/><line style="stroke:#181818;stroke-width:1.0;" x1="1255.5" x2="1474.5" y1="352.8672" y2="352.8672"/><text fill="#000000" font-family="sans-serif" font-size="13" lengthAdjust="spacing" textLength="32" x="1262.5" y="348.0107">query</text><polygon fill="#181818" points="1266.5,379.2188,1256.5,383.2188,1266.5,387.2188,1262.5,383.2188" style="stroke:#181818;stroke-width:1.0;"/><line style="stroke:#181818;stroke-width:1.0;stroke-dasharray:2.0,2.0;" x1="1260.5" x2="1484.5" y1="383.2188" y2="383.2188"/><text fill="#000000" font-family="sans-serif" font-size="13" lengthAdjust="spacing" textLength="142" x="1272.5" y="378.3623">coworkingSpace (or null)</text><path d="M10,398.2188 L71,398.2188 L71,406.5703 L61,416.5703 L10,416.5703 L10,398.2188 " fill="#EEEEEE" style="stroke:#000000;stroke-width:1.5;"/><rect fill="none" height="385.8906" style="stroke:#000000;stroke-width:1.5;" width="1652.5" x="10" y="398.2188"/><text fill="#000000" font-family="sans-serif" font-size="13" font-weight="bold" lengthAdjust="spacing" textLength="16" x="25" y="412.7139">alt</text><text fill="#000000" font-family="sans-serif" font-size="11" font-weight="bold" lengthAdjust="spacing" textLength="156" x="86" y="411.6377">[coworkingSpace not found]</text><polygon fill="#181818" points="66,434.9219,56,438.9219,66,442.9219,62,438.9219" style="stroke:#181818;stroke-width:1.0;"/><line style="stroke:#181818;stroke-width:1.0;" x1="60" x2="1061.5" y1="438.9219" y2="438.9219"/><text fill="#000000" font-family="sans-serif" font-size="13" lengthAdjust="spacing" textLength="142" x="72" y="434.0654">404 No CoworkingSpace</text><line style="stroke:#000000;stroke-width:1.0;stroke-dasharray:2.0,2.0;" x1="10" x2="1662.5" y1="447.9219" y2="447.9219"/><text fill="#000000" font-family="sans-serif" font-size="11" font-weight="bold" lengthAdjust="spacing" textLength="135" x="15" y="459.3408">[coworkingSpace found]</text><polygon fill="#181818" points="1352.5,481.1094,1362.5,485.1094,1352.5,489.1094,1356.5,485.1094" style="stroke:#181818;stroke-width:1.0;"/><line style="stroke:#181818;stroke-width:1.0;" x1="1062.5" x2="1358.5" y1="485.1094" y2="485.1094"/><text fill="#000000" font-family="sans-serif" font-size="13" lengthAdjust="spacing" textLength="130" x="1069.5" y="480.2529">find({user: req.user.id})</text><polygon fill="#181818" points="1581.5,511.4609,1591.5,515.4609,1581.5,519.4609,1585.5,515.4609" style="stroke:#181818;stroke-width:1.0;"/><line style="stroke:#181818;stroke-width:1.0;" x1="1374.5" x2="1587.5" y1="515.4609" y2="515.4609"/><text fill="#000000" font-family="sans-serif" font-size="13" lengthAdjust="spacing" textLength="152" x="1381.5" y="510.6045">query reservations by user</text><polygon fill="#181818" points="1385.5,541.8125,1375.5,545.8125,1385.5,549.8125,1381.5,545.8125" style="stroke:#181818;stroke-width:1.0;"/><line style="stroke:#181818;stroke-width:1.0;stroke-dasharray:2.0,2.0;" x1="1379.5" x2="1597.5" y1="545.8125" y2="545.8125"/><text fill="#000000" font-family="sans-serif" font-size="13" lengthAdjust="spacing" textLength="124" x="1391.5" y="540.9561">existedReservations[]</text><path d="M20,560.8125 L81,560.8125 L81,569.1641 L71,579.1641 L20,579.1641 L20,560.8125 " fill="#EEEEEE" style="stroke:#000000;stroke-width:1.5;"/><rect fill="none" height="216.2969" style="stroke:#000000;stroke-width:1.5;" width="1632.5" x="20" y="560.8125"/><text fill="#000000" font-family="sans-serif" font-size="13" font-weight="bold" lengthAdjust="spacing" textLength="16" x="35" y="575.3076">alt</text><text fill="#000000" font-family="sans-serif" font-size="11" font-weight="bold" lengthAdjust="spacing" textLength="281" x="96" y="574.2314">[existedReservations.length &gt;= 3 and role != admin]</text><polygon fill="#181818" points="66,597.5156,56,601.5156,66,605.5156,62,601.5156" style="stroke:#181818;stroke-width:1.0;"/><line style="stroke:#181818;stroke-width:1.0;" x1="60" x2="1061.5" y1="601.5156" y2="601.5156"/><text fill="#000000" font-family="sans-serif" font-size="13" lengthAdjust="spacing" textLength="187" x="72" y="596.6592">400 already made 3 reservations</text><line style="stroke:#000000;stroke-width:1.0;stroke-dasharray:2.0,2.0;" x1="20" x2="1652.5" y1="610.5156" y2="610.5156"/><text fill="#000000" font-family="sans-serif" font-size="11" font-weight="bold" lengthAdjust="spacing" textLength="51" x="25" y="621.9346">[allowed]</text><polygon fill="#181818" points="1357.5,643.7031,1367.5,647.7031,1357.5,651.7031,1361.5,647.7031" style="stroke:#181818;stroke-width:1.0;"/><line style="stroke:#181818;stroke-width:1.0;" x1="1062.5" x2="1363.5" y1="647.7031" y2="647.7031"/><text fill="#000000" font-family="sans-serif" font-size="13" lengthAdjust="spacing" textLength="246" x="1069.5" y="642.8467">create(req.body + user + coworkingSpace)</text><polygon fill="#181818" points="1581.5,674.0547,1591.5,678.0547,1581.5,682.0547,1585.5,678.0547" style="stroke:#181818;stroke-width:1.0;"/><line style="stroke:#181818;stroke-width:1.0;" x1="1379.5" x2="1587.5" y1="678.0547" y2="678.0547"/><text fill="#000000" font-family="sans-serif" font-size="13" lengthAdjust="spacing" textLength="103" x="1386.5" y="673.1982">insert Reservation</text><polygon fill="#181818" points="1390.5,704.4063,1380.5,708.4063,1390.5,712.4063,1386.5,708.4063" style="stroke:#181818;stroke-width:1.0;"/><line style="stroke:#181818;stroke-width:1.0;stroke-dasharray:2.0,2.0;" x1="1384.5" x2="1597.5" y1="708.4063" y2="708.4063"/><text fill="#000000" font-family="sans-serif" font-size="13" lengthAdjust="spacing" textLength="62" x="1396.5" y="703.5498">reservation</text><polygon fill="#181818" points="1073.5,734.7578,1063.5,738.7578,1073.5,742.7578,1069.5,738.7578" style="stroke:#181818;stroke-width:1.0;"/><line style="stroke:#181818;stroke-width:1.0;stroke-dasharray:2.0,2.0;" x1="1067.5" x2="1363.5" y1="738.7578" y2="738.7578"/><text fill="#000000" font-family="sans-serif" font-size="13" lengthAdjust="spacing" textLength="62" x="1079.5" y="733.9014">reservation</text><polygon fill="#181818" points="66,765.1094,56,769.1094,66,773.1094,62,769.1094" style="stroke:#181818;stroke-width:1.0;"/><line style="stroke:#181818;stroke-width:1.0;" x1="60" x2="1061.5" y1="769.1094" y2="769.1094"/><text fill="#000000" font-family="sans-serif" font-size="13" lengthAdjust="spacing" textLength="172" x="72" y="764.2529">201 response {success, data}</text><text fill="#888888" font-family="sans-serif" font-size="10" lengthAdjust="spacing" textLength="183" x="1488.5" y="15.3809">Sample Coworking Sequence Diagram</text><!--SRC=[bLJ1Sjem4BtxAxPSC0E6fCqfGpoJX4iEQJkbjxO7nTeGjK9o99b0cVnxLd9hMmwaqmE3PUrxR_NsMG_8E1fOidKf4QxrapQ_X5h14XyhL0N2Gh2LOUl42KS5WqlEuGjQD1lcX5QGVlwq_3g2CTooBNo0GPAKp3XHY98f1uDhAL2v0J0BHNYCj-Vpdsp3beKHfSlpx-hS4wC9zVLZlzxeog49jQPjmmP4lKVTRVgejU1SuXCp692iSWy1qRw_f5TzLA6LCrfADFQmOAVWeAhcA0EoyNLPiW9hQRyPbiTX7QDRJ53YpB4xPj7NtsgrqekhW2Z-2bdFN7SPHEpY3-8ezDNfl523IkhnPNaz5XYFpy7WuxJKrgN36Il5R7CwwydFze8_pxh4mr5I4sHvEwsQB2odbKMYQyyHch_XCSa4kijHqb9bUJpIG5qQxR1m558_U6t4Rz8W8JES31bV2qLTnR0iQY_Bpa7XrgMZ99BgZJzeCSuxKoD4huWQR0OV0FT2yQlT3K_xHwQUcieiZuSOaFI1cbqIRsGHlsyyfeLK6r2Lb7GK9br_Lsa7zxfIF05urNYTW41wTd867pN4iKvGKcSzngDiJPOR5zAzdqaTA_yqfV2C2DfKPdatagq7KHhWRWSUJS1kTTPLz4V0hR0EkyEottuaXFAs7DYSIbGh2bH-GTSSKvm2I_VXkmi82IBSlnmx8MP3j-qErdJb4actQy87zvYK-WdvORhOieB87ARUhJjDhEDmRFgB9p0AN6zvA1JXNFTM3v0ttJEzubwlyopxh_h8glSdfxw-95iGzhOgADzs0lxUUlO-KPxyxmK0]--></g></svg>