<?xml version="1.0" encoding="us-ascii" standalone="no"?><svg xmlns="http://www.w3.org/2000/svg" xmlns:xlink="http://www.w3.org/1999/xlink" contentStyleType="text/css" height="746px" preserveAspectRatio="none" style="width:1321px;height:746px;background:#FFFFFF;" version="1.1" viewBox="0 0 1321 746" width="1321px" zoomAndPan="magnify"><defs/><g><text fill="#000000" font-family="sans-serif" font-size="14" font-weight="bold" lengthAdjust="spacing" textLength="310" x="501.75" y="43.1113">Delete Reservation (DELETE) [Owner/Admin]</text><rect fill="#FFFFFF" height="469.5938" style="stroke:#181818;stroke-width:1.0;" width="10" x="337" y="170.7578"/><rect fill="#FFFFFF" height="439.2422" style="stroke:#181818;stroke-width:1.0;" width="10" x="611" y="201.1094"/><rect fill="#FFFFFF" height="30.3516" style="stroke:#181818;stroke-width:1.0;" width="10" x="829" y="231.4609"/><rect fill="#FFFFFF" height="146.7578" style="stroke:#181818;stroke-width:1.0;" width="10" x="937.5" y="292.1641"/><rect fill="#FFFFFF" height="317.8359" style="stroke:#181818;stroke-width:1.0;" width="10" x="1092.5" y="322.5156"/><rect fill="#FFFFFF" height="83.7031" style="stroke:#181818;stroke-width:1.0;" width="10" x="1097.5" y="556.6484"/><rect fill="#FFFFFF" height="30.3516" style="stroke:#181818;stroke-width:1.0;" width="10" x="1235.5" y="352.8672"/><rect fill="#FFFFFF" height="53.3516" style="stroke:#181818;stroke-width:1.0;" width="10" x="1235.5" y="587"/><rect fill="none" height="234.1328" style="stroke:#000000;stroke-width:1.5;" width="1294.5" x="10" y="398.2188"/><rect fill="none" height="155.5938" style="stroke:#000000;stroke-width:1.5;" width="1274.5" x="20" y="469.7578"/><line style="stroke:#181818;stroke-width:0.5;stroke-dasharray:5.0,5.0;" x1="55" x2="55" y1="138.4063" y2="649.3516"/><line style="stroke:#181818;stroke-width:0.5;stroke-dasharray:5.0,5.0;" x1="342" x2="342" y1="138.4063" y2="649.3516"/><line style="stroke:#181818;stroke-width:0.5;stroke-dasharray:5.0,5.0;" x1="616" x2="616" y1="138.4063" y2="649.3516"/><line style="stroke:#181818;stroke-width:0.5;stroke-dasharray:5.0,5.0;" x1="833.5" x2="833.5" y1="138.4063" y2="649.3516"/><line style="stroke:#181818;stroke-width:0.5;stroke-dasharray:5.0,5.0;" x1="942.5" x2="942.5" y1="138.4063" y2="649.3516"/><line style="stroke:#181818;stroke-width:0.5;stroke-dasharray:5.0,5.0;" x1="1097.5" x2="1097.5" y1="138.4063" y2="649.3516"/><line style="stroke:#181818;stroke-width:0.5;stroke-dasharray:5.0,5.0;" x1="1240.5" x2="1240.5" y1="138.4063" y2="649.3516"/><rect fill="#E2E2F0" height="31.6094" rx="2.5" ry="2.5" style="stroke:#181818;stroke-width:0.5;" width="50" x="30" y="105.7969"/><text fill="#000000" font-family="sans-serif" font-size="14" lengthAdjust="spacing" textLength="36" x="37" y="127.3301">Client</text><rect fill="#E2E2F0" height="31.6094" rx="2.5" ry="2.5" style="stroke:#181818;stroke-width:0.5;" width="50" x="30" y="648.3516"/><text fill="#000000" font-family="sans-serif" font-size="14" lengthAdjust="spacing" textLength="36" x="37" y="669.8848">Client</text><rect fill="#E2E2F0" height="49.2188" rx="2.5" ry="2.5" style="stroke:#181818;stroke-width:0.5;" width="92" x="296" y="88.1875"/><text fill="#000000" font-family="sans-serif" font-size="14" lengthAdjust="spacing" textLength="78" x="303" y="109.7207">&#171;javaScript&#187;</text><text fill="#000000" font-family="sans-serif" font-size="14" lengthAdjust="spacing" textLength="44" x="320" y="127.3301">:server</text><rect fill="#E2E2F0" height="49.2188" rx="2.5" ry="2.5" style="stroke:#181818;stroke-width:0.5;" width="92" x="296" y="648.3516"/><text fill="#000000" font-family="sans-serif" font-size="14" lengthAdjust="spacing" textLength="78" x="303" y="669.8848">&#171;javaScript&#187;</text><text fill="#000000" font-family="sans-serif" font-size="14" lengthAdjust="spacing" textLength="44" x="320" y="687.4941">:server</text><rect fill="#E2E2F0" height="49.2188" rx="2.5" ry="2.5" style="stroke:#181818;stroke-width:0.5;" width="96" x="568" y="88.1875"/><text fill="#000000" font-family="sans-serif" font-size="14" lengthAdjust="spacing" textLength="54" x="589" y="109.7207">&#171;router&#187;</text><text fill="#000000" font-family="sans-serif" font-size="14" lengthAdjust="spacing" textLength="82" x="575" y="127.3301">:reservations</text><rect fill="#E2E2F0" height="49.2188" rx="2.5" ry="2.5" style="stroke:#181818;stroke-width:0.5;" width="96" x="568" y="648.3516"/><text fill="#000000" font-family="sans-serif" font-size="14" lengthAdjust="spacing" textLength="54" x="589" y="669.8848">&#171;router&#187;</text><text fill="#000000" font-family="sans-serif" font-size="14" lengthAdjust="spacing" textLength="82" x="575" y="687.4941">:reservations</text><rect fill="#E2E2F0" height="49.2188" rx="2.5" ry="2.5" style="stroke:#181818;stroke-width:0.5;" width="101" x="783.5" y="88.1875"/><text fill="#000000" font-family="sans-serif" font-size="14" lengthAdjust="spacing" textLength="87" x="790.5" y="109.7207">&#171;middleware&#187;</text><text fill="#000000" font-family="sans-serif" font-size="14" lengthAdjust="spacing" textLength="32" x="818" y="127.3301">:auth</text><rect fill="#E2E2F0" height="49.2188" rx="2.5" ry="2.5" style="stroke:#181818;stroke-width:0.5;" width="101" x="783.5" y="648.3516"/><text fill="#000000" font-family="sans-serif" font-size="14" lengthAdjust="spacing" textLength="87" x="790.5" y="669.8848">&#171;middleware&#187;</text><text fill="#000000" font-family="sans-serif" font-size="14" lengthAdjust="spacing" textLength="32" x="818" y="687.4941">:auth</text><rect fill="#E2E2F0" height="49.2188" rx="2.5" ry="2.5" style="stroke:#181818;stroke-width:0.5;" width="96" x="894.5" y="88.1875"/><text fill="#000000" font-family="sans-serif" font-size="14" lengthAdjust="spacing" textLength="82" x="901.5" y="109.7207">&#171;controllers&#187;</text><text fill="#000000" font-family="sans-serif" font-size="14" lengthAdjust="spacing" textLength="82" x="901.5" y="127.3301">:reservations</text><rect fill="#E2E2F0" height="49.2188" rx="2.5" ry="2.5" style="stroke:#181818;stroke-width:0.5;" width="96" x="894.5" y="648.3516"/><text fill="#000000" font-family="sans-serif" font-size="14" lengthAdjust="spacing" textLength="82" x="901.5" y="669.8848">&#171;controllers&#187;</text><text fill="#000000" font-family="sans-serif" font-size="14" lengthAdjust="spacing" textLength="82" x="901.5" y="687.4941">:reservations</text><rect fill="#E2E2F0" height="49.2188" rx="2.5" ry="2.5" style="stroke:#181818;stroke-width:0.5;" width="94" x="1050.5" y="88.1875"/><text fill="#000000" font-family="sans-serif" font-size="14" lengthAdjust="spacing" textLength="54" x="1070.5" y="109.7207">&#171;model&#187;</text><text fill="#000000" font-family="sans-serif" font-size="14" lengthAdjust="spacing" textLength="80" x="1057.5" y="127.3301">:Reservation</text><rect fill="#E2E2F0" height="49.2188" rx="2.5" ry="2.5" style="stroke:#181818;stroke-width:0.5;" width="94" x="1050.5" y="648.3516"/><text fill="#000000" font-family="sans-serif" font-size="14" lengthAdjust="spacing" textLength="54" x="1070.5" y="669.8848">&#171;model&#187;</text><text fill="#000000" font-family="sans-serif" font-size="14" lengthAdjust="spacing" textLength="80" x="1057.5" y="687.4941">:Reservation</text><text fill="#000000" font-family="sans-serif" font-size="14" lengthAdjust="spacing" textLength="78" x="1198.5" y="117.7207">&#171;MongoDB&#187;</text><text fill="#000000" font-family="sans-serif" font-size="14" lengthAdjust="spacing" textLength="82" x="1196.5" y="135.3301">:reservations</text><path d="M1222.5,67.1875 C1222.5,57.1875 1240.5,57.1875 1240.5,57.1875 C1240.5,57.1875 1258.5,57.1875 1258.5,67.1875 L1258.5,93.1875 C1258.5,103.1875 1240.5,103.1875 1240.5,103.1875 C1240.5,103.1875 1222.5,103.1875 1222.5,93.1875 L1222.5,67.1875 " fill="#E2E2F0" style="stroke:#181818;stroke-width:1.5;"/><path d="M1222.5,67.1875 C1222.5,77.1875 1240.5,77.1875 1240.5,77.1875 C1240.5,77.1875 1258.5,77.1875 1258.5,67.1875 " fill="none" style="stroke:#181818;stroke-width:1.5;"/><text fill="#000000" font-family="sans-serif" font-size="14" lengthAdjust="spacing" textLength="78" x="1198.5" y="662.8848">&#171;MongoDB&#187;</text><text fill="#000000" font-family="sans-serif" font-size="14" lengthAdjust="spacing" textLength="82" x="1196.5" y="680.4941">:reservations</text><path d="M1222.5,693.5703 C1222.5,683.5703 1240.5,683.5703 1240.5,683.5703 C1240.5,683.5703 1258.5,683.5703 1258.5,693.5703 L1258.5,719.5703 C1258.5,729.5703 1240.5,729.5703 1240.5,729.5703 C1240.5,729.5703 1222.5,729.5703 1222.5,719.5703 L1222.5,693.5703 " fill="#E2E2F0" style="stroke:#181818;stroke-width:1.5;"/><path d="M1222.5,693.5703 C1222.5,703.5703 1240.5,703.5703 1240.5,703.5703 C1240.5,703.5703 1258.5,703.5703 1258.5,693.5703 " fill="none" style="stroke:#181818;stroke-width:1.5;"/><rect fill="#FFFFFF" height="469.5938" style="stroke:#181818;stroke-width:1.0;" width="10" x="337" y="170.7578"/><rect fill="#FFFFFF" height="439.2422" style="stroke:#181818;stroke-width:1.0;" width="10" x="611" y="201.1094"/><rect fill="#FFFFFF" height="30.3516" style="stroke:#181818;stroke-width:1.0;" width="10" x="829" y="231.4609"/><rect fill="#FFFFFF" height="146.7578" style="stroke:#181818;stroke-width:1.0;" width="10" x="937.5" y="292.1641"/><rect fill="#FFFFFF" height="317.8359" style="stroke:#181818;stroke-width:1.0;" width="10" x="1092.5" y="322.5156"/><rect fill="#FFFFFF" height="83.7031" style="stroke:#181818;stroke-width:1.0;" width="10" x="1097.5" y="556.6484"/><rect fill="#FFFFFF" height="30.3516" style="stroke:#181818;stroke-width:1.0;" width="10" x="1235.5" y="352.8672"/><rect fill="#FFFFFF" height="53.3516" style="stroke:#181818;stroke-width:1.0;" width="10" x="1235.5" y="587"/><polygon fill="#181818" points="325,166.7578,335,170.7578,325,174.7578,329,170.7578" style="stroke:#181818;stroke-width:1.0;"/><line style="stroke:#181818;stroke-width:1.0;" x1="55" x2="331" y1="170.7578" y2="170.7578"/><text fill="#000000" font-family="sans-serif" font-size="13" lengthAdjust="spacing" textLength="263" x="62" y="165.9014">req.delete('/api/v1/reservations/{reservationId}')</text><polygon fill="#181818" points="599,197.1094,609,201.1094,599,205.1094,603,201.1094" style="stroke:#181818;stroke-width:1.0;"/><line style="stroke:#181818;stroke-width:1.0;" x1="347" x2="605" y1="201.1094" y2="201.1094"/><text fill="#000000" font-family="sans-serif" font-size="13" lengthAdjust="spacing" textLength="245" x="354" y="196.2529">app.use('/api/v1/reservations', reservations)</text><polygon fill="#181818" points="817,227.4609,827,231.4609,817,235.4609,821,231.4609" style="stroke:#181818;stroke-width:1.0;"/><line style="stroke:#181818;stroke-width:1.0;" x1="621" x2="823" y1="231.4609" y2="231.4609"/><text fill="#000000" font-family="sans-serif" font-size="13" lengthAdjust="spacing" textLength="189" x="628" y="226.6045">protect + authorize('user','admin')</text><polygon fill="#181818" points="632,257.8125,622,261.8125,632,265.8125,628,261.8125" style="stroke:#181818;stroke-width:1.0;"/><line style="stroke:#181818;stroke-width:1.0;stroke-dasharray:2.0,2.0;" x1="626" x2="833" y1="261.8125" y2="261.8125"/><text fill="#000000" font-family="sans-serif" font-size="13" lengthAdjust="spacing" textLength="33" x="638" y="256.9561">next()</text><polygon fill="#181818" points="925.5,288.1641,935.5,292.1641,925.5,296.1641,929.5,292.1641" style="stroke:#181818;stroke-width:1.0;"/><line style="stroke:#181818;stroke-width:1.0;" x1="621" x2="931.5" y1="292.1641" y2="292.1641"/><text fill="#000000" font-family="sans-serif" font-size="13" lengthAdjust="spacing" textLength="110" x="628" y="287.3076">deleteReservation()</text><polygon fill="#181818" points="1080.5,318.5156,1090.5,322.5156,1080.5,326.5156,1084.5,322.5156" style="stroke:#181818;stroke-width:1.0;"/><line style="stroke:#181818;stroke-width:1.0;" x1="947.5" x2="1086.5" y1="322.5156" y2="322.5156"/><text fill="#000000" font-family="sans-serif" font-size="13" lengthAdjust="spacing" textLength="126" x="954.5" y="317.6592">findById(reservationId)</text><polygon fill="#181818" points="1223.5,348.8672,1233.5,352.8672,1223.5,356.8672,1227.5,352.8672" style="stroke:#181818;stroke-width:1.0;"/><line style="stroke:#181818;stroke-width:1.0;" x1="1102.5" x2="1229.5" y1="352.8672" y2="352.8672"/><text fill="#000000" font-family="sans-serif" font-size="13" lengthAdjust="spacing" textLength="32" x="1109.5" y="348.0107">query</text><polygon fill="#181818" points="1113.5,379.2188,1103.5,383.2188,1113.5,387.2188,1109.5,383.2188" style="stroke:#181818;stroke-width:1.0;"/><line style="stroke:#181818;stroke-width:1.0;stroke-dasharray:2.0,2.0;" x1="1107.5" x2="1239.5" y1="383.2188" y2="383.2188"/><text fill="#000000" font-family="sans-serif" font-size="13" lengthAdjust="spacing" textLength="109" x="1119.5" y="378.3623">reservation (or null)</text><path d="M10,398.2188 L71,398.2188 L71,406.5703 L61,416.5703 L10,416.5703 L10,398.2188 " fill="#EEEEEE" style="stroke:#000000;stroke-width:1.5;"/><rect fill="none" height="234.1328" style="stroke:#000000;stroke-width:1.5;" width="1294.5" x="10" y="398.2188"/><text fill="#000000" font-family="sans-serif" font-size="13" font-weight="bold" lengthAdjust="spacing" textLength="16" x="25" y="412.7139">alt</text><text fill="#000000" font-family="sans-serif" font-size="11" font-weight="bold" lengthAdjust="spacing" textLength="128" x="86" y="411.6377">[reservation not found]</text><polygon fill="#181818" points="66,434.9219,56,438.9219,66,442.9219,62,438.9219" style="stroke:#181818;stroke-width:1.0;"/><line style="stroke:#181818;stroke-width:1.0;" x1="60" x2="941.5" y1="438.9219" y2="438.9219"/><text fill="#000000" font-family="sans-serif" font-size="13" lengthAdjust="spacing" textLength="112" x="72" y="434.0654">404 No Reservation</text><line style="stroke:#000000;stroke-width:1.0;stroke-dasharray:2.0,2.0;" x1="10" x2="1304.5" y1="447.9219" y2="447.9219"/><text fill="#000000" font-family="sans-serif" font-size="11" font-weight="bold" lengthAdjust="spacing" textLength="107" x="15" y="459.3408">[reservation found]</text><path d="M20,469.7578 L81,469.7578 L81,478.1094 L71,488.1094 L20,488.1094 L20,469.7578 " fill="#EEEEEE" style="stroke:#000000;stroke-width:1.5;"/><rect fill="none" height="155.5938" style="stroke:#000000;stroke-width:1.5;" width="1274.5" x="20" y="469.7578"/><text fill="#000000" font-family="sans-serif" font-size="13" font-weight="bold" lengthAdjust="spacing" textLength="16" x="35" y="484.2529">alt</text><text fill="#000000" font-family="sans-serif" font-size="11" font-weight="bold" lengthAdjust="spacing" textLength="148" x="96" y="483.1768">[not owner AND not admin]</text><polygon fill="#181818" points="66,506.4609,56,510.4609,66,514.4609,62,510.4609" style="stroke:#181818;stroke-width:1.0;"/><line style="stroke:#181818;stroke-width:1.0;" x1="60" x2="941.5" y1="510.4609" y2="510.4609"/><text fill="#000000" font-family="sans-serif" font-size="13" lengthAdjust="spacing" textLength="109" x="72" y="505.6045">401 Not authorized</text><line style="stroke:#000000;stroke-width:1.0;stroke-dasharray:2.0,2.0;" x1="20" x2="1294.5" y1="519.4609" y2="519.4609"/><text fill="#000000" font-family="sans-serif" font-size="11" font-weight="bold" lengthAdjust="spacing" textLength="98" x="25" y="530.8799">[owner/admin ok]</text><polygon fill="#181818" points="1085.5,552.6484,1095.5,556.6484,1085.5,560.6484,1089.5,556.6484" style="stroke:#181818;stroke-width:1.0;"/><line style="stroke:#181818;stroke-width:1.0;" x1="942.5" x2="1091.5" y1="556.6484" y2="556.6484"/><text fill="#000000" font-family="sans-serif" font-size="13" lengthAdjust="spacing" textLength="67" x="949.5" y="551.792">deleteOne()</text><polygon fill="#181818" points="1223.5,583,1233.5,587,1223.5,591,1227.5,587" style="stroke:#181818;stroke-width:1.0;"/><line style="stroke:#181818;stroke-width:1.0;" x1="1107.5" x2="1229.5" y1="587" y2="587"/><text fill="#000000" font-family="sans-serif" font-size="13" lengthAdjust="spacing" textLength="35" x="1114.5" y="582.1436">delete</text><polygon fill="#181818" points="66,613.3516,56,617.3516,66,621.3516,62,617.3516" style="stroke:#181818;stroke-width:1.0;"/><line style="stroke:#181818;stroke-width:1.0;" x1="60" x2="941.5" y1="617.3516" y2="617.3516"/><text fill="#000000" font-family="sans-serif" font-size="13" lengthAdjust="spacing" textLength="184" x="72" y="612.4951">200 response {success, data:{}}</text><text fill="#888888" font-family="sans-serif" font-size="10" lengthAdjust="spacing" textLength="183" x="1130.5" y="15.3809">Sample Coworking Sequence Diagram</text><!--SRC=[XLD1Rjim4Bpp5GjVPCDMv1Gv6O409_8XG9i0TMzf3wouSTZGfBAYxAQ6_rwIgY5ATPk3098xCpkS5P-H2oHOyssb46xDtj2Br1jOusk3kaGe9DyGtp8hhGEC2bHe4JvZZRJZLXeDusBrSVLbDO77Xxr6ofPYA_Mt4MCL9ojBMN5jONIh96ex0bv36PRzylNr3xxZwv9aPVFygrvuVQI0RvT3F9d68WKiTMxgm6XhpkHkoDfA8HJkEM5WyiO-1qPtldH7GrPfj2MZ559zlc44EDlL25I16GNNzlMLG17Syk-yHe__PFJ653VdUtbqyGVCM1jcchSXmNIw0CBN2n7cD4uoNibiTvd5AjaXsjs9Op9XBJlDk-224g-gYwR-XqmoWtWxOHqvpVjv1h6AZCNImXHyweRaBoVir2cP9Tp_Cyv7dvRs3ANf0ZJ-jEC9wxKQP1zwjTUFmdQa0SvvF6KVA4zIYvktEp7kXUCidL1f7YSVEEwDq1kBZzDOrZkc-AKO0jqevIx0bUsLjB7mP1ej6C1VHjiP1xch-HNSc_ZzCLJEJQnrql4zlAxnpnAMzqNOXQXTzRq-bwwFxKRb1KEde9O55J0lvuNwoRR3UD3eXk3X_qkqnRvhxyDyxgzSkVyEuL0tPObrFGF_XXQ7uz5xTH7uxpS0]--></g></svg>