<?xml version="1.0" encoding="us-ascii" standalone="no"?><svg xmlns="http://www.w3.org/2000/svg" xmlns:xlink="http://www.w3.org/1999/xlink" contentStyleType="text/css" height="528px" preserveAspectRatio="none" style="width:1174px;height:528px;background:#FFFFFF;" version="1.1" viewBox="0 0 1174 528" width="1174px" zoomAndPan="magnify"><defs/><g><text fill="#000000" font-family="sans-serif" font-size="14" font-weight="bold" lengthAdjust="spacing" textLength="241" x="462.75" y="43.1113">Admin View All Reservations (GET)</text><rect fill="#FFFFFF" height="251.8125" style="stroke:#181818;stroke-width:1.0;" width="10" x="211" y="170.7578"/><rect fill="#FFFFFF" height="221.4609" style="stroke:#181818;stroke-width:1.0;" width="10" x="485" y="201.1094"/><rect fill="#FFFFFF" height="30.3516" style="stroke:#181818;stroke-width:1.0;" width="10" x="637" y="231.4609"/><rect fill="#FFFFFF" height="121.4063" style="stroke:#181818;stroke-width:1.0;" width="10" x="745.5" y="292.1641"/><rect fill="#FFFFFF" height="100.0547" style="stroke:#181818;stroke-width:1.0;" width="10" x="962.5" y="322.5156"/><rect fill="#FFFFFF" height="30.3516" style="stroke:#181818;stroke-width:1.0;" width="10" x="1113.5" y="352.8672"/><line style="stroke:#181818;stroke-width:0.5;stroke-dasharray:5.0,5.0;" x1="30" x2="30" y1="138.4063" y2="431.5703"/><line style="stroke:#181818;stroke-width:0.5;stroke-dasharray:5.0,5.0;" x1="216" x2="216" y1="138.4063" y2="431.5703"/><line style="stroke:#181818;stroke-width:0.5;stroke-dasharray:5.0,5.0;" x1="490" x2="490" y1="138.4063" y2="431.5703"/><line style="stroke:#181818;stroke-width:0.5;stroke-dasharray:5.0,5.0;" x1="641.5" x2="641.5" y1="138.4063" y2="431.5703"/><line style="stroke:#181818;stroke-width:0.5;stroke-dasharray:5.0,5.0;" x1="750.5" x2="750.5" y1="138.4063" y2="431.5703"/><line style="stroke:#181818;stroke-width:0.5;stroke-dasharray:5.0,5.0;" x1="967.5" x2="967.5" y1="138.4063" y2="431.5703"/><line style="stroke:#181818;stroke-width:0.5;stroke-dasharray:5.0,5.0;" x1="1118.5" x2="1118.5" y1="138.4063" y2="431.5703"/><rect fill="#E2E2F0" height="31.6094" rx="2.5" ry="2.5" style="stroke:#181818;stroke-width:0.5;" width="50" x="5" y="105.7969"/><text fill="#000000" font-family="sans-serif" font-size="14" lengthAdjust="spacing" textLength="36" x="12" y="127.3301">Client</text><rect fill="#E2E2F0" height="31.6094" rx="2.5" ry="2.5" style="stroke:#181818;stroke-width:0.5;" width="50" x="5" y="430.5703"/><text fill="#000000" font-family="sans-serif" font-size="14" lengthAdjust="spacing" textLength="36" x="12" y="452.1035">Client</text><rect fill="#E2E2F0" height="49.2188" rx="2.5" ry="2.5" style="stroke:#181818;stroke-width:0.5;" width="92" x="170" y="88.1875"/><text fill="#000000" font-family="sans-serif" font-size="14" lengthAdjust="spacing" textLength="78" x="177" y="109.7207">&#171;javaScript&#187;</text><text fill="#000000" font-family="sans-serif" font-size="14" lengthAdjust="spacing" textLength="44" x="194" y="127.3301">:server</text><rect fill="#E2E2F0" height="49.2188" rx="2.5" ry="2.5" style="stroke:#181818;stroke-width:0.5;" width="92" x="170" y="430.5703"/><text fill="#000000" font-family="sans-serif" font-size="14" lengthAdjust="spacing" textLength="78" x="177" y="452.1035">&#171;javaScript&#187;</text><text fill="#000000" font-family="sans-serif" font-size="14" lengthAdjust="spacing" textLength="44" x="194" y="469.7129">:server</text><rect fill="#E2E2F0" height="49.2188" rx="2.5" ry="2.5" style="stroke:#181818;stroke-width:0.5;" width="96" x="442" y="88.1875"/><text fill="#000000" font-family="sans-serif" font-size="14" lengthAdjust="spacing" textLength="54" x="463" y="109.7207">&#171;router&#187;</text><text fill="#000000" font-family="sans-serif" font-size="14" lengthAdjust="spacing" textLength="82" x="449" y="127.3301">:reservations</text><rect fill="#E2E2F0" height="49.2188" rx="2.5" ry="2.5" style="stroke:#181818;stroke-width:0.5;" width="96" x="442" y="430.5703"/><text fill="#000000" font-family="sans-serif" font-size="14" lengthAdjust="spacing" textLength="54" x="463" y="452.1035">&#171;router&#187;</text><text fill="#000000" font-family="sans-serif" font-size="14" lengthAdjust="spacing" textLength="82" x="449" y="469.7129">:reservations</text><rect fill="#E2E2F0" height="49.2188" rx="2.5" ry="2.5" style="stroke:#181818;stroke-width:0.5;" width="101" x="591.5" y="88.1875"/><text fill="#000000" font-family="sans-serif" font-size="14" lengthAdjust="spacing" textLength="87" x="598.5" y="109.7207">&#171;middleware&#187;</text><text fill="#000000" font-family="sans-serif" font-size="14" lengthAdjust="spacing" textLength="32" x="626" y="127.3301">:auth</text><rect fill="#E2E2F0" height="49.2188" rx="2.5" ry="2.5" style="stroke:#181818;stroke-width:0.5;" width="101" x="591.5" y="430.5703"/><text fill="#000000" font-family="sans-serif" font-size="14" lengthAdjust="spacing" textLength="87" x="598.5" y="452.1035">&#171;middleware&#187;</text><text fill="#000000" font-family="sans-serif" font-size="14" lengthAdjust="spacing" textLength="32" x="626" y="469.7129">:auth</text><rect fill="#E2E2F0" height="49.2188" rx="2.5" ry="2.5" style="stroke:#181818;stroke-width:0.5;" width="96" x="702.5" y="88.1875"/><text fill="#000000" font-family="sans-serif" font-size="14" lengthAdjust="spacing" textLength="82" x="709.5" y="109.7207">&#171;controllers&#187;</text><text fill="#000000" font-family="sans-serif" font-size="14" lengthAdjust="spacing" textLength="82" x="709.5" y="127.3301">:reservations</text><rect fill="#E2E2F0" height="49.2188" rx="2.5" ry="2.5" style="stroke:#181818;stroke-width:0.5;" width="96" x="702.5" y="430.5703"/><text fill="#000000" font-family="sans-serif" font-size="14" lengthAdjust="spacing" textLength="82" x="709.5" y="452.1035">&#171;controllers&#187;</text><text fill="#000000" font-family="sans-serif" font-size="14" lengthAdjust="spacing" textLength="82" x="709.5" y="469.7129">:reservations</text><rect fill="#E2E2F0" height="49.2188" rx="2.5" ry="2.5" style="stroke:#181818;stroke-width:0.5;" width="94" x="920.5" y="88.1875"/><text fill="#000000" font-family="sans-serif" font-size="14" lengthAdjust="spacing" textLength="54" x="940.5" y="109.7207">&#171;model&#187;</text><text fill="#000000" font-family="sans-serif" font-size="14" lengthAdjust="spacing" textLength="80" x="927.5" y="127.3301">:Reservation</text><rect fill="#E2E2F0" height="49.2188" rx="2.5" ry="2.5" style="stroke:#181818;stroke-width:0.5;" width="94" x="920.5" y="430.5703"/><text fill="#000000" font-family="sans-serif" font-size="14" lengthAdjust="spacing" textLength="54" x="940.5" y="452.1035">&#171;model&#187;</text><text fill="#000000" font-family="sans-serif" font-size="14" lengthAdjust="spacing" textLength="80" x="927.5" y="469.7129">:Reservation</text><text fill="#000000" font-family="sans-serif" font-size="14" lengthAdjust="spacing" textLength="78" x="1076.5" y="117.7207">&#171;MongoDB&#187;</text><text fill="#000000" font-family="sans-serif" font-size="14" lengthAdjust="spacing" textLength="82" x="1074.5" y="135.3301">:reservations</text><path d="M1100.5,67.1875 C1100.5,57.1875 1118.5,57.1875 1118.5,57.1875 C1118.5,57.1875 1136.5,57.1875 1136.5,67.1875 L1136.5,93.1875 C1136.5,103.1875 1118.5,103.1875 1118.5,103.1875 C1118.5,103.1875 1100.5,103.1875 1100.5,93.1875 L1100.5,67.1875 " fill="#E2E2F0" style="stroke:#181818;stroke-width:1.5;"/><path d="M1100.5,67.1875 C1100.5,77.1875 1118.5,77.1875 1118.5,77.1875 C1118.5,77.1875 1136.5,77.1875 1136.5,67.1875 " fill="none" style="stroke:#181818;stroke-width:1.5;"/><text fill="#000000" font-family="sans-serif" font-size="14" lengthAdjust="spacing" textLength="78" x="1076.5" y="445.1035">&#171;MongoDB&#187;</text><text fill="#000000" font-family="sans-serif" font-size="14" lengthAdjust="spacing" textLength="82" x="1074.5" y="462.7129">:reservations</text><path d="M1100.5,475.7891 C1100.5,465.7891 1118.5,465.7891 1118.5,465.7891 C1118.5,465.7891 1136.5,465.7891 1136.5,475.7891 L1136.5,501.7891 C1136.5,511.7891 1118.5,511.7891 1118.5,511.7891 C1118.5,511.7891 1100.5,511.7891 1100.5,501.7891 L1100.5,475.7891 " fill="#E2E2F0" style="stroke:#181818;stroke-width:1.5;"/><path d="M1100.5,475.7891 C1100.5,485.7891 1118.5,485.7891 1118.5,485.7891 C1118.5,485.7891 1136.5,485.7891 1136.5,475.7891 " fill="none" style="stroke:#181818;stroke-width:1.5;"/><rect fill="#FFFFFF" height="251.8125" style="stroke:#181818;stroke-width:1.0;" width="10" x="211" y="170.7578"/><rect fill="#FFFFFF" height="221.4609" style="stroke:#181818;stroke-width:1.0;" width="10" x="485" y="201.1094"/><rect fill="#FFFFFF" height="30.3516" style="stroke:#181818;stroke-width:1.0;" width="10" x="637" y="231.4609"/><rect fill="#FFFFFF" height="121.4063" style="stroke:#181818;stroke-width:1.0;" width="10" x="745.5" y="292.1641"/><rect fill="#FFFFFF" height="100.0547" style="stroke:#181818;stroke-width:1.0;" width="10" x="962.5" y="322.5156"/><rect fill="#FFFFFF" height="30.3516" style="stroke:#181818;stroke-width:1.0;" width="10" x="1113.5" y="352.8672"/><polygon fill="#181818" points="199,166.7578,209,170.7578,199,174.7578,203,170.7578" style="stroke:#181818;stroke-width:1.0;"/><line style="stroke:#181818;stroke-width:1.0;" x1="30" x2="205" y1="170.7578" y2="170.7578"/><text fill="#000000" font-family="sans-serif" font-size="13" lengthAdjust="spacing" textLength="162" x="37" y="165.9014">req.get('/api/v1/reservations')</text><polygon fill="#181818" points="473,197.1094,483,201.1094,473,205.1094,477,201.1094" style="stroke:#181818;stroke-width:1.0;"/><line style="stroke:#181818;stroke-width:1.0;" x1="221" x2="479" y1="201.1094" y2="201.1094"/><text fill="#000000" font-family="sans-serif" font-size="13" lengthAdjust="spacing" textLength="245" x="228" y="196.2529">app.use('/api/v1/reservations', reservations)</text><polygon fill="#181818" points="625,227.4609,635,231.4609,625,235.4609,629,231.4609" style="stroke:#181818;stroke-width:1.0;"/><line style="stroke:#181818;stroke-width:1.0;" x1="495" x2="631" y1="231.4609" y2="231.4609"/><text fill="#000000" font-family="sans-serif" font-size="13" lengthAdjust="spacing" textLength="123" x="502" y="226.6045">protect (admin token)</text><polygon fill="#181818" points="506,257.8125,496,261.8125,506,265.8125,502,261.8125" style="stroke:#181818;stroke-width:1.0;"/><line style="stroke:#181818;stroke-width:1.0;stroke-dasharray:2.0,2.0;" x1="500" x2="641" y1="261.8125" y2="261.8125"/><text fill="#000000" font-family="sans-serif" font-size="13" lengthAdjust="spacing" textLength="33" x="512" y="256.9561">next()</text><polygon fill="#181818" points="733.5,288.1641,743.5,292.1641,733.5,296.1641,737.5,292.1641" style="stroke:#181818;stroke-width:1.0;"/><line style="stroke:#181818;stroke-width:1.0;" x1="495" x2="739.5" y1="292.1641" y2="292.1641"/><text fill="#000000" font-family="sans-serif" font-size="13" lengthAdjust="spacing" textLength="100" x="502" y="287.3076">getReservations()</text><polygon fill="#181818" points="950.5,318.5156,960.5,322.5156,950.5,326.5156,954.5,322.5156" style="stroke:#181818;stroke-width:1.0;"/><line style="stroke:#181818;stroke-width:1.0;" x1="755.5" x2="956.5" y1="322.5156" y2="322.5156"/><text fill="#000000" font-family="sans-serif" font-size="13" lengthAdjust="spacing" textLength="188" x="762.5" y="317.6592">find().populate('coworkingSpace')</text><polygon fill="#181818" points="1101.5,348.8672,1111.5,352.8672,1101.5,356.8672,1105.5,352.8672" style="stroke:#181818;stroke-width:1.0;"/><line style="stroke:#181818;stroke-width:1.0;" x1="972.5" x2="1107.5" y1="352.8672" y2="352.8672"/><text fill="#000000" font-family="sans-serif" font-size="13" lengthAdjust="spacing" textLength="122" x="979.5" y="348.0107">query all reservations</text><polygon fill="#181818" points="983.5,379.2188,973.5,383.2188,983.5,387.2188,979.5,383.2188" style="stroke:#181818;stroke-width:1.0;"/><line style="stroke:#181818;stroke-width:1.0;stroke-dasharray:2.0,2.0;" x1="977.5" x2="1117.5" y1="383.2188" y2="383.2188"/><text fill="#000000" font-family="sans-serif" font-size="13" lengthAdjust="spacing" textLength="77" x="989.5" y="378.3623">reservations[]</text><polygon fill="#181818" points="41,409.5703,31,413.5703,41,417.5703,37,413.5703" style="stroke:#181818;stroke-width:1.0;"/><line style="stroke:#181818;stroke-width:1.0;" x1="35" x2="749.5" y1="413.5703" y2="413.5703"/><text fill="#000000" font-family="sans-serif" font-size="13" lengthAdjust="spacing" textLength="172" x="47" y="408.7139">200 response {success, data}</text><text fill="#888888" font-family="sans-serif" font-size="10" lengthAdjust="spacing" textLength="183" x="983.5" y="15.3809">Sample Coworking Sequence Diagram</text><!--SRC=[TPCzRzim48Pt_eg3bqXmPBiT3KE04nUTkjH1bxR3bReuJ6YI9azsYgB_lHILn9JgR2JlUU_ZrUc1i24FMzmxJN1hJzO_ARE3BHrQCf9Wet3dSIzOSGGcwsQl37nJT8Arrl2L0laZih8cGF7vqrqv4SAXPoMLGyCmkTMA34y00yXq78PNgqSyubPwvRYkVvXbbuzyullZcFUsPVA9zLdrfEXZiQdZMBLNJQFfX9wI4bj-I8hp-pe-ZLNI6lPMQ_BXSi4Ck5ZLDgIJCZEghzj5agH1nbyOgEE_MBEpcvlBjJfwym8BqPjPrRr9C9qkmTDXjYCkhkRerFpuOPwdk2f5ZrRrsQKaG-TcRQ1tPDUGNqjn5bVrqBoKp7dB91aAJ8l2zebCAOPWDMYXgfPWw9cBKWoIZwnDsUDq-SP5oOYAFRqQcmJtoZH5ENFMjHevpYXVDtphK58qvOslwjpWf8w_WFyD6FSyzq3aN9LNx4R9oUy__- -l_su9_RXOTBYB9C6Vq4f98Ln3jn1_nJy0]--></g></svg>