<?xml version="1.0" encoding="us-ascii" standalone="no"?><svg xmlns="http://www.w3.org/2000/svg" xmlns:xlink="http://www.w3.org/1999/xlink" contentStyleType="text/css" height="702px" preserveAspectRatio="none" style="width:1330px;height:702px;background:#FFFFFF;" version="1.1" viewBox="0 0 1330 702" width="1330px" zoomAndPan="magnify"><defs/><g><text fill="#000000" font-family="sans-serif" font-size="14" font-weight="bold" lengthAdjust="spacing" textLength="297" x="512.5" y="43.1113">Get One Reservation (GET) [Owner/Admin]</text><rect fill="#FFFFFF" height="408.8906" style="stroke:#181818;stroke-width:1.0;" width="10" x="320" y="187.1094"/><rect fill="#FFFFFF" height="378.5391" style="stroke:#181818;stroke-width:1.0;" width="10" x="594" y="217.4609"/><rect fill="#FFFFFF" height="30.3516" style="stroke:#181818;stroke-width:1.0;" width="10" x="702.5" y="247.8125"/><rect fill="#FFFFFF" height="146.7578" style="stroke:#181818;stroke-width:1.0;" width="10" x="811" y="308.5156"/><rect fill="#FFFFFF" height="257.1328" style="stroke:#181818;stroke-width:1.0;" width="10" x="1126" y="338.8672"/><rect fill="#FFFFFF" height="30.3516" style="stroke:#181818;stroke-width:1.0;" width="10" x="1269" y="369.2188"/><rect fill="none" height="173.4297" style="stroke:#000000;stroke-width:1.5;" width="874" x="10" y="414.5703"/><rect fill="none" height="94.8906" style="stroke:#000000;stroke-width:1.5;" width="854" x="20" y="486.1094"/><line style="stroke:#181818;stroke-width:0.5;stroke-dasharray:5.0,5.0;" x1="55" x2="55" y1="138.4063" y2="605"/><line style="stroke:#181818;stroke-width:0.5;stroke-dasharray:5.0,5.0;" x1="325" x2="325" y1="138.4063" y2="605"/><line style="stroke:#181818;stroke-width:0.5;stroke-dasharray:5.0,5.0;" x1="599" x2="599" y1="138.4063" y2="605"/><line style="stroke:#181818;stroke-width:0.5;stroke-dasharray:5.0,5.0;" x1="707" x2="707" y1="138.4063" y2="605"/><line style="stroke:#181818;stroke-width:0.5;stroke-dasharray:5.0,5.0;" x1="816" x2="816" y1="138.4063" y2="605"/><line style="stroke:#181818;stroke-width:0.5;stroke-dasharray:5.0,5.0;" x1="1131" x2="1131" y1="138.4063" y2="605"/><line style="stroke:#181818;stroke-width:0.5;stroke-dasharray:5.0,5.0;" x1="1274" x2="1274" y1="138.4063" y2="605"/><rect fill="#E2E2F0" height="31.6094" rx="2.5" ry="2.5" style="stroke:#181818;stroke-width:0.5;" width="50" x="30" y="105.7969"/><text fill="#000000" font-family="sans-serif" font-size="14" lengthAdjust="spacing" textLength="36" x="37" y="127.3301">Client</text><rect fill="#E2E2F0" height="31.6094" rx="2.5" ry="2.5" style="stroke:#181818;stroke-width:0.5;" width="50" x="30" y="604"/><text fill="#000000" font-family="sans-serif" font-size="14" lengthAdjust="spacing" textLength="36" x="37" y="625.5332">Client</text><rect fill="#E2E2F0" height="49.2188" rx="2.5" ry="2.5" style="stroke:#181818;stroke-width:0.5;" width="92" x="279" y="88.1875"/><text fill="#000000" font-family="sans-serif" font-size="14" lengthAdjust="spacing" textLength="78" x="286" y="109.7207">&#171;javaScript&#187;</text><text fill="#000000" font-family="sans-serif" font-size="14" lengthAdjust="spacing" textLength="44" x="303" y="127.3301">:server</text><rect fill="#E2E2F0" height="49.2188" rx="2.5" ry="2.5" style="stroke:#181818;stroke-width:0.5;" width="92" x="279" y="604"/><text fill="#000000" font-family="sans-serif" font-size="14" lengthAdjust="spacing" textLength="78" x="286" y="625.5332">&#171;javaScript&#187;</text><text fill="#000000" font-family="sans-serif" font-size="14" lengthAdjust="spacing" textLength="44" x="303" y="643.1426">:server</text><rect fill="#E2E2F0" height="49.2188" rx="2.5" ry="2.5" style="stroke:#181818;stroke-width:0.5;" width="96" x="551" y="88.1875"/><text fill="#000000" font-family="sans-serif" font-size="14" lengthAdjust="spacing" textLength="54" x="572" y="109.7207">&#171;router&#187;</text><text fill="#000000" font-family="sans-serif" font-size="14" lengthAdjust="spacing" textLength="82" x="558" y="127.3301">:reservations</text><rect fill="#E2E2F0" height="49.2188" rx="2.5" ry="2.5" style="stroke:#181818;stroke-width:0.5;" width="96" x="551" y="604"/><text fill="#000000" font-family="sans-serif" font-size="14" lengthAdjust="spacing" textLength="54" x="572" y="625.5332">&#171;router&#187;</text><text fill="#000000" font-family="sans-serif" font-size="14" lengthAdjust="spacing" textLength="82" x="558" y="643.1426">:reservations</text><rect fill="#E2E2F0" height="49.2188" rx="2.5" ry="2.5" style="stroke:#181818;stroke-width:0.5;" width="101" x="657" y="88.1875"/><text fill="#000000" font-family="sans-serif" font-size="14" lengthAdjust="spacing" textLength="87" x="664" y="109.7207">&#171;middleware&#187;</text><text fill="#000000" font-family="sans-serif" font-size="14" lengthAdjust="spacing" textLength="32" x="691.5" y="127.3301">:auth</text><rect fill="#E2E2F0" height="49.2188" rx="2.5" ry="2.5" style="stroke:#181818;stroke-width:0.5;" width="101" x="657" y="604"/><text fill="#000000" font-family="sans-serif" font-size="14" lengthAdjust="spacing" textLength="87" x="664" y="625.5332">&#171;middleware&#187;</text><text fill="#000000" font-family="sans-serif" font-size="14" lengthAdjust="spacing" textLength="32" x="691.5" y="643.1426">:auth</text><rect fill="#E2E2F0" height="49.2188" rx="2.5" ry="2.5" style="stroke:#181818;stroke-width:0.5;" width="96" x="768" y="88.1875"/><text fill="#000000" font-family="sans-serif" font-size="14" lengthAdjust="spacing" textLength="82" x="775" y="109.7207">&#171;controllers&#187;</text><text fill="#000000" font-family="sans-serif" font-size="14" lengthAdjust="spacing" textLength="82" x="775" y="127.3301">:reservations</text><rect fill="#E2E2F0" height="49.2188" rx="2.5" ry="2.5" style="stroke:#181818;stroke-width:0.5;" width="96" x="768" y="604"/><text fill="#000000" font-family="sans-serif" font-size="14" lengthAdjust="spacing" textLength="82" x="775" y="625.5332">&#171;controllers&#187;</text><text fill="#000000" font-family="sans-serif" font-size="14" lengthAdjust="spacing" textLength="82" x="775" y="643.1426">:reservations</text><rect fill="#E2E2F0" height="49.2188" rx="2.5" ry="2.5" style="stroke:#181818;stroke-width:0.5;" width="94" x="1084" y="88.1875"/><text fill="#000000" font-family="sans-serif" font-size="14" lengthAdjust="spacing" textLength="54" x="1104" y="109.7207">&#171;model&#187;</text><text fill="#000000" font-family="sans-serif" font-size="14" lengthAdjust="spacing" textLength="80" x="1091" y="127.3301">:Reservation</text><rect fill="#E2E2F0" height="49.2188" rx="2.5" ry="2.5" style="stroke:#181818;stroke-width:0.5;" width="94" x="1084" y="604"/><text fill="#000000" font-family="sans-serif" font-size="14" lengthAdjust="spacing" textLength="54" x="1104" y="625.5332">&#171;model&#187;</text><text fill="#000000" font-family="sans-serif" font-size="14" lengthAdjust="spacing" textLength="80" x="1091" y="643.1426">:Reservation</text><text fill="#000000" font-family="sans-serif" font-size="14" lengthAdjust="spacing" textLength="78" x="1232" y="117.7207">&#171;MongoDB&#187;</text><text fill="#000000" font-family="sans-serif" font-size="14" lengthAdjust="spacing" textLength="82" x="1230" y="135.3301">:reservations</text><path d="M1256,67.1875 C1256,57.1875 1274,57.1875 1274,57.1875 C1274,57.1875 1292,57.1875 1292,67.1875 L1292,93.1875 C1292,103.1875 1274,103.1875 1274,103.1875 C1274,103.1875 1256,103.1875 1256,93.1875 L1256,67.1875 " fill="#E2E2F0" style="stroke:#181818;stroke-width:1.5;"/><path d="M1256,67.1875 C1256,77.1875 1274,77.1875 1274,77.1875 C1274,77.1875 1292,77.1875 1292,67.1875 " fill="none" style="stroke:#181818;stroke-width:1.5;"/><text fill="#000000" font-family="sans-serif" font-size="14" lengthAdjust="spacing" textLength="78" x="1232" y="618.5332">&#171;MongoDB&#187;</text><text fill="#000000" font-family="sans-serif" font-size="14" lengthAdjust="spacing" textLength="82" x="1230" y="636.1426">:reservations</text><path d="M1256,649.2188 C1256,639.2188 1274,639.2188 1274,639.2188 C1274,639.2188 1292,639.2188 1292,649.2188 L1292,675.2188 C1292,685.2188 1274,685.2188 1274,685.2188 C1274,685.2188 1256,685.2188 1256,675.2188 L1256,649.2188 " fill="#E2E2F0" style="stroke:#181818;stroke-width:1.5;"/><path d="M1256,649.2188 C1256,659.2188 1274,659.2188 1274,659.2188 C1274,659.2188 1292,659.2188 1292,649.2188 " fill="none" style="stroke:#181818;stroke-width:1.5;"/><rect fill="#FFFFFF" height="408.8906" style="stroke:#181818;stroke-width:1.0;" width="10" x="320" y="187.1094"/><rect fill="#FFFFFF" height="378.5391" style="stroke:#181818;stroke-width:1.0;" width="10" x="594" y="217.4609"/><rect fill="#FFFFFF" height="30.3516" style="stroke:#181818;stroke-width:1.0;" width="10" x="702.5" y="247.8125"/><rect fill="#FFFFFF" height="146.7578" style="stroke:#181818;stroke-width:1.0;" width="10" x="811" y="308.5156"/><rect fill="#FFFFFF" height="257.1328" style="stroke:#181818;stroke-width:1.0;" width="10" x="1126" y="338.8672"/><rect fill="#FFFFFF" height="30.3516" style="stroke:#181818;stroke-width:1.0;" width="10" x="1269" y="369.2188"/><polygon fill="#181818" points="308,183.1094,318,187.1094,308,191.1094,312,187.1094" style="stroke:#181818;stroke-width:1.0;"/><line style="stroke:#181818;stroke-width:1.0;" x1="55" x2="314" y1="187.1094" y2="187.1094"/><text fill="#000000" font-family="sans-serif" font-size="13" lengthAdjust="spacing" textLength="246" x="62" y="165.9014">req.get('/api/v1/reservations/{reservationId}')</text><text fill="#000000" font-family="sans-serif" font-size="13" lengthAdjust="spacing" textLength="174" x="62" y="182.2529">Authorization: Bearer &lt;token&gt;</text><polygon fill="#181818" points="582,213.4609,592,217.4609,582,221.4609,586,217.4609" style="stroke:#181818;stroke-width:1.0;"/><line style="stroke:#181818;stroke-width:1.0;" x1="330" x2="588" y1="217.4609" y2="217.4609"/><text fill="#000000" font-family="sans-serif" font-size="13" lengthAdjust="spacing" textLength="245" x="337" y="212.6045">app.use('/api/v1/reservations', reservations)</text><polygon fill="#181818" points="690.5,243.8125,700.5,247.8125,690.5,251.8125,694.5,247.8125" style="stroke:#181818;stroke-width:1.0;"/><line style="stroke:#181818;stroke-width:1.0;" x1="604" x2="696.5" y1="247.8125" y2="247.8125"/><text fill="#000000" font-family="sans-serif" font-size="13" lengthAdjust="spacing" textLength="48" x="611" y="242.9561">protect()</text><polygon fill="#181818" points="615,274.1641,605,278.1641,615,282.1641,611,278.1641" style="stroke:#181818;stroke-width:1.0;"/><line style="stroke:#181818;stroke-width:1.0;stroke-dasharray:2.0,2.0;" x1="609" x2="706.5" y1="278.1641" y2="278.1641"/><text fill="#000000" font-family="sans-serif" font-size="13" lengthAdjust="spacing" textLength="33" x="621" y="273.3076">next()</text><polygon fill="#181818" points="799,304.5156,809,308.5156,799,312.5156,803,308.5156" style="stroke:#181818;stroke-width:1.0;"/><line style="stroke:#181818;stroke-width:1.0;" x1="604" x2="805" y1="308.5156" y2="308.5156"/><text fill="#000000" font-family="sans-serif" font-size="13" lengthAdjust="spacing" textLength="93" x="611" y="303.6592">getReservation()</text><polygon fill="#181818" points="1114,334.8672,1124,338.8672,1114,342.8672,1118,338.8672" style="stroke:#181818;stroke-width:1.0;"/><line style="stroke:#181818;stroke-width:1.0;" x1="821" x2="1120" y1="338.8672" y2="338.8672"/><text fill="#000000" font-family="sans-serif" font-size="13" lengthAdjust="spacing" textLength="286" x="828" y="334.0107">findById(reservationId).populate('coworkingSpace')</text><polygon fill="#181818" points="1257,365.2188,1267,369.2188,1257,373.2188,1261,369.2188" style="stroke:#181818;stroke-width:1.0;"/><line style="stroke:#181818;stroke-width:1.0;" x1="1136" x2="1263" y1="369.2188" y2="369.2188"/><text fill="#000000" font-family="sans-serif" font-size="13" lengthAdjust="spacing" textLength="105" x="1143" y="364.3623">query reservations</text><polygon fill="#181818" points="1147,395.5703,1137,399.5703,1147,403.5703,1143,399.5703" style="stroke:#181818;stroke-width:1.0;"/><line style="stroke:#181818;stroke-width:1.0;stroke-dasharray:2.0,2.0;" x1="1141" x2="1273" y1="399.5703" y2="399.5703"/><text fill="#000000" font-family="sans-serif" font-size="13" lengthAdjust="spacing" textLength="109" x="1153" y="394.7139">reservation (or null)</text><path d="M10,414.5703 L71,414.5703 L71,422.9219 L61,432.9219 L10,432.9219 L10,414.5703 " fill="#EEEEEE" style="stroke:#000000;stroke-width:1.5;"/><rect fill="none" height="173.4297" style="stroke:#000000;stroke-width:1.5;" width="874" x="10" y="414.5703"/><text fill="#000000" font-family="sans-serif" font-size="13" font-weight="bold" lengthAdjust="spacing" textLength="16" x="25" y="429.0654">alt</text><text fill="#000000" font-family="sans-serif" font-size="11" font-weight="bold" lengthAdjust="spacing" textLength="128" x="86" y="427.9893">[reservation not found]</text><polygon fill="#181818" points="66,451.2734,56,455.2734,66,459.2734,62,455.2734" style="stroke:#181818;stroke-width:1.0;"/><line style="stroke:#181818;stroke-width:1.0;" x1="60" x2="815" y1="455.2734" y2="455.2734"/><text fill="#000000" font-family="sans-serif" font-size="13" lengthAdjust="spacing" textLength="112" x="72" y="450.417">404 No Reservation</text><line style="stroke:#000000;stroke-width:1.0;stroke-dasharray:2.0,2.0;" x1="10" x2="884" y1="464.2734" y2="464.2734"/><text fill="#000000" font-family="sans-serif" font-size="11" font-weight="bold" lengthAdjust="spacing" textLength="107" x="15" y="475.6924">[reservation found]</text><path d="M20,486.1094 L81,486.1094 L81,494.4609 L71,504.4609 L20,504.4609 L20,486.1094 " fill="#EEEEEE" style="stroke:#000000;stroke-width:1.5;"/><rect fill="none" height="94.8906" style="stroke:#000000;stroke-width:1.5;" width="854" x="20" y="486.1094"/><text fill="#000000" font-family="sans-serif" font-size="13" font-weight="bold" lengthAdjust="spacing" textLength="16" x="35" y="500.6045">alt</text><text fill="#000000" font-family="sans-serif" font-size="11" font-weight="bold" lengthAdjust="spacing" textLength="148" x="96" y="499.5283">[not owner AND not admin]</text><polygon fill="#181818" points="66,522.8125,56,526.8125,66,530.8125,62,526.8125" style="stroke:#181818;stroke-width:1.0;"/><line style="stroke:#181818;stroke-width:1.0;" x1="60" x2="815" y1="526.8125" y2="526.8125"/><text fill="#000000" font-family="sans-serif" font-size="13" lengthAdjust="spacing" textLength="109" x="72" y="521.9561">401 Not authorized</text><line style="stroke:#000000;stroke-width:1.0;stroke-dasharray:2.0,2.0;" x1="20" x2="874" y1="535.8125" y2="535.8125"/><text fill="#000000" font-family="sans-serif" font-size="11" font-weight="bold" lengthAdjust="spacing" textLength="98" x="25" y="547.2314">[owner/admin ok]</text><polygon fill="#181818" points="66,569,56,573,66,577,62,573" style="stroke:#181818;stroke-width:1.0;"/><line style="stroke:#181818;stroke-width:1.0;" x1="60" x2="815" y1="573" y2="573"/><text fill="#000000" font-family="sans-serif" font-size="13" lengthAdjust="spacing" textLength="172" x="72" y="568.1436">200 response {success, data}</text><text fill="#888888" font-family="sans-serif" font-size="10" lengthAdjust="spacing" textLength="183" x="1139" y="15.3809">Sample Coworking Sequence Diagram</text><!--SRC=[XLDDJ-Cm4BtxLunwQIj8KrQSgYfIIrU8muAqtHliOJOPYgbhcudJBeluxsixL7LA9GwHOi_xc7d9F15MnB34ZLK4LsPdU2tr2fRqqf0k2HOILumRuQJpWDurERZJ13-f9jwYaqR3uFhxho7St-qqSJwhDbB_xWbXaPqifKNje7Ub96dN0woXZA_TydJwZ5jSbYojAue7FGdYn17VlXxZsJIEE6Bvq4eT6MtDTxWzPcraLIdQ8LDaOkEU8kDmF_DNnwpIQCT6AUBwj642EEbgAbAHcQJM-ePAf5Jey0_M5F0_Z5wPnVoqLq0lFi12j65cHHiId9rDWEbbj28twETePRwzo5E9_2qvtLJl_U633YCRbl_YtGJcv6DWc3gp9bs8LZah3g565xHsrDHqsgL_3kbnACI1dHNTiAEQPUEeT8EXw1QpZc-MJK3Jtm3h21x57nLz0adOdd44yctiiu_uHwch-UjDDUZaCnnPOnk5pWzQxdTZQR6alczrBv0LwKU9Sdvv-BKJWaWnMMeVnk9qdGo3RfJoKw9odP8s3XvDeoi1y6cWzb-8SfVZIxWrwP8AKhwrL6kl4po2hWdh2xFRHJnXM6DV_ShdmljuzCSlH44mEaMrFAg0MNyfz6qy3irP7nJ1MzsK9TNrEOIjU0-IljFm_0S0]--></g></svg>