<?xml version="1.0" encoding="us-ascii" standalone="no"?><svg xmlns="http://www.w3.org/2000/svg" xmlns:xlink="http://www.w3.org/1999/xlink" contentStyleType="text/css" height="545px" preserveAspectRatio="none" style="width:1671px;height:545px;background:#FFFFFF;" version="1.1" viewBox="0 0 1671 545" width="1671px" zoomAndPan="magnify"><defs/><g><text fill="#000000" font-family="sans-serif" font-size="14" font-weight="bold" lengthAdjust="spacing" textLength="368" x="647.5" y="43.1113">Get Reservations for CoworkingSpace (GET) [Admin]</text><rect fill="#FFFFFF" height="251.8125" style="stroke:#181818;stroke-width:1.0;" width="10" x="432" y="187.1094"/><rect fill="#FFFFFF" height="221.4609" style="stroke:#181818;stroke-width:1.0;" width="10" x="794" y="217.4609"/><rect fill="#FFFFFF" height="30.3516" style="stroke:#181818;stroke-width:1.0;" width="10" x="902.5" y="247.8125"/><rect fill="#FFFFFF" height="121.4063" style="stroke:#181818;stroke-width:1.0;" width="10" x="1011" y="308.5156"/><rect fill="#FFFFFF" height="100.0547" style="stroke:#181818;stroke-width:1.0;" width="10" x="1349" y="338.8672"/><rect fill="#FFFFFF" height="30.3516" style="stroke:#181818;stroke-width:1.0;" width="10" x="1610" y="369.2188"/><line style="stroke:#181818;stroke-width:0.5;stroke-dasharray:5.0,5.0;" x1="30" x2="30" y1="138.4063" y2="447.9219"/><line style="stroke:#181818;stroke-width:0.5;stroke-dasharray:5.0,5.0;" x1="437" x2="437" y1="138.4063" y2="447.9219"/><line style="stroke:#181818;stroke-width:0.5;stroke-dasharray:5.0,5.0;" x1="799" x2="799" y1="138.4063" y2="447.9219"/><line style="stroke:#181818;stroke-width:0.5;stroke-dasharray:5.0,5.0;" x1="907" x2="907" y1="138.4063" y2="447.9219"/><line style="stroke:#181818;stroke-width:0.5;stroke-dasharray:5.0,5.0;" x1="1016" x2="1016" y1="138.4063" y2="447.9219"/><line style="stroke:#181818;stroke-width:0.5;stroke-dasharray:5.0,5.0;" x1="1354" x2="1354" y1="138.4063" y2="447.9219"/><line style="stroke:#181818;stroke-width:0.5;stroke-dasharray:5.0,5.0;" x1="1615" x2="1615" y1="138.4063" y2="447.9219"/><rect fill="#E2E2F0" height="31.6094" rx="2.5" ry="2.5" style="stroke:#181818;stroke-width:0.5;" width="50" x="5" y="105.7969"/><text fill="#000000" font-family="sans-serif" font-size="14" lengthAdjust="spacing" textLength="36" x="12" y="127.3301">Client</text><rect fill="#E2E2F0" height="31.6094" rx="2.5" ry="2.5" style="stroke:#181818;stroke-width:0.5;" width="50" x="5" y="446.9219"/><text fill="#000000" font-family="sans-serif" font-size="14" lengthAdjust="spacing" textLength="36" x="12" y="468.4551">Client</text><rect fill="#E2E2F0" height="49.2188" rx="2.5" ry="2.5" style="stroke:#181818;stroke-width:0.5;" width="92" x="391" y="88.1875"/><text fill="#000000" font-family="sans-serif" font-size="14" lengthAdjust="spacing" textLength="78" x="398" y="109.7207">&#171;javaScript&#187;</text><text fill="#000000" font-family="sans-serif" font-size="14" lengthAdjust="spacing" textLength="44" x="415" y="127.3301">:server</text><rect fill="#E2E2F0" height="49.2188" rx="2.5" ry="2.5" style="stroke:#181818;stroke-width:0.5;" width="92" x="391" y="446.9219"/><text fill="#000000" font-family="sans-serif" font-size="14" lengthAdjust="spacing" textLength="78" x="398" y="468.4551">&#171;javaScript&#187;</text><text fill="#000000" font-family="sans-serif" font-size="14" lengthAdjust="spacing" textLength="44" x="415" y="486.0645">:server</text><rect fill="#E2E2F0" height="49.2188" rx="2.5" ry="2.5" style="stroke:#181818;stroke-width:0.5;" width="96" x="751" y="88.1875"/><text fill="#000000" font-family="sans-serif" font-size="14" lengthAdjust="spacing" textLength="54" x="772" y="109.7207">&#171;router&#187;</text><text fill="#000000" font-family="sans-serif" font-size="14" lengthAdjust="spacing" textLength="82" x="758" y="127.3301">:reservations</text><rect fill="#E2E2F0" height="49.2188" rx="2.5" ry="2.5" style="stroke:#181818;stroke-width:0.5;" width="96" x="751" y="446.9219"/><text fill="#000000" font-family="sans-serif" font-size="14" lengthAdjust="spacing" textLength="54" x="772" y="468.4551">&#171;router&#187;</text><text fill="#000000" font-family="sans-serif" font-size="14" lengthAdjust="spacing" textLength="82" x="758" y="486.0645">:reservations</text><rect fill="#E2E2F0" height="49.2188" rx="2.5" ry="2.5" style="stroke:#181818;stroke-width:0.5;" width="101" x="857" y="88.1875"/><text fill="#000000" font-family="sans-serif" font-size="14" lengthAdjust="spacing" textLength="87" x="864" y="109.7207">&#171;middleware&#187;</text><text fill="#000000" font-family="sans-serif" font-size="14" lengthAdjust="spacing" textLength="32" x="891.5" y="127.3301">:auth</text><rect fill="#E2E2F0" height="49.2188" rx="2.5" ry="2.5" style="stroke:#181818;stroke-width:0.5;" width="101" x="857" y="446.9219"/><text fill="#000000" font-family="sans-serif" font-size="14" lengthAdjust="spacing" textLength="87" x="864" y="468.4551">&#171;middleware&#187;</text><text fill="#000000" font-family="sans-serif" font-size="14" lengthAdjust="spacing" textLength="32" x="891.5" y="486.0645">:auth</text><rect fill="#E2E2F0" height="49.2188" rx="2.5" ry="2.5" style="stroke:#181818;stroke-width:0.5;" width="96" x="968" y="88.1875"/><text fill="#000000" font-family="sans-serif" font-size="14" lengthAdjust="spacing" textLength="82" x="975" y="109.7207">&#171;controllers&#187;</text><text fill="#000000" font-family="sans-serif" font-size="14" lengthAdjust="spacing" textLength="82" x="975" y="127.3301">:reservations</text><rect fill="#E2E2F0" height="49.2188" rx="2.5" ry="2.5" style="stroke:#181818;stroke-width:0.5;" width="96" x="968" y="446.9219"/><text fill="#000000" font-family="sans-serif" font-size="14" lengthAdjust="spacing" textLength="82" x="975" y="468.4551">&#171;controllers&#187;</text><text fill="#000000" font-family="sans-serif" font-size="14" lengthAdjust="spacing" textLength="82" x="975" y="486.0645">:reservations</text><rect fill="#E2E2F0" height="49.2188" rx="2.5" ry="2.5" style="stroke:#181818;stroke-width:0.5;" width="94" x="1307" y="88.1875"/><text fill="#000000" font-family="sans-serif" font-size="14" lengthAdjust="spacing" textLength="54" x="1327" y="109.7207">&#171;model&#187;</text><text fill="#000000" font-family="sans-serif" font-size="14" lengthAdjust="spacing" textLength="80" x="1314" y="127.3301">:Reservation</text><rect fill="#E2E2F0" height="49.2188" rx="2.5" ry="2.5" style="stroke:#181818;stroke-width:0.5;" width="94" x="1307" y="446.9219"/><text fill="#000000" font-family="sans-serif" font-size="14" lengthAdjust="spacing" textLength="54" x="1327" y="468.4551">&#171;model&#187;</text><text fill="#000000" font-family="sans-serif" font-size="14" lengthAdjust="spacing" textLength="80" x="1314" y="486.0645">:Reservation</text><text fill="#000000" font-family="sans-serif" font-size="14" lengthAdjust="spacing" textLength="78" x="1573" y="117.7207">&#171;MongoDB&#187;</text><text fill="#000000" font-family="sans-serif" font-size="14" lengthAdjust="spacing" textLength="82" x="1571" y="135.3301">:reservations</text><path d="M1597,67.1875 C1597,57.1875 1615,57.1875 1615,57.1875 C1615,57.1875 1633,57.1875 1633,67.1875 L1633,93.1875 C1633,103.1875 1615,103.1875 1615,103.1875 C1615,103.1875 1597,103.1875 1597,93.1875 L1597,67.1875 " fill="#E2E2F0" style="stroke:#181818;stroke-width:1.5;"/><path d="M1597,67.1875 C1597,77.1875 1615,77.1875 1615,77.1875 C1615,77.1875 1633,77.1875 1633,67.1875 " fill="none" style="stroke:#181818;stroke-width:1.5;"/><text fill="#000000" font-family="sans-serif" font-size="14" lengthAdjust="spacing" textLength="78" x="1573" y="461.4551">&#171;MongoDB&#187;</text><text fill="#000000" font-family="sans-serif" font-size="14" lengthAdjust="spacing" textLength="82" x="1571" y="479.0645">:reservations</text><path d="M1597,492.1406 C1597,482.1406 1615,482.1406 1615,482.1406 C1615,482.1406 1633,482.1406 1633,492.1406 L1633,518.1406 C1633,528.1406 1615,528.1406 1615,528.1406 C1615,528.1406 1597,528.1406 1597,518.1406 L1597,492.1406 " fill="#E2E2F0" style="stroke:#181818;stroke-width:1.5;"/><path d="M1597,492.1406 C1597,502.1406 1615,502.1406 1615,502.1406 C1615,502.1406 1633,502.1406 1633,492.1406 " fill="none" style="stroke:#181818;stroke-width:1.5;"/><rect fill="#FFFFFF" height="251.8125" style="stroke:#181818;stroke-width:1.0;" width="10" x="432" y="187.1094"/><rect fill="#FFFFFF" height="221.4609" style="stroke:#181818;stroke-width:1.0;" width="10" x="794" y="217.4609"/><rect fill="#FFFFFF" height="30.3516" style="stroke:#181818;stroke-width:1.0;" width="10" x="902.5" y="247.8125"/><rect fill="#FFFFFF" height="121.4063" style="stroke:#181818;stroke-width:1.0;" width="10" x="1011" y="308.5156"/><rect fill="#FFFFFF" height="100.0547" style="stroke:#181818;stroke-width:1.0;" width="10" x="1349" y="338.8672"/><rect fill="#FFFFFF" height="30.3516" style="stroke:#181818;stroke-width:1.0;" width="10" x="1610" y="369.2188"/><polygon fill="#181818" points="420,183.1094,430,187.1094,420,191.1094,424,187.1094" style="stroke:#181818;stroke-width:1.0;"/><line style="stroke:#181818;stroke-width:1.0;" x1="30" x2="426" y1="187.1094" y2="187.1094"/><text fill="#000000" font-family="sans-serif" font-size="13" lengthAdjust="spacing" textLength="383" x="37" y="165.9014">req.get('/api/v1/coworkingspaces/{coworkingSpaceId}/reservations')</text><text fill="#000000" font-family="sans-serif" font-size="13" lengthAdjust="spacing" textLength="213" x="37" y="182.2529">Authorization: Bearer &lt;admin token&gt;</text><polygon fill="#181818" points="782,213.4609,792,217.4609,782,221.4609,786,217.4609" style="stroke:#181818;stroke-width:1.0;"/><line style="stroke:#181818;stroke-width:1.0;" x1="442" x2="788" y1="217.4609" y2="217.4609"/><text fill="#000000" font-family="sans-serif" font-size="13" lengthAdjust="spacing" textLength="333" x="449" y="212.6045">router.use('/:coworkingSpaceId/reservations', reservations)</text><polygon fill="#181818" points="890.5,243.8125,900.5,247.8125,890.5,251.8125,894.5,247.8125" style="stroke:#181818;stroke-width:1.0;"/><line style="stroke:#181818;stroke-width:1.0;" x1="804" x2="896.5" y1="247.8125" y2="247.8125"/><text fill="#000000" font-family="sans-serif" font-size="13" lengthAdjust="spacing" textLength="48" x="811" y="242.9561">protect()</text><polygon fill="#181818" points="815,274.1641,805,278.1641,815,282.1641,811,278.1641" style="stroke:#181818;stroke-width:1.0;"/><line style="stroke:#181818;stroke-width:1.0;stroke-dasharray:2.0,2.0;" x1="809" x2="906.5" y1="278.1641" y2="278.1641"/><text fill="#000000" font-family="sans-serif" font-size="13" lengthAdjust="spacing" textLength="33" x="821" y="273.3076">next()</text><polygon fill="#181818" points="999,304.5156,1009,308.5156,999,312.5156,1003,308.5156" style="stroke:#181818;stroke-width:1.0;"/><line style="stroke:#181818;stroke-width:1.0;" x1="804" x2="1005" y1="308.5156" y2="308.5156"/><text fill="#000000" font-family="sans-serif" font-size="13" lengthAdjust="spacing" textLength="100" x="811" y="303.6592">getReservations()</text><polygon fill="#181818" points="1337,334.8672,1347,338.8672,1337,342.8672,1341,338.8672" style="stroke:#181818;stroke-width:1.0;"/><line style="stroke:#181818;stroke-width:1.0;" x1="1021" x2="1343" y1="338.8672" y2="338.8672"/><text fill="#000000" font-family="sans-serif" font-size="13" lengthAdjust="spacing" textLength="309" x="1028" y="334.0107">find({coworkingSpace: id}).populate('coworkingSpace')</text><polygon fill="#181818" points="1598,365.2188,1608,369.2188,1598,373.2188,1602,369.2188" style="stroke:#181818;stroke-width:1.0;"/><line style="stroke:#181818;stroke-width:1.0;" x1="1359" x2="1604" y1="369.2188" y2="369.2188"/><text fill="#000000" font-family="sans-serif" font-size="13" lengthAdjust="spacing" textLength="232" x="1366" y="364.3623">query reservations by coworkingSpaceId</text><polygon fill="#181818" points="1370,395.5703,1360,399.5703,1370,403.5703,1366,399.5703" style="stroke:#181818;stroke-width:1.0;"/><line style="stroke:#181818;stroke-width:1.0;stroke-dasharray:2.0,2.0;" x1="1364" x2="1614" y1="399.5703" y2="399.5703"/><text fill="#000000" font-family="sans-serif" font-size="13" lengthAdjust="spacing" textLength="77" x="1376" y="394.7139">reservations[]</text><polygon fill="#181818" points="41,425.9219,31,429.9219,41,433.9219,37,429.9219" style="stroke:#181818;stroke-width:1.0;"/><line style="stroke:#181818;stroke-width:1.0;" x1="35" x2="1015" y1="429.9219" y2="429.9219"/><text fill="#000000" font-family="sans-serif" font-size="13" lengthAdjust="spacing" textLength="212" x="47" y="425.0654">200 response {success, count, data}</text><text fill="#888888" font-family="sans-serif" font-size="10" lengthAdjust="spacing" textLength="183" x="1480" y="15.3809">Sample Coworking Sequence Diagram</text><!--SRC=[RLDDJ-Cm4BtxLunwQIEQ1lOOLP60hj0UzhBb1Xo6P2XUKjkCdVAb_lUr7QewsTvYptlpnkzDdWaRObZZrhG4r_fDyujK6rZJQqUg9bX9t31kXPFE0oOtvE0FMU8TEgcLXIVDHzhQeAVCRdxUPd1tsMobUfW8OP2ThAL1vM1otKfIRW9eeOwVm_9o-HTtkAvP6bTLzweCKiGHtt-EyQmxHnond0mM6NtDpxiRixQoQLfwGwR8nCuzHyRn_j9VZLcrLevrsnBRqu89uAIgRgYDpCJ3NZTK8gL1XuzeAU1_QxNHgwlJMW6z-WOBqPkPLxr9S7PM0jFhOaDkDYtGo69tKTI7d6p8oHPVzI2uNys-I5McsRqABcYMd_6cX2lopZ0iCMGBJh-GgaGlcLT7jtlvU5nqblm4vLXgg3I7z9W9SUoLLyDCOc_3sb7jPfaO5lF157bUWgBt01iq7AKKEtgZqhtsb17Apt78A1AUf6fc8mTBaCq-MnXjkXQTV_UmFFNZ7dhaLPfVxEZ_EFuO606F7p0sJgIyF9qgF3Tbtpty_uP-JIBqn_bvW1kF9FYoNUrNmiwzNgVS7C8QxiK_]--></g></svg>