<?xml version="1.0" encoding="us-ascii" standalone="no"?><svg xmlns="http://www.w3.org/2000/svg" xmlns:xlink="http://www.w3.org/1999/xlink" contentStyleType="text/css" height="776px" preserveAspectRatio="none" style="width:1435px;height:776px;background:#FFFFFF;" version="1.1" viewBox="0 0 1435 776" width="1435px" zoomAndPan="magnify"><defs/><g><text fill="#000000" font-family="sans-serif" font-size="14" font-weight="bold" lengthAdjust="spacing" textLength="288" x="569.75" y="43.1113">Update Reservation (PUT) [Owner/Admin]</text><rect fill="#FFFFFF" height="499.9453" style="stroke:#181818;stroke-width:1.0;" width="10" x="320" y="170.7578"/><rect fill="#FFFFFF" height="469.5938" style="stroke:#181818;stroke-width:1.0;" width="10" x="594" y="201.1094"/><rect fill="#FFFFFF" height="30.3516" style="stroke:#181818;stroke-width:1.0;" width="10" x="812" y="231.4609"/><rect fill="#FFFFFF" height="146.7578" style="stroke:#181818;stroke-width:1.0;" width="10" x="920.5" y="292.1641"/><rect fill="#FFFFFF" height="348.1875" style="stroke:#181818;stroke-width:1.0;" width="10" x="1197.5" y="322.5156"/><rect fill="#FFFFFF" height="114.0547" style="stroke:#181818;stroke-width:1.0;" width="10" x="1202.5" y="556.6484"/><rect fill="#FFFFFF" height="30.3516" style="stroke:#181818;stroke-width:1.0;" width="10" x="1349.5" y="352.8672"/><rect fill="#FFFFFF" height="30.3516" style="stroke:#181818;stroke-width:1.0;" width="10" x="1349.5" y="587"/><rect fill="none" height="264.4844" style="stroke:#000000;stroke-width:1.5;" width="1408.5" x="10" y="398.2188"/><rect fill="none" height="185.9453" style="stroke:#000000;stroke-width:1.5;" width="1388.5" x="20" y="469.7578"/><line style="stroke:#181818;stroke-width:0.5;stroke-dasharray:5.0,5.0;" x1="55" x2="55" y1="138.4063" y2="679.7031"/><line style="stroke:#181818;stroke-width:0.5;stroke-dasharray:5.0,5.0;" x1="325" x2="325" y1="138.4063" y2="679.7031"/><line style="stroke:#181818;stroke-width:0.5;stroke-dasharray:5.0,5.0;" x1="599" x2="599" y1="138.4063" y2="679.7031"/><line style="stroke:#181818;stroke-width:0.5;stroke-dasharray:5.0,5.0;" x1="816.5" x2="816.5" y1="138.4063" y2="679.7031"/><line style="stroke:#181818;stroke-width:0.5;stroke-dasharray:5.0,5.0;" x1="925.5" x2="925.5" y1="138.4063" y2="679.7031"/><line style="stroke:#181818;stroke-width:0.5;stroke-dasharray:5.0,5.0;" x1="1202.5" x2="1202.5" y1="138.4063" y2="679.7031"/><line style="stroke:#181818;stroke-width:0.5;stroke-dasharray:5.0,5.0;" x1="1354.5" x2="1354.5" y1="138.4063" y2="679.7031"/><rect fill="#E2E2F0" height="31.6094" rx="2.5" ry="2.5" style="stroke:#181818;stroke-width:0.5;" width="50" x="30" y="105.7969"/><text fill="#000000" font-family="sans-serif" font-size="14" lengthAdjust="spacing" textLength="36" x="37" y="127.3301">Client</text><rect fill="#E2E2F0" height="31.6094" rx="2.5" ry="2.5" style="stroke:#181818;stroke-width:0.5;" width="50" x="30" y="678.7031"/><text fill="#000000" font-family="sans-serif" font-size="14" lengthAdjust="spacing" textLength="36" x="37" y="700.2363">Client</text><rect fill="#E2E2F0" height="49.2188" rx="2.5" ry="2.5" style="stroke:#181818;stroke-width:0.5;" width="92" x="279" y="88.1875"/><text fill="#000000" font-family="sans-serif" font-size="14" lengthAdjust="spacing" textLength="78" x="286" y="109.7207">&#171;javaScript&#187;</text><text fill="#000000" font-family="sans-serif" font-size="14" lengthAdjust="spacing" textLength="44" x="303" y="127.3301">:server</text><rect fill="#E2E2F0" height="49.2188" rx="2.5" ry="2.5" style="stroke:#181818;stroke-width:0.5;" width="92" x="279" y="678.7031"/><text fill="#000000" font-family="sans-serif" font-size="14" lengthAdjust="spacing" textLength="78" x="286" y="700.2363">&#171;javaScript&#187;</text><text fill="#000000" font-family="sans-serif" font-size="14" lengthAdjust="spacing" textLength="44" x="303" y="717.8457">:server</text><rect fill="#E2E2F0" height="49.2188" rx="2.5" ry="2.5" style="stroke:#181818;stroke-width:0.5;" width="96" x="551" y="88.1875"/><text fill="#000000" font-family="sans-serif" font-size="14" lengthAdjust="spacing" textLength="54" x="572" y="109.7207">&#171;router&#187;</text><text fill="#000000" font-family="sans-serif" font-size="14" lengthAdjust="spacing" textLength="82" x="558" y="127.3301">:reservations</text><rect fill="#E2E2F0" height="49.2188" rx="2.5" ry="2.5" style="stroke:#181818;stroke-width:0.5;" width="96" x="551" y="678.7031"/><text fill="#000000" font-family="sans-serif" font-size="14" lengthAdjust="spacing" textLength="54" x="572" y="700.2363">&#171;router&#187;</text><text fill="#000000" font-family="sans-serif" font-size="14" lengthAdjust="spacing" textLength="82" x="558" y="717.8457">:reservations</text><rect fill="#E2E2F0" height="49.2188" rx="2.5" ry="2.5" style="stroke:#181818;stroke-width:0.5;" width="101" x="766.5" y="88.1875"/><text fill="#000000" font-family="sans-serif" font-size="14" lengthAdjust="spacing" textLength="87" x="773.5" y="109.7207">&#171;middleware&#187;</text><text fill="#000000" font-family="sans-serif" font-size="14" lengthAdjust="spacing" textLength="32" x="801" y="127.3301">:auth</text><rect fill="#E2E2F0" height="49.2188" rx="2.5" ry="2.5" style="stroke:#181818;stroke-width:0.5;" width="101" x="766.5" y="678.7031"/><text fill="#000000" font-family="sans-serif" font-size="14" lengthAdjust="spacing" textLength="87" x="773.5" y="700.2363">&#171;middleware&#187;</text><text fill="#000000" font-family="sans-serif" font-size="14" lengthAdjust="spacing" textLength="32" x="801" y="717.8457">:auth</text><rect fill="#E2E2F0" height="49.2188" rx="2.5" ry="2.5" style="stroke:#181818;stroke-width:0.5;" width="96" x="877.5" y="88.1875"/><text fill="#000000" font-family="sans-serif" font-size="14" lengthAdjust="spacing" textLength="82" x="884.5" y="109.7207">&#171;controllers&#187;</text><text fill="#000000" font-family="sans-serif" font-size="14" lengthAdjust="spacing" textLength="82" x="884.5" y="127.3301">:reservations</text><rect fill="#E2E2F0" height="49.2188" rx="2.5" ry="2.5" style="stroke:#181818;stroke-width:0.5;" width="96" x="877.5" y="678.7031"/><text fill="#000000" font-family="sans-serif" font-size="14" lengthAdjust="spacing" textLength="82" x="884.5" y="700.2363">&#171;controllers&#187;</text><text fill="#000000" font-family="sans-serif" font-size="14" lengthAdjust="spacing" textLength="82" x="884.5" y="717.8457">:reservations</text><rect fill="#E2E2F0" height="49.2188" rx="2.5" ry="2.5" style="stroke:#181818;stroke-width:0.5;" width="94" x="1155.5" y="88.1875"/><text fill="#000000" font-family="sans-serif" font-size="14" lengthAdjust="spacing" textLength="54" x="1175.5" y="109.7207">&#171;model&#187;</text><text fill="#000000" font-family="sans-serif" font-size="14" lengthAdjust="spacing" textLength="80" x="1162.5" y="127.3301">:Reservation</text><rect fill="#E2E2F0" height="49.2188" rx="2.5" ry="2.5" style="stroke:#181818;stroke-width:0.5;" width="94" x="1155.5" y="678.7031"/><text fill="#000000" font-family="sans-serif" font-size="14" lengthAdjust="spacing" textLength="54" x="1175.5" y="700.2363">&#171;model&#187;</text><text fill="#000000" font-family="sans-serif" font-size="14" lengthAdjust="spacing" textLength="80" x="1162.5" y="717.8457">:Reservation</text><text fill="#000000" font-family="sans-serif" font-size="14" lengthAdjust="spacing" textLength="78" x="1312.5" y="117.7207">&#171;MongoDB&#187;</text><text fill="#000000" font-family="sans-serif" font-size="14" lengthAdjust="spacing" textLength="82" x="1310.5" y="135.3301">:reservations</text><path d="M1336.5,67.1875 C1336.5,57.1875 1354.5,57.1875 1354.5,57.1875 C1354.5,57.1875 1372.5,57.1875 1372.5,67.1875 L1372.5,93.1875 C1372.5,103.1875 1354.5,103.1875 1354.5,103.1875 C1354.5,103.1875 1336.5,103.1875 1336.5,93.1875 L1336.5,67.1875 " fill="#E2E2F0" style="stroke:#181818;stroke-width:1.5;"/><path d="M1336.5,67.1875 C1336.5,77.1875 1354.5,77.1875 1354.5,77.1875 C1354.5,77.1875 1372.5,77.1875 1372.5,67.1875 " fill="none" style="stroke:#181818;stroke-width:1.5;"/><text fill="#000000" font-family="sans-serif" font-size="14" lengthAdjust="spacing" textLength="78" x="1312.5" y="693.2363">&#171;MongoDB&#187;</text><text fill="#000000" font-family="sans-serif" font-size="14" lengthAdjust="spacing" textLength="82" x="1310.5" y="710.8457">:reservations</text><path d="M1336.5,723.9219 C1336.5,713.9219 1354.5,713.9219 1354.5,713.9219 C1354.5,713.9219 1372.5,713.9219 1372.5,723.9219 L1372.5,749.9219 C1372.5,759.9219 1354.5,759.9219 1354.5,759.9219 C1354.5,759.9219 1336.5,759.9219 1336.5,749.9219 L1336.5,723.9219 " fill="#E2E2F0" style="stroke:#181818;stroke-width:1.5;"/><path d="M1336.5,723.9219 C1336.5,733.9219 1354.5,733.9219 1354.5,733.9219 C1354.5,733.9219 1372.5,733.9219 1372.5,723.9219 " fill="none" style="stroke:#181818;stroke-width:1.5;"/><rect fill="#FFFFFF" height="499.9453" style="stroke:#181818;stroke-width:1.0;" width="10" x="320" y="170.7578"/><rect fill="#FFFFFF" height="469.5938" style="stroke:#181818;stroke-width:1.0;" width="10" x="594" y="201.1094"/><rect fill="#FFFFFF" height="30.3516" style="stroke:#181818;stroke-width:1.0;" width="10" x="812" y="231.4609"/><rect fill="#FFFFFF" height="146.7578" style="stroke:#181818;stroke-width:1.0;" width="10" x="920.5" y="292.1641"/><rect fill="#FFFFFF" height="348.1875" style="stroke:#181818;stroke-width:1.0;" width="10" x="1197.5" y="322.5156"/><rect fill="#FFFFFF" height="114.0547" style="stroke:#181818;stroke-width:1.0;" width="10" x="1202.5" y="556.6484"/><rect fill="#FFFFFF" height="30.3516" style="stroke:#181818;stroke-width:1.0;" width="10" x="1349.5" y="352.8672"/><rect fill="#FFFFFF" height="30.3516" style="stroke:#181818;stroke-width:1.0;" width="10" x="1349.5" y="587"/><polygon fill="#181818" points="308,166.7578,318,170.7578,308,174.7578,312,170.7578" style="stroke:#181818;stroke-width:1.0;"/><line style="stroke:#181818;stroke-width:1.0;" x1="55" x2="314" y1="170.7578" y2="170.7578"/><text fill="#000000" font-family="sans-serif" font-size="13" lengthAdjust="spacing" textLength="246" x="62" y="165.9014">req.put('/api/v1/reservations/{reservationId}')</text><polygon fill="#181818" points="582,197.1094,592,201.1094,582,205.1094,586,201.1094" style="stroke:#181818;stroke-width:1.0;"/><line style="stroke:#181818;stroke-width:1.0;" x1="330" x2="588" y1="201.1094" y2="201.1094"/><text fill="#000000" font-family="sans-serif" font-size="13" lengthAdjust="spacing" textLength="245" x="337" y="196.2529">app.use('/api/v1/reservations', reservations)</text><polygon fill="#181818" points="800,227.4609,810,231.4609,800,235.4609,804,231.4609" style="stroke:#181818;stroke-width:1.0;"/><line style="stroke:#181818;stroke-width:1.0;" x1="604" x2="806" y1="231.4609" y2="231.4609"/><text fill="#000000" font-family="sans-serif" font-size="13" lengthAdjust="spacing" textLength="189" x="611" y="226.6045">protect + authorize('user','admin')</text><polygon fill="#181818" points="615,257.8125,605,261.8125,615,265.8125,611,261.8125" style="stroke:#181818;stroke-width:1.0;"/><line style="stroke:#181818;stroke-width:1.0;stroke-dasharray:2.0,2.0;" x1="609" x2="816" y1="261.8125" y2="261.8125"/><text fill="#000000" font-family="sans-serif" font-size="13" lengthAdjust="spacing" textLength="33" x="621" y="256.9561">next()</text><polygon fill="#181818" points="908.5,288.1641,918.5,292.1641,908.5,296.1641,912.5,292.1641" style="stroke:#181818;stroke-width:1.0;"/><line style="stroke:#181818;stroke-width:1.0;" x1="604" x2="914.5" y1="292.1641" y2="292.1641"/><text fill="#000000" font-family="sans-serif" font-size="13" lengthAdjust="spacing" textLength="114" x="611" y="287.3076">updateReservation()</text><polygon fill="#181818" points="1185.5,318.5156,1195.5,322.5156,1185.5,326.5156,1189.5,322.5156" style="stroke:#181818;stroke-width:1.0;"/><line style="stroke:#181818;stroke-width:1.0;" x1="930.5" x2="1191.5" y1="322.5156" y2="322.5156"/><text fill="#000000" font-family="sans-serif" font-size="13" lengthAdjust="spacing" textLength="126" x="937.5" y="317.6592">findById(reservationId)</text><polygon fill="#181818" points="1337.5,348.8672,1347.5,352.8672,1337.5,356.8672,1341.5,352.8672" style="stroke:#181818;stroke-width:1.0;"/><line style="stroke:#181818;stroke-width:1.0;" x1="1207.5" x2="1343.5" y1="352.8672" y2="352.8672"/><text fill="#000000" font-family="sans-serif" font-size="13" lengthAdjust="spacing" textLength="32" x="1214.5" y="348.0107">query</text><polygon fill="#181818" points="1218.5,379.2188,1208.5,383.2188,1218.5,387.2188,1214.5,383.2188" style="stroke:#181818;stroke-width:1.0;"/><line style="stroke:#181818;stroke-width:1.0;stroke-dasharray:2.0,2.0;" x1="1212.5" x2="1353.5" y1="383.2188" y2="383.2188"/><text fill="#000000" font-family="sans-serif" font-size="13" lengthAdjust="spacing" textLength="109" x="1224.5" y="378.3623">reservation (or null)</text><path d="M10,398.2188 L71,398.2188 L71,406.5703 L61,416.5703 L10,416.5703 L10,398.2188 " fill="#EEEEEE" style="stroke:#000000;stroke-width:1.5;"/><rect fill="none" height="264.4844" style="stroke:#000000;stroke-width:1.5;" width="1408.5" x="10" y="398.2188"/><text fill="#000000" font-family="sans-serif" font-size="13" font-weight="bold" lengthAdjust="spacing" textLength="16" x="25" y="412.7139">alt</text><text fill="#000000" font-family="sans-serif" font-size="11" font-weight="bold" lengthAdjust="spacing" textLength="128" x="86" y="411.6377">[reservation not found]</text><polygon fill="#181818" points="66,434.9219,56,438.9219,66,442.9219,62,438.9219" style="stroke:#181818;stroke-width:1.0;"/><line style="stroke:#181818;stroke-width:1.0;" x1="60" x2="924.5" y1="438.9219" y2="438.9219"/><text fill="#000000" font-family="sans-serif" font-size="13" lengthAdjust="spacing" textLength="112" x="72" y="434.0654">404 No Reservation</text><line style="stroke:#000000;stroke-width:1.0;stroke-dasharray:2.0,2.0;" x1="10" x2="1418.5" y1="447.9219" y2="447.9219"/><text fill="#000000" font-family="sans-serif" font-size="11" font-weight="bold" lengthAdjust="spacing" textLength="107" x="15" y="459.3408">[reservation found]</text><path d="M20,469.7578 L81,469.7578 L81,478.1094 L71,488.1094 L20,488.1094 L20,469.7578 " fill="#EEEEEE" style="stroke:#000000;stroke-width:1.5;"/><rect fill="none" height="185.9453" style="stroke:#000000;stroke-width:1.5;" width="1388.5" x="20" y="469.7578"/><text fill="#000000" font-family="sans-serif" font-size="13" font-weight="bold" lengthAdjust="spacing" textLength="16" x="35" y="484.2529">alt</text><text fill="#000000" font-family="sans-serif" font-size="11" font-weight="bold" lengthAdjust="spacing" textLength="148" x="96" y="483.1768">[not owner AND not admin]</text><polygon fill="#181818" points="66,506.4609,56,510.4609,66,514.4609,62,510.4609" style="stroke:#181818;stroke-width:1.0;"/><line style="stroke:#181818;stroke-width:1.0;" x1="60" x2="924.5" y1="510.4609" y2="510.4609"/><text fill="#000000" font-family="sans-serif" font-size="13" lengthAdjust="spacing" textLength="109" x="72" y="505.6045">401 Not authorized</text><line style="stroke:#000000;stroke-width:1.0;stroke-dasharray:2.0,2.0;" x1="20" x2="1408.5" y1="519.4609" y2="519.4609"/><text fill="#000000" font-family="sans-serif" font-size="11" font-weight="bold" lengthAdjust="spacing" textLength="98" x="25" y="530.8799">[owner/admin ok]</text><polygon fill="#181818" points="1190.5,552.6484,1200.5,556.6484,1190.5,560.6484,1194.5,556.6484" style="stroke:#181818;stroke-width:1.0;"/><line style="stroke:#181818;stroke-width:1.0;" x1="925.5" x2="1196.5" y1="556.6484" y2="556.6484"/><text fill="#000000" font-family="sans-serif" font-size="13" lengthAdjust="spacing" textLength="248" x="932.5" y="551.792">findByIdAndUpdate(reservationId, req.body)</text><polygon fill="#181818" points="1337.5,583,1347.5,587,1337.5,591,1341.5,587" style="stroke:#181818;stroke-width:1.0;"/><line style="stroke:#181818;stroke-width:1.0;" x1="1212.5" x2="1343.5" y1="587" y2="587"/><text fill="#000000" font-family="sans-serif" font-size="13" lengthAdjust="spacing" textLength="39" x="1219.5" y="582.1436">update</text><polygon fill="#181818" points="1223.5,613.3516,1213.5,617.3516,1223.5,621.3516,1219.5,617.3516" style="stroke:#181818;stroke-width:1.0;"/><line style="stroke:#181818;stroke-width:1.0;stroke-dasharray:2.0,2.0;" x1="1217.5" x2="1353.5" y1="617.3516" y2="617.3516"/><text fill="#000000" font-family="sans-serif" font-size="13" lengthAdjust="spacing" textLength="113" x="1229.5" y="612.4951">updatedReservation</text><polygon fill="#181818" points="66,643.7031,56,647.7031,66,651.7031,62,647.7031" style="stroke:#181818;stroke-width:1.0;"/><line style="stroke:#181818;stroke-width:1.0;" x1="60" x2="924.5" y1="647.7031" y2="647.7031"/><text fill="#000000" font-family="sans-serif" font-size="13" lengthAdjust="spacing" textLength="172" x="72" y="642.8467">200 response {success, data}</text><text fill="#888888" font-family="sans-serif" font-size="10" lengthAdjust="spacing" textLength="183" x="1244.5" y="15.3809">Sample Coworking Sequence Diagram</text><!--SRC=[XLHDRnen4BtxLuou08BDaYed5Ar4mYM7fbLfJcaFpdf2t2osC-k5qYZ_lVPi4LwwIWv8Qy_x63zxU4Afa60bDwv2kBOxIy_Qh665BmsQ4c6fvPhaHdZj0s1mvvJq2D-mHjfAhws1qTUxxsEu_x8pIFb2RRJvEH32IVAwr4uQ3uFhIgFn0v0rbFpPBLzU_f9RkIf9EryKFymyYYCnllqynPDjF19ZwTXApOos5ZhSdh8sMgaATvAGcRBnJymuxY_2rYchjCQJhIgakjym0VIwMeKLCvFKMjzOOKe8LJx86YF-ipLhkxpgzuhevJ-m46sOMT6619F970XVpbpZHyDSEfrlp_DK8dzDLZVgRJWMBJKhZgcnZ7JkhAcnNsOuXNGv5aToLdJ3P357rcFfOG8nSalwJn0EwZIS3cLyCA6FBYthD9HbSp3usu_6ecDr4ZnxDVn0awG3wGGNUZm4pvH7RTJL_aQDEk64bWweh4XZPqwO3jgBT3jBPMF7bCw89J1DLOK3oCftIiPwUBIDKGBWlqRR2sQvYza5tDfqyWHMePjKww0JFQAkZJC9YzibhpZgKFt8vppu-EDLHK5sOhMSLS0-zmlr9ximgltZw4OyvTVwODL-p6hl1TxUAyFUJRt5gJIcZqxyQJQBARhmb15UwwOiiQwd46VoBPuzH1f_Vm40]--></g></svg>