<?xml version="1.0" encoding="us-ascii" standalone="no"?><svg xmlns="http://www.w3.org/2000/svg" xmlns:xlink="http://www.w3.org/1999/xlink" contentStyleType="text/css" height="893px" preserveAspectRatio="none" style="width:594px;height:893px;background:#FFFFFF;" version="1.1" viewBox="0 0 594 893" width="594px" zoomAndPan="magnify"><defs/><g><!--cluster System--><g id="cluster_System"><rect fill="none" height="880" rx="2.5" ry="2.5" style="stroke:#181818;stroke-width:1.0;" width="496" x="92" y="7"/><text fill="#000000" font-family="sans-serif" font-size="14" font-weight="bold" lengthAdjust="spacing" textLength="212" x="234" y="23.5332">Coworking Space Reservation</text></g><g id="elem_register"><ellipse cx="202.0928" cy="58.9872" fill="#F1F1F1" rx="49.0928" ry="15.4872" style="stroke:#181818;stroke-width:0.5;"/><text fill="#000000" font-family="sans-serif" font-size="14" lengthAdjust="spacing" textLength="53" x="173.1382" y="63.3807">Register</text></g><g id="elem_login"><ellipse cx="202.234" cy="124.9517" fill="#F1F1F1" rx="36.234" ry="15.4517" style="stroke:#181818;stroke-width:0.5;"/><text fill="#000000" font-family="sans-serif" font-size="14" lengthAdjust="spacing" textLength="35" x="184.734" y="128.6802">Login</text></g><g id="elem_logout"><ellipse cx="202.0997" cy="373.9523" fill="#F1F1F1" rx="42.5997" ry="15.4523" style="stroke:#181818;stroke-width:0.5;"/><text fill="#000000" font-family="sans-serif" font-size="14" lengthAdjust="spacing" textLength="44" x="179.8355" y="377.7639">Logout</text></g><g id="elem_viewSpaces"><ellipse cx="202.2168" cy="203.9034" fill="#F1F1F1" rx="94.2168" ry="27.9034" style="stroke:#181818;stroke-width:0.5;"/><text fill="#000000" font-family="sans-serif" font-size="14" lengthAdjust="spacing" textLength="29" x="187.7168" y="198.8272">View</text><text fill="#000000" font-family="sans-serif" font-size="14" lengthAdjust="spacing" textLength="117" x="143.7168" y="216.4366">Coworking Spaces</text></g><g id="elem_manageResv"><ellipse cx="202.1751" cy="294.9034" fill="#F1F1F1" rx="70.1751" ry="27.9034" style="stroke:#181818;stroke-width:0.5;"/><text fill="#000000" font-family="sans-serif" font-size="14" lengthAdjust="spacing" textLength="51" x="176.6751" y="289.8272">Manage</text><text fill="#000000" font-family="sans-serif" font-size="14" lengthAdjust="spacing" textLength="83" x="160.6751" y="307.4366">Reservations</text></g><g id="elem_updateMyResv"><ellipse cx="482.7254" cy="278.9034" fill="#F1F1F1" rx="65.2254" ry="27.9034" style="stroke:#181818;stroke-width:0.5;"/><text fill="#000000" font-family="sans-serif" font-size="14" lengthAdjust="spacing" textLength="67" x="449.2254" y="273.8272">Update My</text><text fill="#000000" font-family="sans-serif" font-size="14" lengthAdjust="spacing" textLength="76" x="444.7254" y="291.4366">Reservation</text></g><g id="elem_createResv"><ellipse cx="482.5538" cy="174.8551" fill="#F1F1F1" rx="68.0538" ry="40.3551" style="stroke:#181818;stroke-width:0.5;"/><text fill="#000000" font-family="sans-serif" font-size="14" lengthAdjust="spacing" textLength="43" x="461.0538" y="160.9743">Create</text><text fill="#000000" font-family="sans-serif" font-size="14" lengthAdjust="spacing" textLength="76" x="444.5538" y="178.5836">Reservation</text><text fill="#000000" font-family="sans-serif" font-size="14" lengthAdjust="spacing" textLength="80" x="442.5538" y="196.193">(Maximum 3)</text></g><g id="elem_viewMyResv"><ellipse cx="482.6751" cy="70.9034" fill="#F1F1F1" rx="70.1751" ry="27.9034" style="stroke:#181818;stroke-width:0.5;"/><text fill="#000000" font-family="sans-serif" font-size="14" lengthAdjust="spacing" textLength="51" x="457.1751" y="65.8272">View My</text><text fill="#000000" font-family="sans-serif" font-size="14" lengthAdjust="spacing" textLength="83" x="441.1751" y="83.4366">Reservations</text></g><g id="elem_deleteMyResv"><ellipse cx="482.7254" cy="369.9034" fill="#F1F1F1" rx="65.2254" ry="27.9034" style="stroke:#181818;stroke-width:0.5;"/><text fill="#000000" font-family="sans-serif" font-size="14" lengthAdjust="spacing" textLength="63" x="451.2254" y="364.8272">Delete My</text><text fill="#000000" font-family="sans-serif" font-size="14" lengthAdjust="spacing" textLength="76" x="444.7254" y="382.4366">Reservation</text></g><g id="elem_manageSpaces"><ellipse cx="202.2168" cy="452.9034" fill="#F1F1F1" rx="94.2168" ry="27.9034" style="stroke:#181818;stroke-width:0.5;"/><text fill="#000000" font-family="sans-serif" font-size="14" lengthAdjust="spacing" textLength="51" x="176.7168" y="447.8272">Manage</text><text fill="#000000" font-family="sans-serif" font-size="14" lengthAdjust="spacing" textLength="117" x="143.7168" y="465.4366">Coworking Spaces</text></g><g id="elem_updateSpace"><ellipse cx="482.267" cy="551.9034" fill="#F1F1F1" rx="89.267" ry="27.9034" style="stroke:#181818;stroke-width:0.5;"/><text fill="#000000" font-family="sans-serif" font-size="14" lengthAdjust="spacing" textLength="45" x="459.767" y="546.8272">Update</text><text fill="#000000" font-family="sans-serif" font-size="14" lengthAdjust="spacing" textLength="110" x="427.267" y="564.4366">Coworking Space</text></g><g id="elem_createSpace"><ellipse cx="482.267" cy="460.9034" fill="#F1F1F1" rx="89.267" ry="27.9034" style="stroke:#181818;stroke-width:0.5;"/><text fill="#000000" font-family="sans-serif" font-size="14" lengthAdjust="spacing" textLength="43" x="460.767" y="455.8272">Create</text><text fill="#000000" font-family="sans-serif" font-size="14" lengthAdjust="spacing" textLength="110" x="427.267" y="473.4366">Coworking Space</text></g><g id="elem_deleteSpace"><ellipse cx="482.267" cy="642.9034" fill="#F1F1F1" rx="89.267" ry="27.9034" style="stroke:#181818;stroke-width:0.5;"/><text fill="#000000" font-family="sans-serif" font-size="14" lengthAdjust="spacing" textLength="41" x="461.767" y="637.8272">Delete</text><text fill="#000000" font-family="sans-serif" font-size="14" lengthAdjust="spacing" textLength="110" x="427.267" y="655.4366">Coworking Space</text></g><g id="elem_viewAllResv"><ellipse cx="202.1751" cy="543.9034" fill="#F1F1F1" rx="70.1751" ry="27.9034" style="stroke:#181818;stroke-width:0.5;"/><text fill="#000000" font-family="sans-serif" font-size="14" lengthAdjust="spacing" textLength="48" x="178.1751" y="538.8272">View All</text><text fill="#000000" font-family="sans-serif" font-size="14" lengthAdjust="spacing" textLength="83" x="160.6751" y="556.4366">Reservations</text></g><g id="elem_createUnlimitedResv"><ellipse cx="202.2254" cy="647.8551" fill="#F1F1F1" rx="65.2254" ry="40.3551" style="stroke:#181818;stroke-width:0.5;"/><text fill="#000000" font-family="sans-serif" font-size="14" lengthAdjust="spacing" textLength="43" x="180.7254" y="633.9743">Create</text><text fill="#000000" font-family="sans-serif" font-size="14" lengthAdjust="spacing" textLength="76" x="164.2254" y="651.5836">Reservation</text><text fill="#000000" font-family="sans-serif" font-size="14" lengthAdjust="spacing" textLength="67" x="168.7254" y="669.193">(Unlimited)</text></g><g id="elem_updateAnyResv"><ellipse cx="202.2254" cy="751.9034" fill="#F1F1F1" rx="65.2254" ry="27.9034" style="stroke:#181818;stroke-width:0.5;"/><text fill="#000000" font-family="sans-serif" font-size="14" lengthAdjust="spacing" textLength="73" x="165.7254" y="746.8272">Update Any</text><text fill="#000000" font-family="sans-serif" font-size="14" lengthAdjust="spacing" textLength="76" x="164.2254" y="764.4366">Reservation</text></g><g id="elem_deleteAnyResv"><ellipse cx="202.2254" cy="842.9034" fill="#F1F1F1" rx="65.2254" ry="27.9034" style="stroke:#181818;stroke-width:0.5;"/><text fill="#000000" font-family="sans-serif" font-size="14" lengthAdjust="spacing" textLength="69" x="167.7254" y="837.8272">Delete Any</text><text fill="#000000" font-family="sans-serif" font-size="14" lengthAdjust="spacing" textLength="76" x="164.2254" y="855.4366">Reservation</text></g><!--entity guest--><g id="elem_guest"><ellipse cx="25.5" cy="94.5" fill="#F1F1F1" rx="8" ry="8" style="stroke:#181818;stroke-width:0.5;"/><path d="M25.5,102.5 L25.5,129.5 M12.5,110.5 L38.5,110.5 M25.5,129.5 L12.5,144.5 M25.5,129.5 L38.5,144.5 " fill="none" style="stroke:#181818;stroke-width:0.5;"/><text fill="#000000" font-family="sans-serif" font-size="14" lengthAdjust="spacing" textLength="38" x="6.5" y="160.5332">Guest</text></g><!--entity user--><g id="elem_user"><ellipse cx="25.5" cy="264.5" fill="#F1F1F1" rx="8" ry="8" style="stroke:#181818;stroke-width:0.5;"/><path d="M25.5,272.5 L25.5,299.5 M12.5,280.5 L38.5,280.5 M25.5,299.5 L12.5,314.5 M25.5,299.5 L38.5,314.5 " fill="none" style="stroke:#181818;stroke-width:0.5;"/><text fill="#000000" font-family="sans-serif" font-size="14" lengthAdjust="spacing" textLength="29" x="11" y="330.5332">User</text></g><!--entity admin--><g id="elem_admin"><ellipse cx="25.5" cy="591.5" fill="#F1F1F1" rx="8" ry="8" style="stroke:#181818;stroke-width:0.5;"/><path d="M25.5,599.5 L25.5,626.5 M12.5,607.5 L38.5,607.5 M25.5,626.5 L12.5,641.5 M25.5,626.5 L38.5,641.5 " fill="none" style="stroke:#181818;stroke-width:0.5;"/><text fill="#000000" font-family="sans-serif" font-size="14" lengthAdjust="spacing" textLength="39" x="6" y="657.5332">Admin</text></g><!--link guest to register--><g id="link_guest_register"><path d="M44.55,113.1 C55.59,106.22 70.21,97.8 84,92 C108.9,81.53 138.15,73.28 161.18,67.65 " fill="none" id="guest-register" style="stroke:#181818;stroke-width:1.0;"/></g><!--link guest to login--><g id="link_guest_login"><path d="M44.52,125 C73.08,125 129.27,125 165.96,125 " fill="none" id="guest-login" style="stroke:#181818;stroke-width:1.0;"/></g><!--link guest to viewSpaces--><g id="link_guest_viewSpaces"><path d="M44.52,136.25 C55.67,142.98 70.41,151.47 84,158 C102.3,166.79 122.74,175.26 141.36,182.49 " fill="none" id="guest-viewSpaces" style="stroke:#181818;stroke-width:1.0;"/></g><!--link user to logout--><g id="link_user_logout"><path d="M40.1,308.11 C51.14,318.11 67.53,331.56 84,340 C109.23,352.92 140.1,361.63 163.8,367 " fill="none" id="user-logout" style="stroke:#181818;stroke-width:1.0;"/></g><!--link user to viewSpaces--><g id="link_user_viewSpaces"><path d="M40.26,281.97 C51.39,271.95 67.81,258.29 84,249 C100.61,239.47 119.63,231.17 137.43,224.39 " fill="none" id="user-viewSpaces" style="stroke:#181818;stroke-width:1.0;"/></g><!--link user to manageResv--><g id="link_user_manageResv"><path d="M40.19,295 C59.96,295 97.85,295 131.89,295 " fill="none" id="user-manageResv" style="stroke:#181818;stroke-width:1.0;"/></g><!--link manageResv to createResv--><g id="link_manageResv_createResv"><path d="M250.24,274.64 C299.13,253.58 369.8898,223.0944 421.3398,200.9244 " fill="none" id="manageResv-to-createResv" style="stroke:#181818;stroke-width:1.0;stroke-dasharray:7.0,7.0;"/><polygon fill="#181818" points="426.85,198.55,417.0018,198.4381,422.2582,200.5286,420.1676,205.785,426.85,198.55" style="stroke:#181818;stroke-width:1.0;"/><text fill="#000000" font-family="sans-serif" font-size="13" lengthAdjust="spacing" textLength="35" x="327" y="224.4951">&#171;can&#187;</text></g><!--link manageResv to viewMyResv--><g id="link_manageResv_viewMyResv"><path d="M253.89,275.94 C268.52,268.92 283.8,259.94 296,249 C314.45,232.46 311.65,222.2 326,202 C353.86,162.79 355.94,147.67 393,117 C405.14,106.95 414.482,100.9602 428.382,93.8902 " fill="none" id="manageResv-to-viewMyResv" style="stroke:#181818;stroke-width:1.0;stroke-dasharray:7.0,7.0;"/><polygon fill="#181818" points="433.73,91.17,423.8946,91.6849,429.2734,93.4368,427.5215,98.8155,433.73,91.17" style="stroke:#181818;stroke-width:1.0;"/><text fill="#000000" font-family="sans-serif" font-size="13" lengthAdjust="spacing" textLength="35" x="327" y="144.4951">&#171;can&#187;</text></g><!--link manageResv to updateMyResv--><g id="link_manageResv_updateMyResv"><path d="M271.49,291.07 C316.26,288.49 368.3399,285.5039 412.0599,282.9939 " fill="none" id="manageResv-to-updateMyResv" style="stroke:#181818;stroke-width:1.0;stroke-dasharray:7.0,7.0;"/><polygon fill="#181818" points="418.05,282.65,408.8355,279.1724,413.0582,282.9366,409.2941,287.1593,418.05,282.65" style="stroke:#181818;stroke-width:1.0;"/><text fill="#000000" font-family="sans-serif" font-size="13" lengthAdjust="spacing" textLength="35" x="327" y="283.4951">&#171;can&#187;</text></g><!--link manageResv to deleteMyResv--><g id="link_manageResv_deleteMyResv"><path d="M260.71,310.54 C309.46,323.67 373.0066,340.7789 420.9166,353.6889 " fill="none" id="manageResv-to-deleteMyResv" style="stroke:#181818;stroke-width:1.0;stroke-dasharray:7.0,7.0;"/><polygon fill="#181818" points="426.71,355.25,419.0607,349.0461,421.8822,353.9491,416.9792,356.7706,426.71,355.25" style="stroke:#181818;stroke-width:1.0;"/><text fill="#000000" font-family="sans-serif" font-size="13" lengthAdjust="spacing" textLength="35" x="327" y="327.4951">&#171;can&#187;</text></g><!--link admin to logout--><g id="link_admin_logout"><path d="M25.95,582.61 C27.47,534.63 37.46,454.17 84,407 C103.71,387.02 134.52,378.89 159.58,375.69 " fill="none" id="admin-logout" style="stroke:#181818;stroke-width:1.0;"/></g><!--link admin to manageSpaces--><g id="link_admin_manageSpaces"><path d="M36.18,582.96 C44.71,555.9 59.65,520.77 84,498 C96.64,486.18 112.71,477.37 128.86,470.82 " fill="none" id="admin-manageSpaces" style="stroke:#181818;stroke-width:1.0;"/></g><!--link admin to viewAllResv--><g id="link_admin_viewAllResv"><path d="M45.07,610.83 C56.18,604.37 70.67,596.29 84,590 C105.02,580.07 128.8,570.45 149.4,562.58 " fill="none" id="admin-viewAllResv" style="stroke:#181818;stroke-width:1.0;"/></g><!--link admin to createUnlimitedResv--><g id="link_admin_createUnlimitedResv"><path d="M45.17,624.78 C67.33,628.08 105.43,633.76 138.4,638.67 " fill="none" id="admin-createUnlimitedResv" style="stroke:#181818;stroke-width:1.0;"/></g><!--link admin to updateAnyResv--><g id="link_admin_updateAnyResv"><path d="M45.15,658.85 C54.88,675.1 68.1,693.34 84,706 C101.93,720.28 124.83,730.58 145.61,737.77 " fill="none" id="admin-updateAnyResv" style="stroke:#181818;stroke-width:1.0;"/></g><!--link admin to deleteAnyResv--><g id="link_admin_deleteAnyResv"><path d="M29.82,661.31 C35.1,700.37 48.76,759.68 84,797 C99.66,813.58 122.03,824.29 143.02,831.16 " fill="none" id="admin-deleteAnyResv" style="stroke:#181818;stroke-width:1.0;"/></g><!--link manageSpaces to createSpace--><g id="link_manageSpaces_createSpace"><path d="M295.74,455.66 C327.07,456.56 355.9525,457.3978 386.9425,458.2878 " fill="none" id="manageSpaces-to-createSpace" style="stroke:#181818;stroke-width:1.0;stroke-dasharray:7.0,7.0;"/><polygon fill="#181818" points="392.94,458.46,384.0585,454.2033,387.9421,458.3165,383.8289,462.2,392.94,458.46" style="stroke:#181818;stroke-width:1.0;"/><text fill="#000000" font-family="sans-serif" font-size="13" lengthAdjust="spacing" textLength="35" x="327" y="453.4951">&#171;can&#187;</text></g><!--link manageSpaces to updateSpace--><g id="link_manageSpaces_updateSpace"><path d="M263.09,474.36 C310.26,491.13 369.9265,512.3405 416.8265,529.0105 " fill="none" id="manageSpaces-to-updateSpace" style="stroke:#181818;stroke-width:1.0;stroke-dasharray:7.0,7.0;"/><polygon fill="#181818" points="422.48,531.02,415.3394,524.2368,417.7688,529.3454,412.6601,531.7748,422.48,531.02" style="stroke:#181818;stroke-width:1.0;"/><text fill="#000000" font-family="sans-serif" font-size="13" lengthAdjust="spacing" textLength="35" x="327" y="496.4951">&#171;can&#187;</text></g><!--link manageSpaces to deleteSpace--><g id="link_manageSpaces_deleteSpace"><path d="M259.46,475.41 C272.12,481.74 285.03,489.31 296,498 C312.59,511.15 311.53,519.55 326,535 C353.74,564.61 359.82,573.66 393,597 C404.9,605.37 413.2003,610.4249 426.1203,617.1649 " fill="none" id="manageSpaces-to-deleteSpace" style="stroke:#181818;stroke-width:1.0;stroke-dasharray:7.0,7.0;"/><polygon fill="#181818" points="431.44,619.94,425.3106,612.2309,427.007,617.6274,421.6104,619.3238,431.44,619.94" style="stroke:#181818;stroke-width:1.0;"/><text fill="#000000" font-family="sans-serif" font-size="13" lengthAdjust="spacing" textLength="35" x="327" y="531.4951">&#171;can&#187;</text></g><!--SRC=[ZLGzRuD03DtlLrXPqWxDqgsA8aMfrAKiYT8fombSUYeS4Hn9ewh_lVS1Xm-Egapsin_6ppO5lYjG5TGY_r2GYHfJ9Ih964zLLSFYfSL6BO0ta1khXuyDrXPjjT63swmKqgBSM8oPbt6P5mYBNNMjwayXSpYSUOgmHqsyS5FBCWwtHc49tmpqer-QyaQpzfWBZRjITUU4AQzLtXKjZ3K9LgtgezfaOVnDuFKaHz_MsFoB3Zbtn4cuv3cU9Ed0CKeRqF0b91pF6LS8oItWEFLiABbDIRiQTIHWdEHTmhz4sPRmU6_fgKsQaarRutf3Lx5oprZWp3TcDjIHub941NHoT19619dGY2BMZmiI8paT8YJNLfpa-dAaY7pRefZHJqV-Ew-ZB4Gf56PqNXwSNPMjdDqL7PgTNfJcsknfFumjmTuqi_SC3m_3NNd4NP9twIaimPm-CsVVPPghwbsIsKFaAjXWmsgr8UiBJx1UfrnkDkESOM7dS-WLpMVHFIPPkYFxtsBsdqLwydwmo1wbc-31s81zC1oWXyC1CLgDgEJ-ckFcI1evdB_IoDQJj5y0]--></g></svg>