<?xml version="1.0" encoding="us-ascii" standalone="no"?><svg xmlns="http://www.w3.org/2000/svg" xmlns:xlink="http://www.w3.org/1999/xlink" contentStyleType="text/css" height="679px" preserveAspectRatio="none" style="width:974px;height:679px;background:#FFFFFF;" version="1.1" viewBox="0 0 974 679" width="974px" zoomAndPan="magnify"><defs/><g><text fill="#000000" font-family="sans-serif" font-size="14" font-weight="bold" lengthAdjust="spacing" textLength="236" x="365" y="43.1113">Get Logged-in User (GET) [Token]</text><rect fill="#FFFFFF" height="386.2188" style="stroke:#181818;stroke-width:1.0;" width="10" x="223" y="187.1094"/><rect fill="#FFFFFF" height="355.8672" style="stroke:#181818;stroke-width:1.0;" width="10" x="409" y="217.4609"/><rect fill="#FFFFFF" height="325.5156" style="stroke:#181818;stroke-width:1.0;" width="10" x="541" y="247.8125"/><rect fill="#FFFFFF" height="126.4063" style="stroke:#181818;stroke-width:1.0;" width="10" x="546" y="286.1641"/><rect fill="#FFFFFF" height="121.4063" style="stroke:#181818;stroke-width:1.0;" width="10" x="660" y="442.9219"/><rect fill="#FFFFFF" height="251.8125" style="stroke:#181818;stroke-width:1.0;" width="10" x="809" y="321.5156"/><rect fill="#FFFFFF" height="100.0547" style="stroke:#181818;stroke-width:1.0;" width="10" x="814" y="473.2734"/><rect fill="#FFFFFF" height="30.3516" style="stroke:#181818;stroke-width:1.0;" width="10" x="915" y="351.8672"/><rect fill="#FFFFFF" height="30.3516" style="stroke:#181818;stroke-width:1.0;" width="10" x="915" y="503.625"/><line style="stroke:#181818;stroke-width:0.5;stroke-dasharray:5.0,5.0;" x1="30" x2="30" y1="138.4063" y2="582.3281"/><line style="stroke:#181818;stroke-width:0.5;stroke-dasharray:5.0,5.0;" x1="228" x2="228" y1="138.4063" y2="582.3281"/><line style="stroke:#181818;stroke-width:0.5;stroke-dasharray:5.0,5.0;" x1="414" x2="414" y1="138.4063" y2="582.3281"/><line style="stroke:#181818;stroke-width:0.5;stroke-dasharray:5.0,5.0;" x1="545.5" x2="545.5" y1="138.4063" y2="582.3281"/><line style="stroke:#181818;stroke-width:0.5;stroke-dasharray:5.0,5.0;" x1="665" x2="665" y1="138.4063" y2="582.3281"/><line style="stroke:#181818;stroke-width:0.5;stroke-dasharray:5.0,5.0;" x1="814" x2="814" y1="138.4063" y2="582.3281"/><line style="stroke:#181818;stroke-width:0.5;stroke-dasharray:5.0,5.0;" x1="920" x2="920" y1="138.4063" y2="582.3281"/><rect fill="#E2E2F0" height="31.6094" rx="2.5" ry="2.5" style="stroke:#181818;stroke-width:0.5;" width="50" x="5" y="105.7969"/><text fill="#000000" font-family="sans-serif" font-size="14" lengthAdjust="spacing" textLength="36" x="12" y="127.3301">Client</text><rect fill="#E2E2F0" height="31.6094" rx="2.5" ry="2.5" style="stroke:#181818;stroke-width:0.5;" width="50" x="5" y="581.3281"/><text fill="#000000" font-family="sans-serif" font-size="14" lengthAdjust="spacing" textLength="36" x="12" y="602.8613">Client</text><rect fill="#E2E2F0" height="49.2188" rx="2.5" ry="2.5" style="stroke:#181818;stroke-width:0.5;" width="92" x="182" y="88.1875"/><text fill="#000000" font-family="sans-serif" font-size="14" lengthAdjust="spacing" textLength="78" x="189" y="109.7207">&#171;javaScript&#187;</text><text fill="#000000" font-family="sans-serif" font-size="14" lengthAdjust="spacing" textLength="44" x="206" y="127.3301">:server</text><rect fill="#E2E2F0" height="49.2188" rx="2.5" ry="2.5" style="stroke:#181818;stroke-width:0.5;" width="92" x="182" y="581.3281"/><text fill="#000000" font-family="sans-serif" font-size="14" lengthAdjust="spacing" textLength="78" x="189" y="602.8613">&#171;javaScript&#187;</text><text fill="#000000" font-family="sans-serif" font-size="14" lengthAdjust="spacing" textLength="44" x="206" y="620.4707">:server</text><rect fill="#E2E2F0" height="49.2188" rx="2.5" ry="2.5" style="stroke:#181818;stroke-width:0.5;" width="68" x="380" y="88.1875"/><text fill="#000000" font-family="sans-serif" font-size="14" lengthAdjust="spacing" textLength="54" x="387" y="109.7207">&#171;router&#187;</text><text fill="#000000" font-family="sans-serif" font-size="14" lengthAdjust="spacing" textLength="32" x="398" y="127.3301">:auth</text><rect fill="#E2E2F0" height="49.2188" rx="2.5" ry="2.5" style="stroke:#181818;stroke-width:0.5;" width="68" x="380" y="581.3281"/><text fill="#000000" font-family="sans-serif" font-size="14" lengthAdjust="spacing" textLength="54" x="387" y="602.8613">&#171;router&#187;</text><text fill="#000000" font-family="sans-serif" font-size="14" lengthAdjust="spacing" textLength="32" x="398" y="620.4707">:auth</text><rect fill="#E2E2F0" height="49.2188" rx="2.5" ry="2.5" style="stroke:#181818;stroke-width:0.5;" width="101" x="495.5" y="88.1875"/><text fill="#000000" font-family="sans-serif" font-size="14" lengthAdjust="spacing" textLength="87" x="502.5" y="109.7207">&#171;middleware&#187;</text><text fill="#000000" font-family="sans-serif" font-size="14" lengthAdjust="spacing" textLength="32" x="530" y="127.3301">:auth</text><rect fill="#E2E2F0" height="49.2188" rx="2.5" ry="2.5" style="stroke:#181818;stroke-width:0.5;" width="101" x="495.5" y="581.3281"/><text fill="#000000" font-family="sans-serif" font-size="14" lengthAdjust="spacing" textLength="87" x="502.5" y="602.8613">&#171;middleware&#187;</text><text fill="#000000" font-family="sans-serif" font-size="14" lengthAdjust="spacing" textLength="32" x="530" y="620.4707">:auth</text><rect fill="#E2E2F0" height="49.2188" rx="2.5" ry="2.5" style="stroke:#181818;stroke-width:0.5;" width="96" x="617" y="88.1875"/><text fill="#000000" font-family="sans-serif" font-size="14" lengthAdjust="spacing" textLength="82" x="624" y="109.7207">&#171;controllers&#187;</text><text fill="#000000" font-family="sans-serif" font-size="14" lengthAdjust="spacing" textLength="32" x="649" y="127.3301">:auth</text><rect fill="#E2E2F0" height="49.2188" rx="2.5" ry="2.5" style="stroke:#181818;stroke-width:0.5;" width="96" x="617" y="581.3281"/><text fill="#000000" font-family="sans-serif" font-size="14" lengthAdjust="spacing" textLength="82" x="624" y="602.8613">&#171;controllers&#187;</text><text fill="#000000" font-family="sans-serif" font-size="14" lengthAdjust="spacing" textLength="32" x="649" y="620.4707">:auth</text><rect fill="#E2E2F0" height="49.2188" rx="2.5" ry="2.5" style="stroke:#181818;stroke-width:0.5;" width="68" x="780" y="88.1875"/><text fill="#000000" font-family="sans-serif" font-size="14" lengthAdjust="spacing" textLength="54" x="787" y="109.7207">&#171;model&#187;</text><text fill="#000000" font-family="sans-serif" font-size="14" lengthAdjust="spacing" textLength="33" x="797.5" y="127.3301">:User</text><rect fill="#E2E2F0" height="49.2188" rx="2.5" ry="2.5" style="stroke:#181818;stroke-width:0.5;" width="68" x="780" y="581.3281"/><text fill="#000000" font-family="sans-serif" font-size="14" lengthAdjust="spacing" textLength="54" x="787" y="602.8613">&#171;model&#187;</text><text fill="#000000" font-family="sans-serif" font-size="14" lengthAdjust="spacing" textLength="33" x="797.5" y="620.4707">:User</text><text fill="#000000" font-family="sans-serif" font-size="14" lengthAdjust="spacing" textLength="78" x="878" y="117.7207">&#171;MongoDB&#187;</text><text fill="#000000" font-family="sans-serif" font-size="14" lengthAdjust="spacing" textLength="39" x="897.5" y="135.3301">:users</text><path d="M902,67.1875 C902,57.1875 920,57.1875 920,57.1875 C920,57.1875 938,57.1875 938,67.1875 L938,93.1875 C938,103.1875 920,103.1875 920,103.1875 C920,103.1875 902,103.1875 902,93.1875 L902,67.1875 " fill="#E2E2F0" style="stroke:#181818;stroke-width:1.5;"/><path d="M902,67.1875 C902,77.1875 920,77.1875 920,77.1875 C920,77.1875 938,77.1875 938,67.1875 " fill="none" style="stroke:#181818;stroke-width:1.5;"/><text fill="#000000" font-family="sans-serif" font-size="14" lengthAdjust="spacing" textLength="78" x="878" y="595.8613">&#171;MongoDB&#187;</text><text fill="#000000" font-family="sans-serif" font-size="14" lengthAdjust="spacing" textLength="39" x="897.5" y="613.4707">:users</text><path d="M902,626.5469 C902,616.5469 920,616.5469 920,616.5469 C920,616.5469 938,616.5469 938,626.5469 L938,652.5469 C938,662.5469 920,662.5469 920,662.5469 C920,662.5469 902,662.5469 902,652.5469 L902,626.5469 " fill="#E2E2F0" style="stroke:#181818;stroke-width:1.5;"/><path d="M902,626.5469 C902,636.5469 920,636.5469 920,636.5469 C920,636.5469 938,636.5469 938,626.5469 " fill="none" style="stroke:#181818;stroke-width:1.5;"/><rect fill="#FFFFFF" height="386.2188" style="stroke:#181818;stroke-width:1.0;" width="10" x="223" y="187.1094"/><rect fill="#FFFFFF" height="355.8672" style="stroke:#181818;stroke-width:1.0;" width="10" x="409" y="217.4609"/><rect fill="#FFFFFF" height="325.5156" style="stroke:#181818;stroke-width:1.0;" width="10" x="541" y="247.8125"/><rect fill="#FFFFFF" height="126.4063" style="stroke:#181818;stroke-width:1.0;" width="10" x="546" y="286.1641"/><rect fill="#FFFFFF" height="121.4063" style="stroke:#181818;stroke-width:1.0;" width="10" x="660" y="442.9219"/><rect fill="#FFFFFF" height="251.8125" style="stroke:#181818;stroke-width:1.0;" width="10" x="809" y="321.5156"/><rect fill="#FFFFFF" height="100.0547" style="stroke:#181818;stroke-width:1.0;" width="10" x="814" y="473.2734"/><rect fill="#FFFFFF" height="30.3516" style="stroke:#181818;stroke-width:1.0;" width="10" x="915" y="351.8672"/><rect fill="#FFFFFF" height="30.3516" style="stroke:#181818;stroke-width:1.0;" width="10" x="915" y="503.625"/><polygon fill="#181818" points="211,183.1094,221,187.1094,211,191.1094,215,187.1094" style="stroke:#181818;stroke-width:1.0;"/><line style="stroke:#181818;stroke-width:1.0;" x1="30" x2="217" y1="187.1094" y2="187.1094"/><text fill="#000000" font-family="sans-serif" font-size="13" lengthAdjust="spacing" textLength="140" x="37" y="165.9014">req.get('/api/v1/auth/me')</text><text fill="#000000" font-family="sans-serif" font-size="13" lengthAdjust="spacing" textLength="174" x="37" y="182.2529">Authorization: Bearer &lt;token&gt;</text><polygon fill="#181818" points="397,213.4609,407,217.4609,397,221.4609,401,217.4609" style="stroke:#181818;stroke-width:1.0;"/><line style="stroke:#181818;stroke-width:1.0;" x1="233" x2="403" y1="217.4609" y2="217.4609"/><text fill="#000000" font-family="sans-serif" font-size="13" lengthAdjust="spacing" textLength="157" x="240" y="212.6045">app.use('/api/v1/auth', auth)</text><polygon fill="#181818" points="529,243.8125,539,247.8125,529,251.8125,533,247.8125" style="stroke:#181818;stroke-width:1.0;"/><line style="stroke:#181818;stroke-width:1.0;" x1="419" x2="535" y1="247.8125" y2="247.8125"/><text fill="#000000" font-family="sans-serif" font-size="13" lengthAdjust="spacing" textLength="48" x="426" y="242.9561">protect()</text><line style="stroke:#181818;stroke-width:1.0;" x1="551" x2="598" y1="273.1641" y2="273.1641"/><line style="stroke:#181818;stroke-width:1.0;" x1="598" x2="598" y1="273.1641" y2="286.1641"/><line style="stroke:#181818;stroke-width:1.0;" x1="557" x2="598" y1="286.1641" y2="286.1641"/><polygon fill="#181818" points="567,282.1641,557,286.1641,567,290.1641,563,286.1641" style="stroke:#181818;stroke-width:1.0;"/><text fill="#000000" font-family="sans-serif" font-size="13" lengthAdjust="spacing" textLength="95" x="563" y="268.3076">verify JWT token</text><polygon fill="#181818" points="797,317.5156,807,321.5156,797,325.5156,801,321.5156" style="stroke:#181818;stroke-width:1.0;"/><line style="stroke:#181818;stroke-width:1.0;" x1="556" x2="803" y1="321.5156" y2="321.5156"/><text fill="#000000" font-family="sans-serif" font-size="13" lengthAdjust="spacing" textLength="125" x="563" y="316.6592">findById(token.userId)</text><polygon fill="#181818" points="903,347.8672,913,351.8672,903,355.8672,907,351.8672" style="stroke:#181818;stroke-width:1.0;"/><line style="stroke:#181818;stroke-width:1.0;" x1="819" x2="909" y1="351.8672" y2="351.8672"/><text fill="#000000" font-family="sans-serif" font-size="13" lengthAdjust="spacing" textLength="68" x="826" y="347.0107">query users</text><polygon fill="#181818" points="830,378.2188,820,382.2188,830,386.2188,826,382.2188" style="stroke:#181818;stroke-width:1.0;"/><line style="stroke:#181818;stroke-width:1.0;stroke-dasharray:2.0,2.0;" x1="824" x2="919" y1="382.2188" y2="382.2188"/><text fill="#000000" font-family="sans-serif" font-size="13" lengthAdjust="spacing" textLength="72" x="836" y="377.3623">user (or null)</text><polygon fill="#181818" points="430,408.5703,420,412.5703,430,416.5703,426,412.5703" style="stroke:#181818;stroke-width:1.0;"/><line style="stroke:#181818;stroke-width:1.0;stroke-dasharray:2.0,2.0;" x1="424" x2="540" y1="412.5703" y2="412.5703"/><text fill="#000000" font-family="sans-serif" font-size="13" lengthAdjust="spacing" textLength="98" x="436" y="407.7139">req.user = userId</text><polygon fill="#181818" points="648,438.9219,658,442.9219,648,446.9219,652,442.9219" style="stroke:#181818;stroke-width:1.0;"/><line style="stroke:#181818;stroke-width:1.0;" x1="419" x2="654" y1="442.9219" y2="442.9219"/><text fill="#000000" font-family="sans-serif" font-size="13" lengthAdjust="spacing" textLength="44" x="426" y="438.0654">getMe()</text><polygon fill="#181818" points="802,469.2734,812,473.2734,802,477.2734,806,473.2734" style="stroke:#181818;stroke-width:1.0;"/><line style="stroke:#181818;stroke-width:1.0;" x1="670" x2="808" y1="473.2734" y2="473.2734"/><text fill="#000000" font-family="sans-serif" font-size="13" lengthAdjust="spacing" textLength="115" x="677" y="468.417">findById(req.user.id)</text><polygon fill="#181818" points="903,499.625,913,503.625,903,507.625,907,503.625" style="stroke:#181818;stroke-width:1.0;"/><line style="stroke:#181818;stroke-width:1.0;" x1="824" x2="909" y1="503.625" y2="503.625"/><text fill="#000000" font-family="sans-serif" font-size="13" lengthAdjust="spacing" textLength="68" x="831" y="498.7686">query users</text><polygon fill="#181818" points="835,529.9766,825,533.9766,835,537.9766,831,533.9766" style="stroke:#181818;stroke-width:1.0;"/><line style="stroke:#181818;stroke-width:1.0;stroke-dasharray:2.0,2.0;" x1="829" x2="919" y1="533.9766" y2="533.9766"/><text fill="#000000" font-family="sans-serif" font-size="13" lengthAdjust="spacing" textLength="25" x="841" y="529.1201">user</text><polygon fill="#181818" points="41,560.3281,31,564.3281,41,568.3281,37,564.3281" style="stroke:#181818;stroke-width:1.0;"/><line style="stroke:#181818;stroke-width:1.0;" x1="35" x2="664" y1="564.3281" y2="564.3281"/><text fill="#000000" font-family="sans-serif" font-size="13" lengthAdjust="spacing" textLength="201" x="47" y="559.4717">200 response {success, data:user}</text><text fill="#888888" font-family="sans-serif" font-size="10" lengthAdjust="spacing" textLength="183" x="783" y="15.3809">Sample Coworking Sequence Diagram</text><!--SRC=[hP91Rzim38Nl-XL4Bd7GEkbw3383JJCK7TPJCkomxg1PhAlMaLHAJf4E- - -Jw0MfakosastnU-JJCnzHAYHOohLh4QxjgwLdRHfOuak7faPOQDcGN8kWGmG6DnZWYsqQLAKsyDL7RN7pQJM2xolxZER7G0WdAUXQEsa23AvRZIOCG7ge-JKlpsPFSYENDMaNgkhUJ6F33HBp_UiXJxOBICpABZmosPzTnSz3UgsLQl5L4kQA_VafLMrD8DksI3wNlIkSd6OLjgn8mVI3qb7w4ae6-LDwJE2TDOrTp1djOj4pcp2_-8i9qUTLLdqES7Os1SANSOEX64waqvFDXqboDbdZS7HlaY5B-aq6RSqKvXWlHp0BwRTKeczILlkekA5qRXmDv0s7vv0U8o7sT5dbaR7QaGrOXs8ayk99E8xN3rlu_6q5xEbOiukAyGTjr7nxgmg6aqcwLN7G3YghB2xMn9MbBN2W8gkMxxkNvPGPA2o1wThso7uMKy9JxYpv2BsHF9g3jM0lyJVTOKpceFRFQ-v6ZFN_lUMnWNwl6BYyk8XtyywQsFkNx-eQlJ-7jAgybx_57m00]--></g></svg>