<?xml version="1.0" encoding="us-ascii" standalone="no"?><svg xmlns="http://www.w3.org/2000/svg" xmlns:xlink="http://www.w3.org/1999/xlink" contentStyleType="text/css" height="711px" preserveAspectRatio="none" style="width:907px;height:711px;background:#FFFFFF;" version="1.1" viewBox="0 0 907 711" width="907px" zoomAndPan="magnify"><defs/><g><text fill="#000000" font-family="sans-serif" font-size="14" font-weight="bold" lengthAdjust="spacing" textLength="90" x="404.5" y="43.1113">Login (POST)</text><rect fill="#FFFFFF" height="434.8906" style="stroke:#181818;stroke-width:1.0;" width="10" x="230" y="170.7578"/><rect fill="#FFFFFF" height="404.5391" style="stroke:#181818;stroke-width:1.0;" width="10" x="416" y="201.1094"/><rect fill="#FFFFFF" height="146.7578" style="stroke:#181818;stroke-width:1.0;" width="10" x="508" y="231.4609"/><rect fill="#FFFFFF" height="60.7031" style="stroke:#181818;stroke-width:1.0;" width="10" x="508" y="432.4063"/><rect fill="#FFFFFF" height="35.3516" style="stroke:#181818;stroke-width:1.0;" width="10" x="508" y="547.2969"/><rect fill="#FFFFFF" height="343.8359" style="stroke:#181818;stroke-width:1.0;" width="10" x="742" y="261.8125"/><rect fill="#FFFFFF" height="30.3516" style="stroke:#181818;stroke-width:1.0;" width="10" x="848" y="292.1641"/><rect fill="none" height="260.1328" style="stroke:#000000;stroke-width:1.5;" width="691" x="10" y="337.5156"/><rect fill="none" height="138.2422" style="stroke:#000000;stroke-width:1.5;" width="671" x="20" y="452.4063"/><line style="stroke:#181818;stroke-width:0.5;stroke-dasharray:5.0,5.0;" x1="55" x2="55" y1="138.4063" y2="614.6484"/><line style="stroke:#181818;stroke-width:0.5;stroke-dasharray:5.0,5.0;" x1="235" x2="235" y1="138.4063" y2="614.6484"/><line style="stroke:#181818;stroke-width:0.5;stroke-dasharray:5.0,5.0;" x1="421" x2="421" y1="138.4063" y2="614.6484"/><line style="stroke:#181818;stroke-width:0.5;stroke-dasharray:5.0,5.0;" x1="513" x2="513" y1="138.4063" y2="614.6484"/><line style="stroke:#181818;stroke-width:0.5;stroke-dasharray:5.0,5.0;" x1="747" x2="747" y1="138.4063" y2="614.6484"/><line style="stroke:#181818;stroke-width:0.5;stroke-dasharray:5.0,5.0;" x1="853" x2="853" y1="138.4063" y2="614.6484"/><rect fill="#E2E2F0" height="31.6094" rx="2.5" ry="2.5" style="stroke:#181818;stroke-width:0.5;" width="50" x="30" y="105.7969"/><text fill="#000000" font-family="sans-serif" font-size="14" lengthAdjust="spacing" textLength="36" x="37" y="127.3301">Client</text><rect fill="#E2E2F0" height="31.6094" rx="2.5" ry="2.5" style="stroke:#181818;stroke-width:0.5;" width="50" x="30" y="613.6484"/><text fill="#000000" font-family="sans-serif" font-size="14" lengthAdjust="spacing" textLength="36" x="37" y="635.1816">Client</text><rect fill="#E2E2F0" height="49.2188" rx="2.5" ry="2.5" style="stroke:#181818;stroke-width:0.5;" width="92" x="189" y="88.1875"/><text fill="#000000" font-family="sans-serif" font-size="14" lengthAdjust="spacing" textLength="78" x="196" y="109.7207">&#171;javaScript&#187;</text><text fill="#000000" font-family="sans-serif" font-size="14" lengthAdjust="spacing" textLength="44" x="213" y="127.3301">:server</text><rect fill="#E2E2F0" height="49.2188" rx="2.5" ry="2.5" style="stroke:#181818;stroke-width:0.5;" width="92" x="189" y="613.6484"/><text fill="#000000" font-family="sans-serif" font-size="14" lengthAdjust="spacing" textLength="78" x="196" y="635.1816">&#171;javaScript&#187;</text><text fill="#000000" font-family="sans-serif" font-size="14" lengthAdjust="spacing" textLength="44" x="213" y="652.791">:server</text><rect fill="#E2E2F0" height="49.2188" rx="2.5" ry="2.5" style="stroke:#181818;stroke-width:0.5;" width="68" x="387" y="88.1875"/><text fill="#000000" font-family="sans-serif" font-size="14" lengthAdjust="spacing" textLength="54" x="394" y="109.7207">&#171;router&#187;</text><text fill="#000000" font-family="sans-serif" font-size="14" lengthAdjust="spacing" textLength="32" x="405" y="127.3301">:auth</text><rect fill="#E2E2F0" height="49.2188" rx="2.5" ry="2.5" style="stroke:#181818;stroke-width:0.5;" width="68" x="387" y="613.6484"/><text fill="#000000" font-family="sans-serif" font-size="14" lengthAdjust="spacing" textLength="54" x="394" y="635.1816">&#171;router&#187;</text><text fill="#000000" font-family="sans-serif" font-size="14" lengthAdjust="spacing" textLength="32" x="405" y="652.791">:auth</text><rect fill="#E2E2F0" height="49.2188" rx="2.5" ry="2.5" style="stroke:#181818;stroke-width:0.5;" width="96" x="465" y="88.1875"/><text fill="#000000" font-family="sans-serif" font-size="14" lengthAdjust="spacing" textLength="82" x="472" y="109.7207">&#171;controllers&#187;</text><text fill="#000000" font-family="sans-serif" font-size="14" lengthAdjust="spacing" textLength="32" x="497" y="127.3301">:auth</text><rect fill="#E2E2F0" height="49.2188" rx="2.5" ry="2.5" style="stroke:#181818;stroke-width:0.5;" width="96" x="465" y="613.6484"/><text fill="#000000" font-family="sans-serif" font-size="14" lengthAdjust="spacing" textLength="82" x="472" y="635.1816">&#171;controllers&#187;</text><text fill="#000000" font-family="sans-serif" font-size="14" lengthAdjust="spacing" textLength="32" x="497" y="652.791">:auth</text><rect fill="#E2E2F0" height="49.2188" rx="2.5" ry="2.5" style="stroke:#181818;stroke-width:0.5;" width="68" x="713" y="88.1875"/><text fill="#000000" font-family="sans-serif" font-size="14" lengthAdjust="spacing" textLength="54" x="720" y="109.7207">&#171;model&#187;</text><text fill="#000000" font-family="sans-serif" font-size="14" lengthAdjust="spacing" textLength="33" x="730.5" y="127.3301">:User</text><rect fill="#E2E2F0" height="49.2188" rx="2.5" ry="2.5" style="stroke:#181818;stroke-width:0.5;" width="68" x="713" y="613.6484"/><text fill="#000000" font-family="sans-serif" font-size="14" lengthAdjust="spacing" textLength="54" x="720" y="635.1816">&#171;model&#187;</text><text fill="#000000" font-family="sans-serif" font-size="14" lengthAdjust="spacing" textLength="33" x="730.5" y="652.791">:User</text><text fill="#000000" font-family="sans-serif" font-size="14" lengthAdjust="spacing" textLength="78" x="811" y="117.7207">&#171;MongoDB&#187;</text><text fill="#000000" font-family="sans-serif" font-size="14" lengthAdjust="spacing" textLength="39" x="830.5" y="135.3301">:users</text><path d="M835,67.1875 C835,57.1875 853,57.1875 853,57.1875 C853,57.1875 871,57.1875 871,67.1875 L871,93.1875 C871,103.1875 853,103.1875 853,103.1875 C853,103.1875 835,103.1875 835,93.1875 L835,67.1875 " fill="#E2E2F0" style="stroke:#181818;stroke-width:1.5;"/><path d="M835,67.1875 C835,77.1875 853,77.1875 853,77.1875 C853,77.1875 871,77.1875 871,67.1875 " fill="none" style="stroke:#181818;stroke-width:1.5;"/><text fill="#000000" font-family="sans-serif" font-size="14" lengthAdjust="spacing" textLength="78" x="811" y="628.1816">&#171;MongoDB&#187;</text><text fill="#000000" font-family="sans-serif" font-size="14" lengthAdjust="spacing" textLength="39" x="830.5" y="645.791">:users</text><path d="M835,658.8672 C835,648.8672 853,648.8672 853,648.8672 C853,648.8672 871,648.8672 871,658.8672 L871,684.8672 C871,694.8672 853,694.8672 853,694.8672 C853,694.8672 835,694.8672 835,684.8672 L835,658.8672 " fill="#E2E2F0" style="stroke:#181818;stroke-width:1.5;"/><path d="M835,658.8672 C835,668.8672 853,668.8672 853,668.8672 C853,668.8672 871,668.8672 871,658.8672 " fill="none" style="stroke:#181818;stroke-width:1.5;"/><rect fill="#FFFFFF" height="434.8906" style="stroke:#181818;stroke-width:1.0;" width="10" x="230" y="170.7578"/><rect fill="#FFFFFF" height="404.5391" style="stroke:#181818;stroke-width:1.0;" width="10" x="416" y="201.1094"/><rect fill="#FFFFFF" height="146.7578" style="stroke:#181818;stroke-width:1.0;" width="10" x="508" y="231.4609"/><rect fill="#FFFFFF" height="60.7031" style="stroke:#181818;stroke-width:1.0;" width="10" x="508" y="432.4063"/><rect fill="#FFFFFF" height="35.3516" style="stroke:#181818;stroke-width:1.0;" width="10" x="508" y="547.2969"/><rect fill="#FFFFFF" height="343.8359" style="stroke:#181818;stroke-width:1.0;" width="10" x="742" y="261.8125"/><rect fill="#FFFFFF" height="30.3516" style="stroke:#181818;stroke-width:1.0;" width="10" x="848" y="292.1641"/><polygon fill="#181818" points="218,166.7578,228,170.7578,218,174.7578,222,170.7578" style="stroke:#181818;stroke-width:1.0;"/><line style="stroke:#181818;stroke-width:1.0;" x1="55" x2="224" y1="170.7578" y2="170.7578"/><text fill="#000000" font-family="sans-serif" font-size="13" lengthAdjust="spacing" textLength="156" x="62" y="165.9014">req.post('/api/v1/auth/login')</text><polygon fill="#181818" points="404,197.1094,414,201.1094,404,205.1094,408,201.1094" style="stroke:#181818;stroke-width:1.0;"/><line style="stroke:#181818;stroke-width:1.0;" x1="240" x2="410" y1="201.1094" y2="201.1094"/><text fill="#000000" font-family="sans-serif" font-size="13" lengthAdjust="spacing" textLength="157" x="247" y="196.2529">app.use('/api/v1/auth', auth)</text><polygon fill="#181818" points="496,227.4609,506,231.4609,496,235.4609,500,231.4609" style="stroke:#181818;stroke-width:1.0;"/><line style="stroke:#181818;stroke-width:1.0;" x1="426" x2="502" y1="231.4609" y2="231.4609"/><text fill="#000000" font-family="sans-serif" font-size="13" lengthAdjust="spacing" textLength="35" x="433" y="226.6045">login()</text><polygon fill="#181818" points="730,257.8125,740,261.8125,730,265.8125,734,261.8125" style="stroke:#181818;stroke-width:1.0;"/><line style="stroke:#181818;stroke-width:1.0;" x1="518" x2="736" y1="261.8125" y2="261.8125"/><text fill="#000000" font-family="sans-serif" font-size="13" lengthAdjust="spacing" textLength="205" x="525" y="256.9561">findOne({email}).select('+password')</text><polygon fill="#181818" points="836,288.1641,846,292.1641,836,296.1641,840,292.1641" style="stroke:#181818;stroke-width:1.0;"/><line style="stroke:#181818;stroke-width:1.0;" x1="752" x2="842" y1="292.1641" y2="292.1641"/><text fill="#000000" font-family="sans-serif" font-size="13" lengthAdjust="spacing" textLength="68" x="759" y="287.3076">query users</text><polygon fill="#181818" points="763,318.5156,753,322.5156,763,326.5156,759,322.5156" style="stroke:#181818;stroke-width:1.0;"/><line style="stroke:#181818;stroke-width:1.0;stroke-dasharray:2.0,2.0;" x1="757" x2="852" y1="322.5156" y2="322.5156"/><text fill="#000000" font-family="sans-serif" font-size="13" lengthAdjust="spacing" textLength="72" x="769" y="317.6592">user (or null)</text><path d="M10,337.5156 L71,337.5156 L71,345.8672 L61,355.8672 L10,355.8672 L10,337.5156 " fill="#EEEEEE" style="stroke:#000000;stroke-width:1.5;"/><rect fill="none" height="260.1328" style="stroke:#000000;stroke-width:1.5;" width="691" x="10" y="337.5156"/><text fill="#000000" font-family="sans-serif" font-size="13" font-weight="bold" lengthAdjust="spacing" textLength="16" x="25" y="352.0107">alt</text><text fill="#000000" font-family="sans-serif" font-size="11" font-weight="bold" lengthAdjust="spacing" textLength="90" x="86" y="350.9346">[user not found]</text><polygon fill="#181818" points="66,374.2188,56,378.2188,66,382.2188,62,378.2188" style="stroke:#181818;stroke-width:1.0;"/><line style="stroke:#181818;stroke-width:1.0;" x1="60" x2="512" y1="378.2188" y2="378.2188"/><text fill="#000000" font-family="sans-serif" font-size="13" lengthAdjust="spacing" textLength="127" x="72" y="373.3623">400 Invalid credentials</text><line style="stroke:#000000;stroke-width:1.0;stroke-dasharray:2.0,2.0;" x1="10" x2="701" y1="387.2188" y2="387.2188"/><text fill="#000000" font-family="sans-serif" font-size="11" font-weight="bold" lengthAdjust="spacing" textLength="69" x="15" y="398.6377">[user found]</text><line style="stroke:#181818;stroke-width:1.0;" x1="513" x2="560" y1="419.4063" y2="419.4063"/><line style="stroke:#181818;stroke-width:1.0;" x1="560" x2="560" y1="419.4063" y2="432.4063"/><line style="stroke:#181818;stroke-width:1.0;" x1="519" x2="560" y1="432.4063" y2="432.4063"/><polygon fill="#181818" points="529,428.4063,519,432.4063,529,436.4063,525,432.4063" style="stroke:#181818;stroke-width:1.0;"/><text fill="#000000" font-family="sans-serif" font-size="13" lengthAdjust="spacing" textLength="156" x="525" y="414.5498">matchPassword(password)</text><path d="M20,452.4063 L81,452.4063 L81,460.7578 L71,470.7578 L20,470.7578 L20,452.4063 " fill="#EEEEEE" style="stroke:#000000;stroke-width:1.5;"/><rect fill="none" height="138.2422" style="stroke:#000000;stroke-width:1.5;" width="671" x="20" y="452.4063"/><text fill="#000000" font-family="sans-serif" font-size="13" font-weight="bold" lengthAdjust="spacing" textLength="16" x="35" y="466.9014">alt</text><text fill="#000000" font-family="sans-serif" font-size="11" font-weight="bold" lengthAdjust="spacing" textLength="122" x="96" y="465.8252">[password not match]</text><polygon fill="#181818" points="66,489.1094,56,493.1094,66,497.1094,62,493.1094" style="stroke:#181818;stroke-width:1.0;"/><line style="stroke:#181818;stroke-width:1.0;" x1="60" x2="512" y1="493.1094" y2="493.1094"/><text fill="#000000" font-family="sans-serif" font-size="13" lengthAdjust="spacing" textLength="127" x="72" y="488.2529">401 Invalid credentials</text><line style="stroke:#000000;stroke-width:1.0;stroke-dasharray:2.0,2.0;" x1="20" x2="691" y1="502.1094" y2="502.1094"/><text fill="#000000" font-family="sans-serif" font-size="11" font-weight="bold" lengthAdjust="spacing" textLength="101" x="25" y="513.5283">[password match]</text><line style="stroke:#181818;stroke-width:1.0;" x1="513" x2="560" y1="534.2969" y2="534.2969"/><line style="stroke:#181818;stroke-width:1.0;" x1="560" x2="560" y1="534.2969" y2="547.2969"/><line style="stroke:#181818;stroke-width:1.0;" x1="519" x2="560" y1="547.2969" y2="547.2969"/><polygon fill="#181818" points="529,543.2969,519,547.2969,529,551.2969,525,547.2969" style="stroke:#181818;stroke-width:1.0;"/><text fill="#000000" font-family="sans-serif" font-size="13" lengthAdjust="spacing" textLength="154" x="525" y="529.4404">sendTokenResponse(user)</text><polygon fill="#181818" points="66,578.6484,56,582.6484,66,586.6484,62,582.6484" style="stroke:#181818;stroke-width:1.0;"/><line style="stroke:#181818;stroke-width:1.0;" x1="60" x2="512" y1="582.6484" y2="582.6484"/><text fill="#000000" font-family="sans-serif" font-size="13" lengthAdjust="spacing" textLength="154" x="72" y="577.792">response {success, token}</text><text fill="#888888" font-family="sans-serif" font-size="10" lengthAdjust="spacing" textLength="183" x="716" y="15.3809">Sample Coworking Sequence Diagram</text><!--SRC=[XP91RnCn48Nl_XMZNBAhT9DMuXHLAq5pGGAr8kN6PR2dYQdNTcrl4Ahwtx5dqv0DWHvMQtk-Dtvlv2sXeW1hxBmXk74_NNZKTWDhUkh9IeALnat0JYITCZ3vv3RQGdLtkxwl9q9u34bBxT4ccDmOJJPD02D8NexBrzS_S8Th6RHFRVlDBYE57GNcX-Kf7roVA32BVTeoEPozpzjJMZgRWZE6GXnBZWhdT9rJP5ZnDUxjy57P2OK9lsEa0dvsTkDM7nZjSp4oMx2uscD23CcRTaW4izaI0ZtDlOkfcYxGwyNkQb6iBKmPvRGM0zcqVvAn2hsVvrl6eka5b5yjZk2cFKt8UcvVrUAarhI7S8mzQAjkBLNFrA4sB_KyaY6PlSuynfYVWyeM3vAc7SNb3lcXX5_00n6ZQdDyLzCicO7A1R2zCRKGQD9mPbs21zTR9G3-yZjCb1kykxo4ZtQ7HYkGWLG-rsYY89EzSAT_TpapeWwJtDxjOrQlUUiiByvUz-oEqLnuoz_LMNy0xF3GyN_TplYCPDMzUoJxXQ9tDZ-AahL-qqxOu_0SUoafnWj8fSrBCPJ7LBxV]--></g></svg>