<?xml version="1.0" encoding="us-ascii" standalone="no"?><svg xmlns="http://www.w3.org/2000/svg" xmlns:xlink="http://www.w3.org/1999/xlink" contentStyleType="text/css" height="362px" preserveAspectRatio="none" style="width:656px;height:362px;background:#FFFFFF;" version="1.1" viewBox="0 0 656 362" width="656px" zoomAndPan="magnify"><defs/><g><text fill="#000000" font-family="sans-serif" font-size="14" font-weight="bold" lengthAdjust="spacing" textLength="91" x="278.5" y="43.1113">Logout (GET)</text><rect fill="#FFFFFF" height="159.7578" style="stroke:#181818;stroke-width:1.0;" width="10" x="206" y="139.7578"/><rect fill="#FFFFFF" height="129.4063" style="stroke:#181818;stroke-width:1.0;" width="10" x="392" y="170.1094"/><rect fill="#FFFFFF" height="99.0547" style="stroke:#181818;stroke-width:1.0;" width="10" x="484" y="200.4609"/><rect fill="#FFFFFF" height="35.3516" style="stroke:#181818;stroke-width:1.0;" width="10" x="489" y="255.1641"/><line style="stroke:#181818;stroke-width:0.5;stroke-dasharray:5.0,5.0;" x1="30" x2="30" y1="107.4063" y2="308.5156"/><line style="stroke:#181818;stroke-width:0.5;stroke-dasharray:5.0,5.0;" x1="211" x2="211" y1="107.4063" y2="308.5156"/><line style="stroke:#181818;stroke-width:0.5;stroke-dasharray:5.0,5.0;" x1="397" x2="397" y1="107.4063" y2="308.5156"/><line style="stroke:#181818;stroke-width:0.5;stroke-dasharray:5.0,5.0;" x1="489" x2="489" y1="107.4063" y2="308.5156"/><rect fill="#E2E2F0" height="31.6094" rx="2.5" ry="2.5" style="stroke:#181818;stroke-width:0.5;" width="50" x="5" y="74.7969"/><text fill="#000000" font-family="sans-serif" font-size="14" lengthAdjust="spacing" textLength="36" x="12" y="96.3301">Client</text><rect fill="#E2E2F0" height="31.6094" rx="2.5" ry="2.5" style="stroke:#181818;stroke-width:0.5;" width="50" x="5" y="307.5156"/><text fill="#000000" font-family="sans-serif" font-size="14" lengthAdjust="spacing" textLength="36" x="12" y="329.0488">Client</text><rect fill="#E2E2F0" height="49.2188" rx="2.5" ry="2.5" style="stroke:#181818;stroke-width:0.5;" width="92" x="165" y="57.1875"/><text fill="#000000" font-family="sans-serif" font-size="14" lengthAdjust="spacing" textLength="78" x="172" y="78.7207">&#171;javaScript&#187;</text><text fill="#000000" font-family="sans-serif" font-size="14" lengthAdjust="spacing" textLength="44" x="189" y="96.3301">:server</text><rect fill="#E2E2F0" height="49.2188" rx="2.5" ry="2.5" style="stroke:#181818;stroke-width:0.5;" width="92" x="165" y="307.5156"/><text fill="#000000" font-family="sans-serif" font-size="14" lengthAdjust="spacing" textLength="78" x="172" y="329.0488">&#171;javaScript&#187;</text><text fill="#000000" font-family="sans-serif" font-size="14" lengthAdjust="spacing" textLength="44" x="189" y="346.6582">:server</text><rect fill="#E2E2F0" height="49.2188" rx="2.5" ry="2.5" style="stroke:#181818;stroke-width:0.5;" width="68" x="363" y="57.1875"/><text fill="#000000" font-family="sans-serif" font-size="14" lengthAdjust="spacing" textLength="54" x="370" y="78.7207">&#171;router&#187;</text><text fill="#000000" font-family="sans-serif" font-size="14" lengthAdjust="spacing" textLength="32" x="381" y="96.3301">:auth</text><rect fill="#E2E2F0" height="49.2188" rx="2.5" ry="2.5" style="stroke:#181818;stroke-width:0.5;" width="68" x="363" y="307.5156"/><text fill="#000000" font-family="sans-serif" font-size="14" lengthAdjust="spacing" textLength="54" x="370" y="329.0488">&#171;router&#187;</text><text fill="#000000" font-family="sans-serif" font-size="14" lengthAdjust="spacing" textLength="32" x="381" y="346.6582">:auth</text><rect fill="#E2E2F0" height="49.2188" rx="2.5" ry="2.5" style="stroke:#181818;stroke-width:0.5;" width="96" x="441" y="57.1875"/><text fill="#000000" font-family="sans-serif" font-size="14" lengthAdjust="spacing" textLength="82" x="448" y="78.7207">&#171;controllers&#187;</text><text fill="#000000" font-family="sans-serif" font-size="14" lengthAdjust="spacing" textLength="32" x="473" y="96.3301">:auth</text><rect fill="#E2E2F0" height="49.2188" rx="2.5" ry="2.5" style="stroke:#181818;stroke-width:0.5;" width="96" x="441" y="307.5156"/><text fill="#000000" font-family="sans-serif" font-size="14" lengthAdjust="spacing" textLength="82" x="448" y="329.0488">&#171;controllers&#187;</text><text fill="#000000" font-family="sans-serif" font-size="14" lengthAdjust="spacing" textLength="32" x="473" y="346.6582">:auth</text><rect fill="#FFFFFF" height="159.7578" style="stroke:#181818;stroke-width:1.0;" width="10" x="206" y="139.7578"/><rect fill="#FFFFFF" height="129.4063" style="stroke:#181818;stroke-width:1.0;" width="10" x="392" y="170.1094"/><rect fill="#FFFFFF" height="99.0547" style="stroke:#181818;stroke-width:1.0;" width="10" x="484" y="200.4609"/><rect fill="#FFFFFF" height="35.3516" style="stroke:#181818;stroke-width:1.0;" width="10" x="489" y="255.1641"/><polygon fill="#181818" points="194,135.7578,204,139.7578,194,143.7578,198,139.7578" style="stroke:#181818;stroke-width:1.0;"/><line style="stroke:#181818;stroke-width:1.0;" x1="30" x2="200" y1="139.7578" y2="139.7578"/><text fill="#000000" font-family="sans-serif" font-size="13" lengthAdjust="spacing" textLength="157" x="37" y="134.9014">req.get('/api/v1/auth/logout')</text><polygon fill="#181818" points="380,166.1094,390,170.1094,380,174.1094,384,170.1094" style="stroke:#181818;stroke-width:1.0;"/><line style="stroke:#181818;stroke-width:1.0;" x1="216" x2="386" y1="170.1094" y2="170.1094"/><text fill="#000000" font-family="sans-serif" font-size="13" lengthAdjust="spacing" textLength="157" x="223" y="165.2529">app.use('/api/v1/auth', auth)</text><polygon fill="#181818" points="472,196.4609,482,200.4609,472,204.4609,476,200.4609" style="stroke:#181818;stroke-width:1.0;"/><line style="stroke:#181818;stroke-width:1.0;" x1="402" x2="478" y1="200.4609" y2="200.4609"/><text fill="#000000" font-family="sans-serif" font-size="13" lengthAdjust="spacing" textLength="43" x="409" y="195.6045">logout()</text><line style="stroke:#181818;stroke-width:1.0;" x1="494" x2="541" y1="242.1641" y2="242.1641"/><line style="stroke:#181818;stroke-width:1.0;" x1="541" x2="541" y1="242.1641" y2="255.1641"/><line style="stroke:#181818;stroke-width:1.0;" x1="500" x2="541" y1="255.1641" y2="255.1641"/><polygon fill="#181818" points="510,251.1641,500,255.1641,510,259.1641,506,255.1641" style="stroke:#181818;stroke-width:1.0;"/><text fill="#000000" font-family="sans-serif" font-size="13" lengthAdjust="spacing" textLength="136" x="506" y="220.9561">set cookie token='none'</text><text fill="#000000" font-family="sans-serif" font-size="13" lengthAdjust="spacing" textLength="125" x="506" y="237.3076">expire in few seconds</text><polygon fill="#181818" points="41,286.5156,31,290.5156,41,294.5156,37,290.5156" style="stroke:#181818;stroke-width:1.0;"/><line style="stroke:#181818;stroke-width:1.0;" x1="35" x2="483" y1="290.5156" y2="290.5156"/><text fill="#000000" font-family="sans-serif" font-size="13" lengthAdjust="spacing" textLength="184" x="47" y="285.6592">200 response {success, data:{}}</text><text fill="#888888" font-family="sans-serif" font-size="10" lengthAdjust="spacing" textLength="183" x="465" y="15.3809">Sample Coworking Sequence Diagram</text><!--SRC=[ROyzRy8m48Pt_ufJbYI24Denef4gMdNfHaUMaxa6Dy4szYLKGlpt6cUWGKp-kEUvktTFk2C76ppOZc1jJiQrIZUmeMDFMXAyAMmS7WGh3a3oQHhJCsGVxrzv8eH5nqegYveXMNUAD2U07cIyJikhrGyEk95EMQxhhQuykO5SvCVhFU_2A7AHnPxtaHp_NiFpdfP6ipDTHyvFbN-5w8bnkw8Ufy9iLe6Zuw8Xpj8IhIg7f_9gbrrCc-PY98lwDZrQQEsYzpIrqZbSZrpSuAA-so7QO_Si3mjDguznJnoYc5OHi6b9lwJQQ4gtcdwjSWHAmpUT0XRadN_GCwQ6egZWURaCYRqrsXESVIybUJ-77J9Mvyj5_040]--></g></svg>