<?xml version="1.0" encoding="us-ascii" standalone="no"?><svg xmlns="http://www.w3.org/2000/svg" xmlns:xlink="http://www.w3.org/1999/xlink" contentStyleType="text/css" height="541px" preserveAspectRatio="none" style="width:840px;height:541px;background:#FFFFFF;" version="1.1" viewBox="0 0 840 541" width="840px" zoomAndPan="magnify"><defs/><g><text fill="#000000" font-family="sans-serif" font-size="14" font-weight="bold" lengthAdjust="spacing" textLength="111" x="360.5" y="43.1113">Register (POST)</text><rect fill="#FFFFFF" height="264.8125" style="stroke:#181818;stroke-width:1.0;" width="10" x="221" y="170.7578"/><rect fill="#FFFFFF" height="234.4609" style="stroke:#181818;stroke-width:1.0;" width="10" x="407" y="201.1094"/><rect fill="#FFFFFF" height="204.1094" style="stroke:#181818;stroke-width:1.0;" width="10" x="499" y="231.4609"/><rect fill="#FFFFFF" height="35.3516" style="stroke:#181818;stroke-width:1.0;" width="10" x="504" y="391.2188"/><rect fill="#FFFFFF" height="91.0547" style="stroke:#181818;stroke-width:1.0;" width="10" x="677" y="261.8125"/><rect fill="#FFFFFF" height="30.3516" style="stroke:#181818;stroke-width:1.0;" width="10" x="781" y="292.1641"/><line style="stroke:#181818;stroke-width:0.5;stroke-dasharray:5.0,5.0;" x1="30" x2="30" y1="138.4063" y2="444.5703"/><line style="stroke:#181818;stroke-width:0.5;stroke-dasharray:5.0,5.0;" x1="226" x2="226" y1="138.4063" y2="444.5703"/><line style="stroke:#181818;stroke-width:0.5;stroke-dasharray:5.0,5.0;" x1="412" x2="412" y1="138.4063" y2="444.5703"/><line style="stroke:#181818;stroke-width:0.5;stroke-dasharray:5.0,5.0;" x1="504" x2="504" y1="138.4063" y2="444.5703"/><line style="stroke:#181818;stroke-width:0.5;stroke-dasharray:5.0,5.0;" x1="682" x2="682" y1="138.4063" y2="444.5703"/><line style="stroke:#181818;stroke-width:0.5;stroke-dasharray:5.0,5.0;" x1="786" x2="786" y1="138.4063" y2="444.5703"/><rect fill="#E2E2F0" height="31.6094" rx="2.5" ry="2.5" style="stroke:#181818;stroke-width:0.5;" width="50" x="5" y="105.7969"/><text fill="#000000" font-family="sans-serif" font-size="14" lengthAdjust="spacing" textLength="36" x="12" y="127.3301">Client</text><rect fill="#E2E2F0" height="31.6094" rx="2.5" ry="2.5" style="stroke:#181818;stroke-width:0.5;" width="50" x="5" y="443.5703"/><text fill="#000000" font-family="sans-serif" font-size="14" lengthAdjust="spacing" textLength="36" x="12" y="465.1035">Client</text><rect fill="#E2E2F0" height="49.2188" rx="2.5" ry="2.5" style="stroke:#181818;stroke-width:0.5;" width="92" x="180" y="88.1875"/><text fill="#000000" font-family="sans-serif" font-size="14" lengthAdjust="spacing" textLength="78" x="187" y="109.7207">&#171;javaScript&#187;</text><text fill="#000000" font-family="sans-serif" font-size="14" lengthAdjust="spacing" textLength="44" x="204" y="127.3301">:server</text><rect fill="#E2E2F0" height="49.2188" rx="2.5" ry="2.5" style="stroke:#181818;stroke-width:0.5;" width="92" x="180" y="443.5703"/><text fill="#000000" font-family="sans-serif" font-size="14" lengthAdjust="spacing" textLength="78" x="187" y="465.1035">&#171;javaScript&#187;</text><text fill="#000000" font-family="sans-serif" font-size="14" lengthAdjust="spacing" textLength="44" x="204" y="482.7129">:server</text><rect fill="#E2E2F0" height="49.2188" rx="2.5" ry="2.5" style="stroke:#181818;stroke-width:0.5;" width="68" x="378" y="88.1875"/><text fill="#000000" font-family="sans-serif" font-size="14" lengthAdjust="spacing" textLength="54" x="385" y="109.7207">&#171;router&#187;</text><text fill="#000000" font-family="sans-serif" font-size="14" lengthAdjust="spacing" textLength="32" x="396" y="127.3301">:auth</text><rect fill="#E2E2F0" height="49.2188" rx="2.5" ry="2.5" style="stroke:#181818;stroke-width:0.5;" width="68" x="378" y="443.5703"/><text fill="#000000" font-family="sans-serif" font-size="14" lengthAdjust="spacing" textLength="54" x="385" y="465.1035">&#171;router&#187;</text><text fill="#000000" font-family="sans-serif" font-size="14" lengthAdjust="spacing" textLength="32" x="396" y="482.7129">:auth</text><rect fill="#E2E2F0" height="49.2188" rx="2.5" ry="2.5" style="stroke:#181818;stroke-width:0.5;" width="96" x="456" y="88.1875"/><text fill="#000000" font-family="sans-serif" font-size="14" lengthAdjust="spacing" textLength="82" x="463" y="109.7207">&#171;controllers&#187;</text><text fill="#000000" font-family="sans-serif" font-size="14" lengthAdjust="spacing" textLength="32" x="488" y="127.3301">:auth</text><rect fill="#E2E2F0" height="49.2188" rx="2.5" ry="2.5" style="stroke:#181818;stroke-width:0.5;" width="96" x="456" y="443.5703"/><text fill="#000000" font-family="sans-serif" font-size="14" lengthAdjust="spacing" textLength="82" x="463" y="465.1035">&#171;controllers&#187;</text><text fill="#000000" font-family="sans-serif" font-size="14" lengthAdjust="spacing" textLength="32" x="488" y="482.7129">:auth</text><rect fill="#E2E2F0" height="49.2188" rx="2.5" ry="2.5" style="stroke:#181818;stroke-width:0.5;" width="68" x="648" y="88.1875"/><text fill="#000000" font-family="sans-serif" font-size="14" lengthAdjust="spacing" textLength="54" x="655" y="109.7207">&#171;model&#187;</text><text fill="#000000" font-family="sans-serif" font-size="14" lengthAdjust="spacing" textLength="33" x="665.5" y="127.3301">:User</text><rect fill="#E2E2F0" height="49.2188" rx="2.5" ry="2.5" style="stroke:#181818;stroke-width:0.5;" width="68" x="648" y="443.5703"/><text fill="#000000" font-family="sans-serif" font-size="14" lengthAdjust="spacing" textLength="54" x="655" y="465.1035">&#171;model&#187;</text><text fill="#000000" font-family="sans-serif" font-size="14" lengthAdjust="spacing" textLength="33" x="665.5" y="482.7129">:User</text><text fill="#000000" font-family="sans-serif" font-size="14" lengthAdjust="spacing" textLength="78" x="744" y="117.7207">&#171;MongoDB&#187;</text><text fill="#000000" font-family="sans-serif" font-size="14" lengthAdjust="spacing" textLength="39" x="763.5" y="135.3301">:users</text><path d="M768,67.1875 C768,57.1875 786,57.1875 786,57.1875 C786,57.1875 804,57.1875 804,67.1875 L804,93.1875 C804,103.1875 786,103.1875 786,103.1875 C786,103.1875 768,103.1875 768,93.1875 L768,67.1875 " fill="#E2E2F0" style="stroke:#181818;stroke-width:1.5;"/><path d="M768,67.1875 C768,77.1875 786,77.1875 786,77.1875 C786,77.1875 804,77.1875 804,67.1875 " fill="none" style="stroke:#181818;stroke-width:1.5;"/><text fill="#000000" font-family="sans-serif" font-size="14" lengthAdjust="spacing" textLength="78" x="744" y="458.1035">&#171;MongoDB&#187;</text><text fill="#000000" font-family="sans-serif" font-size="14" lengthAdjust="spacing" textLength="39" x="763.5" y="475.7129">:users</text><path d="M768,488.7891 C768,478.7891 786,478.7891 786,478.7891 C786,478.7891 804,478.7891 804,488.7891 L804,514.7891 C804,524.7891 786,524.7891 786,524.7891 C786,524.7891 768,524.7891 768,514.7891 L768,488.7891 " fill="#E2E2F0" style="stroke:#181818;stroke-width:1.5;"/><path d="M768,488.7891 C768,498.7891 786,498.7891 786,498.7891 C786,498.7891 804,498.7891 804,488.7891 " fill="none" style="stroke:#181818;stroke-width:1.5;"/><rect fill="#FFFFFF" height="264.8125" style="stroke:#181818;stroke-width:1.0;" width="10" x="221" y="170.7578"/><rect fill="#FFFFFF" height="234.4609" style="stroke:#181818;stroke-width:1.0;" width="10" x="407" y="201.1094"/><rect fill="#FFFFFF" height="204.1094" style="stroke:#181818;stroke-width:1.0;" width="10" x="499" y="231.4609"/><rect fill="#FFFFFF" height="35.3516" style="stroke:#181818;stroke-width:1.0;" width="10" x="504" y="391.2188"/><rect fill="#FFFFFF" height="91.0547" style="stroke:#181818;stroke-width:1.0;" width="10" x="677" y="261.8125"/><rect fill="#FFFFFF" height="30.3516" style="stroke:#181818;stroke-width:1.0;" width="10" x="781" y="292.1641"/><polygon fill="#181818" points="209,166.7578,219,170.7578,209,174.7578,213,170.7578" style="stroke:#181818;stroke-width:1.0;"/><line style="stroke:#181818;stroke-width:1.0;" x1="30" x2="215" y1="170.7578" y2="170.7578"/><text fill="#000000" font-family="sans-serif" font-size="13" lengthAdjust="spacing" textLength="172" x="37" y="165.9014">req.post('/api/v1/auth/register')</text><polygon fill="#181818" points="395,197.1094,405,201.1094,395,205.1094,399,201.1094" style="stroke:#181818;stroke-width:1.0;"/><line style="stroke:#181818;stroke-width:1.0;" x1="231" x2="401" y1="201.1094" y2="201.1094"/><text fill="#000000" font-family="sans-serif" font-size="13" lengthAdjust="spacing" textLength="157" x="238" y="196.2529">app.use('/api/v1/auth', auth)</text><polygon fill="#181818" points="487,227.4609,497,231.4609,487,235.4609,491,231.4609" style="stroke:#181818;stroke-width:1.0;"/><line style="stroke:#181818;stroke-width:1.0;" x1="417" x2="493" y1="231.4609" y2="231.4609"/><text fill="#000000" font-family="sans-serif" font-size="13" lengthAdjust="spacing" textLength="51" x="424" y="226.6045">register()</text><polygon fill="#181818" points="665,257.8125,675,261.8125,665,265.8125,669,261.8125" style="stroke:#181818;stroke-width:1.0;"/><line style="stroke:#181818;stroke-width:1.0;" x1="509" x2="671" y1="261.8125" y2="261.8125"/><text fill="#000000" font-family="sans-serif" font-size="13" lengthAdjust="spacing" textLength="94" x="516" y="256.9561">create(req.body)</text><polygon fill="#181818" points="769,288.1641,779,292.1641,769,296.1641,773,292.1641" style="stroke:#181818;stroke-width:1.0;"/><line style="stroke:#181818;stroke-width:1.0;" x1="687" x2="775" y1="292.1641" y2="292.1641"/><text fill="#000000" font-family="sans-serif" font-size="13" lengthAdjust="spacing" textLength="75" x="694" y="287.3076">UserSchema</text><polygon fill="#181818" points="698,318.5156,688,322.5156,698,326.5156,694,322.5156" style="stroke:#181818;stroke-width:1.0;"/><line style="stroke:#181818;stroke-width:1.0;stroke-dasharray:2.0,2.0;" x1="692" x2="785" y1="322.5156" y2="322.5156"/><text fill="#000000" font-family="sans-serif" font-size="13" lengthAdjust="spacing" textLength="25" x="704" y="317.6592">user</text><polygon fill="#181818" points="520,348.8672,510,352.8672,520,356.8672,516,352.8672" style="stroke:#181818;stroke-width:1.0;"/><line style="stroke:#181818;stroke-width:1.0;stroke-dasharray:2.0,2.0;" x1="514" x2="681" y1="352.8672" y2="352.8672"/><text fill="#000000" font-family="sans-serif" font-size="13" lengthAdjust="spacing" textLength="25" x="526" y="348.0107">user</text><line style="stroke:#181818;stroke-width:1.0;" x1="509" x2="556" y1="378.2188" y2="378.2188"/><line style="stroke:#181818;stroke-width:1.0;" x1="556" x2="556" y1="378.2188" y2="391.2188"/><line style="stroke:#181818;stroke-width:1.0;" x1="515" x2="556" y1="391.2188" y2="391.2188"/><polygon fill="#181818" points="525,387.2188,515,391.2188,525,395.2188,521,391.2188" style="stroke:#181818;stroke-width:1.0;"/><text fill="#000000" font-family="sans-serif" font-size="13" lengthAdjust="spacing" textLength="154" x="521" y="373.3623">sendTokenResponse(user)</text><polygon fill="#181818" points="41,422.5703,31,426.5703,41,430.5703,37,426.5703" style="stroke:#181818;stroke-width:1.0;"/><line style="stroke:#181818;stroke-width:1.0;" x1="35" x2="498" y1="426.5703" y2="426.5703"/><text fill="#000000" font-family="sans-serif" font-size="13" lengthAdjust="spacing" textLength="154" x="47" y="421.7139">response {success, token}</text><text fill="#888888" font-family="sans-serif" font-size="10" lengthAdjust="spacing" textLength="183" x="649" y="15.3809">Sample Coworking Sequence Diagram</text><!--SRC=[ZP4nJyCm48Lt_mehInErRiHQLP6WNH6eAHlBrJcbfedjsauHGlntR2U29YeIK-nxtxkxvnmHAZIqX5OtI3VgNPcJa3KjyToXv4Yt0ce3BN72UI3POIsiyuxq-QdSPmaX6emJN6YGZYQRHg1q2GLBUJoEvVNw3IvGSYEqAufNkR9eBcWYtn-dl56TdnPPwDmnadtjtb-dD5VI6TKqQEpOSYNSyhMgmYOwNkomJYo56wd0mG4i1l1HoLfj7oBQUT56Dc1sEs24zCbPqIUYy_cA6ZmljR8kdUMWHNwvoyDgkHbUSvQH7cR5RxXe1AsNVj3ODrlGyCd85SoAQSXXS3yXpSX4PiLFn4XoW-0m3PiULFMHaL_Pznv5Z7oebFo8BP2no3n-vMKh6bvgEfwk6ViFzaSkYxBQgnFA7Lgjf7-XuBuHilyPiRyPKFffEyxHsWLreSKN-GO0]--></g></svg>