<?xml version="1.0" encoding="us-ascii" standalone="no"?><svg xmlns="http://www.w3.org/2000/svg" xmlns:xlink="http://www.w3.org/1999/xlink" contentStyleType="text/css" height="559px" preserveAspectRatio="none" style="width:1268px;height:559px;background:#FFFFFF;" version="1.1" viewBox="0 0 1268 559" width="1268px" zoomAndPan="magnify"><defs/><g><text fill="#000000" font-family="sans-serif" font-size="14" font-weight="bold" lengthAdjust="spacing" textLength="277" x="491.75" y="43.1113">Create CoworkingSpace (POST) [Admin]</text><rect fill="#FFFFFF" height="282.1641" style="stroke:#181818;stroke-width:1.0;" width="10" x="249" y="170.7578"/><rect fill="#FFFFFF" height="251.8125" style="stroke:#181818;stroke-width:1.0;" width="10" x="580" y="201.1094"/><rect fill="#FFFFFF" height="30.3516" style="stroke:#181818;stroke-width:1.0;" width="10" x="765" y="231.4609"/><rect fill="#FFFFFF" height="151.7578" style="stroke:#181818;stroke-width:1.0;" width="10" x="886" y="292.1641"/><rect fill="#FFFFFF" height="91.0547" style="stroke:#181818;stroke-width:1.0;" width="10" x="1018.5" y="322.5156"/><rect fill="#FFFFFF" height="30.3516" style="stroke:#181818;stroke-width:1.0;" width="10" x="1192.5" y="352.8672"/><line style="stroke:#181818;stroke-width:0.5;stroke-dasharray:5.0,5.0;" x1="30" x2="30" y1="138.4063" y2="461.9219"/><line style="stroke:#181818;stroke-width:0.5;stroke-dasharray:5.0,5.0;" x1="254" x2="254" y1="138.4063" y2="461.9219"/><line style="stroke:#181818;stroke-width:0.5;stroke-dasharray:5.0,5.0;" x1="585" x2="585" y1="138.4063" y2="461.9219"/><line style="stroke:#181818;stroke-width:0.5;stroke-dasharray:5.0,5.0;" x1="769.5" x2="769.5" y1="138.4063" y2="461.9219"/><line style="stroke:#181818;stroke-width:0.5;stroke-dasharray:5.0,5.0;" x1="890.5" x2="890.5" y1="138.4063" y2="461.9219"/><line style="stroke:#181818;stroke-width:0.5;stroke-dasharray:5.0,5.0;" x1="1023.5" x2="1023.5" y1="138.4063" y2="461.9219"/><line style="stroke:#181818;stroke-width:0.5;stroke-dasharray:5.0,5.0;" x1="1197.5" x2="1197.5" y1="138.4063" y2="461.9219"/><rect fill="#E2E2F0" height="31.6094" rx="2.5" ry="2.5" style="stroke:#181818;stroke-width:0.5;" width="50" x="5" y="105.7969"/><text fill="#000000" font-family="sans-serif" font-size="14" lengthAdjust="spacing" textLength="36" x="12" y="127.3301">Client</text><rect fill="#E2E2F0" height="31.6094" rx="2.5" ry="2.5" style="stroke:#181818;stroke-width:0.5;" width="50" x="5" y="460.9219"/><text fill="#000000" font-family="sans-serif" font-size="14" lengthAdjust="spacing" textLength="36" x="12" y="482.4551">Client</text><rect fill="#E2E2F0" height="49.2188" rx="2.5" ry="2.5" style="stroke:#181818;stroke-width:0.5;" width="92" x="208" y="88.1875"/><text fill="#000000" font-family="sans-serif" font-size="14" lengthAdjust="spacing" textLength="78" x="215" y="109.7207">&#171;javaScript&#187;</text><text fill="#000000" font-family="sans-serif" font-size="14" lengthAdjust="spacing" textLength="44" x="232" y="127.3301">:server</text><rect fill="#E2E2F0" height="49.2188" rx="2.5" ry="2.5" style="stroke:#181818;stroke-width:0.5;" width="92" x="208" y="460.9219"/><text fill="#000000" font-family="sans-serif" font-size="14" lengthAdjust="spacing" textLength="78" x="215" y="482.4551">&#171;javaScript&#187;</text><text fill="#000000" font-family="sans-serif" font-size="14" lengthAdjust="spacing" textLength="44" x="232" y="500.0645">:server</text><rect fill="#E2E2F0" height="49.2188" rx="2.5" ry="2.5" style="stroke:#181818;stroke-width:0.5;" width="126" x="522" y="88.1875"/><text fill="#000000" font-family="sans-serif" font-size="14" lengthAdjust="spacing" textLength="54" x="558" y="109.7207">&#171;router&#187;</text><text fill="#000000" font-family="sans-serif" font-size="14" lengthAdjust="spacing" textLength="112" x="529" y="127.3301">:coworkingspaces</text><rect fill="#E2E2F0" height="49.2188" rx="2.5" ry="2.5" style="stroke:#181818;stroke-width:0.5;" width="126" x="522" y="460.9219"/><text fill="#000000" font-family="sans-serif" font-size="14" lengthAdjust="spacing" textLength="54" x="558" y="482.4551">&#171;router&#187;</text><text fill="#000000" font-family="sans-serif" font-size="14" lengthAdjust="spacing" textLength="112" x="529" y="500.0645">:coworkingspaces</text><rect fill="#E2E2F0" height="49.2188" rx="2.5" ry="2.5" style="stroke:#181818;stroke-width:0.5;" width="101" x="719.5" y="88.1875"/><text fill="#000000" font-family="sans-serif" font-size="14" lengthAdjust="spacing" textLength="87" x="726.5" y="109.7207">&#171;middleware&#187;</text><text fill="#000000" font-family="sans-serif" font-size="14" lengthAdjust="spacing" textLength="32" x="754" y="127.3301">:auth</text><rect fill="#E2E2F0" height="49.2188" rx="2.5" ry="2.5" style="stroke:#181818;stroke-width:0.5;" width="101" x="719.5" y="460.9219"/><text fill="#000000" font-family="sans-serif" font-size="14" lengthAdjust="spacing" textLength="87" x="726.5" y="482.4551">&#171;middleware&#187;</text><text fill="#000000" font-family="sans-serif" font-size="14" lengthAdjust="spacing" textLength="32" x="754" y="500.0645">:auth</text><rect fill="#E2E2F0" height="49.2188" rx="2.5" ry="2.5" style="stroke:#181818;stroke-width:0.5;" width="121" x="830.5" y="88.1875"/><text fill="#000000" font-family="sans-serif" font-size="14" lengthAdjust="spacing" textLength="82" x="850" y="109.7207">&#171;controllers&#187;</text><text fill="#000000" font-family="sans-serif" font-size="14" lengthAdjust="spacing" textLength="107" x="837.5" y="127.3301">:coworkingSpace</text><rect fill="#E2E2F0" height="49.2188" rx="2.5" ry="2.5" style="stroke:#181818;stroke-width:0.5;" width="121" x="830.5" y="460.9219"/><text fill="#000000" font-family="sans-serif" font-size="14" lengthAdjust="spacing" textLength="82" x="850" y="482.4551">&#171;controllers&#187;</text><text fill="#000000" font-family="sans-serif" font-size="14" lengthAdjust="spacing" textLength="107" x="837.5" y="500.0645">:coworkingSpace</text><rect fill="#E2E2F0" height="49.2188" rx="2.5" ry="2.5" style="stroke:#181818;stroke-width:0.5;" width="124" x="961.5" y="88.1875"/><text fill="#000000" font-family="sans-serif" font-size="14" lengthAdjust="spacing" textLength="54" x="996.5" y="109.7207">&#171;model&#187;</text><text fill="#000000" font-family="sans-serif" font-size="14" lengthAdjust="spacing" textLength="110" x="968.5" y="127.3301">:CoworkingSpace</text><rect fill="#E2E2F0" height="49.2188" rx="2.5" ry="2.5" style="stroke:#181818;stroke-width:0.5;" width="124" x="961.5" y="460.9219"/><text fill="#000000" font-family="sans-serif" font-size="14" lengthAdjust="spacing" textLength="54" x="996.5" y="482.4551">&#171;model&#187;</text><text fill="#000000" font-family="sans-serif" font-size="14" lengthAdjust="spacing" textLength="110" x="968.5" y="500.0645">:CoworkingSpace</text><text fill="#000000" font-family="sans-serif" font-size="14" lengthAdjust="spacing" textLength="78" x="1155.5" y="117.7207">&#171;MongoDB&#187;</text><text fill="#000000" font-family="sans-serif" font-size="14" lengthAdjust="spacing" textLength="112" x="1138.5" y="135.3301">:coworkingspaces</text><path d="M1179.5,67.1875 C1179.5,57.1875 1197.5,57.1875 1197.5,57.1875 C1197.5,57.1875 1215.5,57.1875 1215.5,67.1875 L1215.5,93.1875 C1215.5,103.1875 1197.5,103.1875 1197.5,103.1875 C1197.5,103.1875 1179.5,103.1875 1179.5,93.1875 L1179.5,67.1875 " fill="#E2E2F0" style="stroke:#181818;stroke-width:1.5;"/><path d="M1179.5,67.1875 C1179.5,77.1875 1197.5,77.1875 1197.5,77.1875 C1197.5,77.1875 1215.5,77.1875 1215.5,67.1875 " fill="none" style="stroke:#181818;stroke-width:1.5;"/><text fill="#000000" font-family="sans-serif" font-size="14" lengthAdjust="spacing" textLength="78" x="1155.5" y="475.4551">&#171;MongoDB&#187;</text><text fill="#000000" font-family="sans-serif" font-size="14" lengthAdjust="spacing" textLength="112" x="1138.5" y="493.0645">:coworkingspaces</text><path d="M1179.5,506.1406 C1179.5,496.1406 1197.5,496.1406 1197.5,496.1406 C1197.5,496.1406 1215.5,496.1406 1215.5,506.1406 L1215.5,532.1406 C1215.5,542.1406 1197.5,542.1406 1197.5,542.1406 C1197.5,542.1406 1179.5,542.1406 1179.5,532.1406 L1179.5,506.1406 " fill="#E2E2F0" style="stroke:#181818;stroke-width:1.5;"/><path d="M1179.5,506.1406 C1179.5,516.1406 1197.5,516.1406 1197.5,516.1406 C1197.5,516.1406 1215.5,516.1406 1215.5,506.1406 " fill="none" style="stroke:#181818;stroke-width:1.5;"/><rect fill="#FFFFFF" height="282.1641" style="stroke:#181818;stroke-width:1.0;" width="10" x="249" y="170.7578"/><rect fill="#FFFFFF" height="251.8125" style="stroke:#181818;stroke-width:1.0;" width="10" x="580" y="201.1094"/><rect fill="#FFFFFF" height="30.3516" style="stroke:#181818;stroke-width:1.0;" width="10" x="765" y="231.4609"/><rect fill="#FFFFFF" height="151.7578" style="stroke:#181818;stroke-width:1.0;" width="10" x="886" y="292.1641"/><rect fill="#FFFFFF" height="91.0547" style="stroke:#181818;stroke-width:1.0;" width="10" x="1018.5" y="322.5156"/><rect fill="#FFFFFF" height="30.3516" style="stroke:#181818;stroke-width:1.0;" width="10" x="1192.5" y="352.8672"/><polygon fill="#181818" points="237,166.7578,247,170.7578,237,174.7578,241,170.7578" style="stroke:#181818;stroke-width:1.0;"/><line style="stroke:#181818;stroke-width:1.0;" x1="30" x2="243" y1="170.7578" y2="170.7578"/><text fill="#000000" font-family="sans-serif" font-size="13" lengthAdjust="spacing" textLength="200" x="37" y="165.9014">req.post('/api/v1/coworkingspaces')</text><polygon fill="#181818" points="568,197.1094,578,201.1094,568,205.1094,572,201.1094" style="stroke:#181818;stroke-width:1.0;"/><line style="stroke:#181818;stroke-width:1.0;" x1="259" x2="574" y1="201.1094" y2="201.1094"/><text fill="#000000" font-family="sans-serif" font-size="13" lengthAdjust="spacing" textLength="302" x="266" y="196.2529">app.use('/api/v1/coworkingspaces', coworkingSpace)</text><polygon fill="#181818" points="753,227.4609,763,231.4609,753,235.4609,757,231.4609" style="stroke:#181818;stroke-width:1.0;"/><line style="stroke:#181818;stroke-width:1.0;" x1="590" x2="759" y1="231.4609" y2="231.4609"/><text fill="#000000" font-family="sans-serif" font-size="13" lengthAdjust="spacing" textLength="156" x="597" y="226.6045">protect + authorize('admin')</text><polygon fill="#181818" points="601,257.8125,591,261.8125,601,265.8125,597,261.8125" style="stroke:#181818;stroke-width:1.0;"/><line style="stroke:#181818;stroke-width:1.0;stroke-dasharray:2.0,2.0;" x1="595" x2="769" y1="261.8125" y2="261.8125"/><text fill="#000000" font-family="sans-serif" font-size="13" lengthAdjust="spacing" textLength="33" x="607" y="256.9561">next()</text><polygon fill="#181818" points="874,288.1641,884,292.1641,874,296.1641,878,292.1641" style="stroke:#181818;stroke-width:1.0;"/><line style="stroke:#181818;stroke-width:1.0;" x1="590" x2="880" y1="292.1641" y2="292.1641"/><text fill="#000000" font-family="sans-serif" font-size="13" lengthAdjust="spacing" textLength="141" x="597" y="287.3076">createCoworkingSpace()</text><polygon fill="#181818" points="1006.5,318.5156,1016.5,322.5156,1006.5,326.5156,1010.5,322.5156" style="stroke:#181818;stroke-width:1.0;"/><line style="stroke:#181818;stroke-width:1.0;" x1="896" x2="1012.5" y1="322.5156" y2="322.5156"/><text fill="#000000" font-family="sans-serif" font-size="13" lengthAdjust="spacing" textLength="94" x="903" y="317.6592">create(req.body)</text><polygon fill="#181818" points="1180.5,348.8672,1190.5,352.8672,1180.5,356.8672,1184.5,352.8672" style="stroke:#181818;stroke-width:1.0;"/><line style="stroke:#181818;stroke-width:1.0;" x1="1028.5" x2="1186.5" y1="352.8672" y2="352.8672"/><text fill="#000000" font-family="sans-serif" font-size="13" lengthAdjust="spacing" textLength="145" x="1035.5" y="348.0107">CoworkingSpaceSchema</text><polygon fill="#181818" points="1039.5,379.2188,1029.5,383.2188,1039.5,387.2188,1035.5,383.2188" style="stroke:#181818;stroke-width:1.0;"/><line style="stroke:#181818;stroke-width:1.0;stroke-dasharray:2.0,2.0;" x1="1033.5" x2="1196.5" y1="383.2188" y2="383.2188"/><text fill="#000000" font-family="sans-serif" font-size="13" lengthAdjust="spacing" textLength="95" x="1045.5" y="378.3623">coworkingSpace</text><polygon fill="#181818" points="907,409.5703,897,413.5703,907,417.5703,903,413.5703" style="stroke:#181818;stroke-width:1.0;"/><line style="stroke:#181818;stroke-width:1.0;stroke-dasharray:2.0,2.0;" x1="901" x2="1022.5" y1="413.5703" y2="413.5703"/><text fill="#000000" font-family="sans-serif" font-size="13" lengthAdjust="spacing" textLength="95" x="913" y="408.7139">coworkingSpace</text><polygon fill="#181818" points="41,439.9219,31,443.9219,41,447.9219,37,443.9219" style="stroke:#181818;stroke-width:1.0;"/><line style="stroke:#181818;stroke-width:1.0;" x1="35" x2="890" y1="443.9219" y2="443.9219"/><text fill="#000000" font-family="sans-serif" font-size="13" lengthAdjust="spacing" textLength="172" x="47" y="439.0654">201 response {success, data}</text><text fill="#888888" font-family="sans-serif" font-size="10" lengthAdjust="spacing" textLength="183" x="1077.5" y="15.3809">Sample Coworking Sequence Diagram</text><!--SRC=[bP8_JyCm4CLtVmgh2wrQjy1OLP6WNH58OGE6mpcrXiHsRQVy4zyTvm9jdAe3c-DxlxldbziW5EXu3fKjaI_Dct6lIgzvZjiQjKI-Kh1sKB6WGXGCbWuXT8IvXIWQtjtczoF-S5LKIZyD6BFWWfBAWWwHAHNgCE3WkQHZMbuiNc07kNJAXYnxr7EFReUEzEsnhtUc3kX8A_-C-CQ89wWjapFVHojL52M-WKF2eGuROWxtL_6gJqcZWpDbYSwdKsb8-xA3vCHaKs19zFAOfY9ziW82F8F7XhanUcrMroTVsavQ_HACjV6Ah8sDZyTpxd0xjSQ7uTaCh9hjBcQzHcSZrif5rWsEOB1sMdiypKvu6iM8TNk8B8sLUbfd0ih0nxm9tpZr6Vj3ipZHIQeNFKj2pBd6zp0SiTwSe_HfbAHbJUEEx94u-jpdtm67JNRFflY8llPraQMXapuTaSiDLi1IdKY6D2z9apjsjH3YdqJCWHQ0n9Vd5_7dUsjqDFdbQna5ViARzVfcFm00]--></g></svg>