<?xml version="1.0" encoding="us-ascii" standalone="no"?><svg xmlns="http://www.w3.org/2000/svg" xmlns:xlink="http://www.w3.org/1999/xlink" contentStyleType="text/css" height="789px" preserveAspectRatio="none" style="width:1675px;height:789px;background:#FFFFFF;" version="1.1" viewBox="0 0 1675 789" width="1675px" zoomAndPan="magnify"><defs/><g><text fill="#000000" font-family="sans-serif" font-size="14" font-weight="bold" lengthAdjust="spacing" textLength="292" x="687.5" y="43.1113">Delete CoworkingSpace (DELETE) [Admin]</text><rect fill="#FFFFFF" height="512.4609" style="stroke:#181818;stroke-width:1.0;" width="10" x="391" y="170.7578"/><rect fill="#FFFFFF" height="482.1094" style="stroke:#181818;stroke-width:1.0;" width="10" x="722" y="201.1094"/><rect fill="#FFFFFF" height="30.3516" style="stroke:#181818;stroke-width:1.0;" width="10" x="907" y="231.4609"/><rect fill="#FFFFFF" height="146.7578" style="stroke:#181818;stroke-width:1.0;" width="10" x="1028" y="292.1641"/><rect fill="#FFFFFF" height="360.7031" style="stroke:#181818;stroke-width:1.0;" width="10" x="1216" y="322.5156"/><rect fill="#FFFFFF" height="107.0547" style="stroke:#181818;stroke-width:1.0;" width="10" x="1221" y="576.1641"/><rect fill="#FFFFFF" height="198.1094" style="stroke:#181818;stroke-width:1.0;" width="10" x="1335" y="485.1094"/><rect fill="#FFFFFF" height="30.3516" style="stroke:#181818;stroke-width:1.0;" width="10" x="1451" y="352.8672"/><rect fill="#FFFFFF" height="30.3516" style="stroke:#181818;stroke-width:1.0;" width="10" x="1451" y="606.5156"/><rect fill="#FFFFFF" height="30.3516" style="stroke:#181818;stroke-width:1.0;" width="10" x="1599" y="515.4609"/><rect fill="none" height="277" style="stroke:#000000;stroke-width:1.5;" width="1648" x="10" y="398.2188"/><line style="stroke:#181818;stroke-width:0.5;stroke-dasharray:5.0,5.0;" x1="45" x2="45" y1="138.4063" y2="692.2188"/><line style="stroke:#181818;stroke-width:0.5;stroke-dasharray:5.0,5.0;" x1="396" x2="396" y1="138.4063" y2="692.2188"/><line style="stroke:#181818;stroke-width:0.5;stroke-dasharray:5.0,5.0;" x1="727" x2="727" y1="138.4063" y2="692.2188"/><line style="stroke:#181818;stroke-width:0.5;stroke-dasharray:5.0,5.0;" x1="911.5" x2="911.5" y1="138.4063" y2="692.2188"/><line style="stroke:#181818;stroke-width:0.5;stroke-dasharray:5.0,5.0;" x1="1032.5" x2="1032.5" y1="138.4063" y2="692.2188"/><line style="stroke:#181818;stroke-width:0.5;stroke-dasharray:5.0,5.0;" x1="1221" x2="1221" y1="138.4063" y2="692.2188"/><line style="stroke:#181818;stroke-width:0.5;stroke-dasharray:5.0,5.0;" x1="1340" x2="1340" y1="138.4063" y2="692.2188"/><line style="stroke:#181818;stroke-width:0.5;stroke-dasharray:5.0,5.0;" x1="1456" x2="1456" y1="138.4063" y2="692.2188"/><line style="stroke:#181818;stroke-width:0.5;stroke-dasharray:5.0,5.0;" x1="1604" x2="1604" y1="138.4063" y2="692.2188"/><rect fill="#E2E2F0" height="31.6094" rx="2.5" ry="2.5" style="stroke:#181818;stroke-width:0.5;" width="50" x="20" y="105.7969"/><text fill="#000000" font-family="sans-serif" font-size="14" lengthAdjust="spacing" textLength="36" x="27" y="127.3301">Client</text><rect fill="#E2E2F0" height="31.6094" rx="2.5" ry="2.5" style="stroke:#181818;stroke-width:0.5;" width="50" x="20" y="691.2188"/><text fill="#000000" font-family="sans-serif" font-size="14" lengthAdjust="spacing" textLength="36" x="27" y="712.752">Client</text><rect fill="#E2E2F0" height="49.2188" rx="2.5" ry="2.5" style="stroke:#181818;stroke-width:0.5;" width="92" x="350" y="88.1875"/><text fill="#000000" font-family="sans-serif" font-size="14" lengthAdjust="spacing" textLength="78" x="357" y="109.7207">&#171;javaScript&#187;</text><text fill="#000000" font-family="sans-serif" font-size="14" lengthAdjust="spacing" textLength="44" x="374" y="127.3301">:server</text><rect fill="#E2E2F0" height="49.2188" rx="2.5" ry="2.5" style="stroke:#181818;stroke-width:0.5;" width="92" x="350" y="691.2188"/><text fill="#000000" font-family="sans-serif" font-size="14" lengthAdjust="spacing" textLength="78" x="357" y="712.752">&#171;javaScript&#187;</text><text fill="#000000" font-family="sans-serif" font-size="14" lengthAdjust="spacing" textLength="44" x="374" y="730.3613">:server</text><rect fill="#E2E2F0" height="49.2188" rx="2.5" ry="2.5" style="stroke:#181818;stroke-width:0.5;" width="126" x="664" y="88.1875"/><text fill="#000000" font-family="sans-serif" font-size="14" lengthAdjust="spacing" textLength="54" x="700" y="109.7207">&#171;router&#187;</text><text fill="#000000" font-family="sans-serif" font-size="14" lengthAdjust="spacing" textLength="112" x="671" y="127.3301">:coworkingspaces</text><rect fill="#E2E2F0" height="49.2188" rx="2.5" ry="2.5" style="stroke:#181818;stroke-width:0.5;" width="126" x="664" y="691.2188"/><text fill="#000000" font-family="sans-serif" font-size="14" lengthAdjust="spacing" textLength="54" x="700" y="712.752">&#171;router&#187;</text><text fill="#000000" font-family="sans-serif" font-size="14" lengthAdjust="spacing" textLength="112" x="671" y="730.3613">:coworkingspaces</text><rect fill="#E2E2F0" height="49.2188" rx="2.5" ry="2.5" style="stroke:#181818;stroke-width:0.5;" width="101" x="861.5" y="88.1875"/><text fill="#000000" font-family="sans-serif" font-size="14" lengthAdjust="spacing" textLength="87" x="868.5" y="109.7207">&#171;middleware&#187;</text><text fill="#000000" font-family="sans-serif" font-size="14" lengthAdjust="spacing" textLength="32" x="896" y="127.3301">:auth</text><rect fill="#E2E2F0" height="49.2188" rx="2.5" ry="2.5" style="stroke:#181818;stroke-width:0.5;" width="101" x="861.5" y="691.2188"/><text fill="#000000" font-family="sans-serif" font-size="14" lengthAdjust="spacing" textLength="87" x="868.5" y="712.752">&#171;middleware&#187;</text><text fill="#000000" font-family="sans-serif" font-size="14" lengthAdjust="spacing" textLength="32" x="896" y="730.3613">:auth</text><rect fill="#E2E2F0" height="49.2188" rx="2.5" ry="2.5" style="stroke:#181818;stroke-width:0.5;" width="121" x="972.5" y="88.1875"/><text fill="#000000" font-family="sans-serif" font-size="14" lengthAdjust="spacing" textLength="82" x="992" y="109.7207">&#171;controllers&#187;</text><text fill="#000000" font-family="sans-serif" font-size="14" lengthAdjust="spacing" textLength="107" x="979.5" y="127.3301">:coworkingSpace</text><rect fill="#E2E2F0" height="49.2188" rx="2.5" ry="2.5" style="stroke:#181818;stroke-width:0.5;" width="121" x="972.5" y="691.2188"/><text fill="#000000" font-family="sans-serif" font-size="14" lengthAdjust="spacing" textLength="82" x="992" y="712.752">&#171;controllers&#187;</text><text fill="#000000" font-family="sans-serif" font-size="14" lengthAdjust="spacing" textLength="107" x="979.5" y="730.3613">:coworkingSpace</text><rect fill="#E2E2F0" height="49.2188" rx="2.5" ry="2.5" style="stroke:#181818;stroke-width:0.5;" width="124" x="1159" y="88.1875"/><text fill="#000000" font-family="sans-serif" font-size="14" lengthAdjust="spacing" textLength="54" x="1194" y="109.7207">&#171;model&#187;</text><text fill="#000000" font-family="sans-serif" font-size="14" lengthAdjust="spacing" textLength="110" x="1166" y="127.3301">:CoworkingSpace</text><rect fill="#E2E2F0" height="49.2188" rx="2.5" ry="2.5" style="stroke:#181818;stroke-width:0.5;" width="124" x="1159" y="691.2188"/><text fill="#000000" font-family="sans-serif" font-size="14" lengthAdjust="spacing" textLength="54" x="1194" y="712.752">&#171;model&#187;</text><text fill="#000000" font-family="sans-serif" font-size="14" lengthAdjust="spacing" textLength="110" x="1166" y="730.3613">:CoworkingSpace</text><rect fill="#E2E2F0" height="49.2188" rx="2.5" ry="2.5" style="stroke:#181818;stroke-width:0.5;" width="94" x="1293" y="88.1875"/><text fill="#000000" font-family="sans-serif" font-size="14" lengthAdjust="spacing" textLength="54" x="1313" y="109.7207">&#171;model&#187;</text><text fill="#000000" font-family="sans-serif" font-size="14" lengthAdjust="spacing" textLength="80" x="1300" y="127.3301">:Reservation</text><rect fill="#E2E2F0" height="49.2188" rx="2.5" ry="2.5" style="stroke:#181818;stroke-width:0.5;" width="94" x="1293" y="691.2188"/><text fill="#000000" font-family="sans-serif" font-size="14" lengthAdjust="spacing" textLength="54" x="1313" y="712.752">&#171;model&#187;</text><text fill="#000000" font-family="sans-serif" font-size="14" lengthAdjust="spacing" textLength="80" x="1300" y="730.3613">:Reservation</text><text fill="#000000" font-family="sans-serif" font-size="14" lengthAdjust="spacing" textLength="78" x="1414" y="117.7207">&#171;MongoDB&#187;</text><text fill="#000000" font-family="sans-serif" font-size="14" lengthAdjust="spacing" textLength="112" x="1397" y="135.3301">:coworkingspaces</text><path d="M1438,67.1875 C1438,57.1875 1456,57.1875 1456,57.1875 C1456,57.1875 1474,57.1875 1474,67.1875 L1474,93.1875 C1474,103.1875 1456,103.1875 1456,103.1875 C1456,103.1875 1438,103.1875 1438,93.1875 L1438,67.1875 " fill="#E2E2F0" style="stroke:#181818;stroke-width:1.5;"/><path d="M1438,67.1875 C1438,77.1875 1456,77.1875 1456,77.1875 C1456,77.1875 1474,77.1875 1474,67.1875 " fill="none" style="stroke:#181818;stroke-width:1.5;"/><text fill="#000000" font-family="sans-serif" font-size="14" lengthAdjust="spacing" textLength="78" x="1414" y="705.752">&#171;MongoDB&#187;</text><text fill="#000000" font-family="sans-serif" font-size="14" lengthAdjust="spacing" textLength="112" x="1397" y="723.3613">:coworkingspaces</text><path d="M1438,736.4375 C1438,726.4375 1456,726.4375 1456,726.4375 C1456,726.4375 1474,726.4375 1474,736.4375 L1474,762.4375 C1474,772.4375 1456,772.4375 1456,772.4375 C1456,772.4375 1438,772.4375 1438,762.4375 L1438,736.4375 " fill="#E2E2F0" style="stroke:#181818;stroke-width:1.5;"/><path d="M1438,736.4375 C1438,746.4375 1456,746.4375 1456,746.4375 C1456,746.4375 1474,746.4375 1474,736.4375 " fill="none" style="stroke:#181818;stroke-width:1.5;"/><text fill="#000000" font-family="sans-serif" font-size="14" lengthAdjust="spacing" textLength="78" x="1562" y="117.7207">&#171;MongoDB&#187;</text><text fill="#000000" font-family="sans-serif" font-size="14" lengthAdjust="spacing" textLength="82" x="1560" y="135.3301">:reservations</text><path d="M1586,67.1875 C1586,57.1875 1604,57.1875 1604,57.1875 C1604,57.1875 1622,57.1875 1622,67.1875 L1622,93.1875 C1622,103.1875 1604,103.1875 1604,103.1875 C1604,103.1875 1586,103.1875 1586,93.1875 L1586,67.1875 " fill="#E2E2F0" style="stroke:#181818;stroke-width:1.5;"/><path d="M1586,67.1875 C1586,77.1875 1604,77.1875 1604,77.1875 C1604,77.1875 1622,77.1875 1622,67.1875 " fill="none" style="stroke:#181818;stroke-width:1.5;"/><text fill="#000000" font-family="sans-serif" font-size="14" lengthAdjust="spacing" textLength="78" x="1562" y="705.752">&#171;MongoDB&#187;</text><text fill="#000000" font-family="sans-serif" font-size="14" lengthAdjust="spacing" textLength="82" x="1560" y="723.3613">:reservations</text><path d="M1586,736.4375 C1586,726.4375 1604,726.4375 1604,726.4375 C1604,726.4375 1622,726.4375 1622,736.4375 L1622,762.4375 C1622,772.4375 1604,772.4375 1604,772.4375 C1604,772.4375 1586,772.4375 1586,762.4375 L1586,736.4375 " fill="#E2E2F0" style="stroke:#181818;stroke-width:1.5;"/><path d="M1586,736.4375 C1586,746.4375 1604,746.4375 1604,746.4375 C1604,746.4375 1622,746.4375 1622,736.4375 " fill="none" style="stroke:#181818;stroke-width:1.5;"/><rect fill="#FFFFFF" height="512.4609" style="stroke:#181818;stroke-width:1.0;" width="10" x="391" y="170.7578"/><rect fill="#FFFFFF" height="482.1094" style="stroke:#181818;stroke-width:1.0;" width="10" x="722" y="201.1094"/><rect fill="#FFFFFF" height="30.3516" style="stroke:#181818;stroke-width:1.0;" width="10" x="907" y="231.4609"/><rect fill="#FFFFFF" height="146.7578" style="stroke:#181818;stroke-width:1.0;" width="10" x="1028" y="292.1641"/><rect fill="#FFFFFF" height="360.7031" style="stroke:#181818;stroke-width:1.0;" width="10" x="1216" y="322.5156"/><rect fill="#FFFFFF" height="107.0547" style="stroke:#181818;stroke-width:1.0;" width="10" x="1221" y="576.1641"/><rect fill="#FFFFFF" height="198.1094" style="stroke:#181818;stroke-width:1.0;" width="10" x="1335" y="485.1094"/><rect fill="#FFFFFF" height="30.3516" style="stroke:#181818;stroke-width:1.0;" width="10" x="1451" y="352.8672"/><rect fill="#FFFFFF" height="30.3516" style="stroke:#181818;stroke-width:1.0;" width="10" x="1451" y="606.5156"/><rect fill="#FFFFFF" height="30.3516" style="stroke:#181818;stroke-width:1.0;" width="10" x="1599" y="515.4609"/><polygon fill="#181818" points="379,166.7578,389,170.7578,379,174.7578,383,170.7578" style="stroke:#181818;stroke-width:1.0;"/><line style="stroke:#181818;stroke-width:1.0;" x1="45" x2="385" y1="170.7578" y2="170.7578"/><text fill="#000000" font-family="sans-serif" font-size="13" lengthAdjust="spacing" textLength="327" x="52" y="165.9014">req.delete('/api/v1/coworkingspaces/{coworkingSpaceId}')</text><polygon fill="#181818" points="710,197.1094,720,201.1094,710,205.1094,714,201.1094" style="stroke:#181818;stroke-width:1.0;"/><line style="stroke:#181818;stroke-width:1.0;" x1="401" x2="716" y1="201.1094" y2="201.1094"/><text fill="#000000" font-family="sans-serif" font-size="13" lengthAdjust="spacing" textLength="302" x="408" y="196.2529">app.use('/api/v1/coworkingspaces', coworkingSpace)</text><polygon fill="#181818" points="895,227.4609,905,231.4609,895,235.4609,899,231.4609" style="stroke:#181818;stroke-width:1.0;"/><line style="stroke:#181818;stroke-width:1.0;" x1="732" x2="901" y1="231.4609" y2="231.4609"/><text fill="#000000" font-family="sans-serif" font-size="13" lengthAdjust="spacing" textLength="156" x="739" y="226.6045">protect + authorize('admin')</text><polygon fill="#181818" points="743,257.8125,733,261.8125,743,265.8125,739,261.8125" style="stroke:#181818;stroke-width:1.0;"/><line style="stroke:#181818;stroke-width:1.0;stroke-dasharray:2.0,2.0;" x1="737" x2="911" y1="261.8125" y2="261.8125"/><text fill="#000000" font-family="sans-serif" font-size="13" lengthAdjust="spacing" textLength="33" x="749" y="256.9561">next()</text><polygon fill="#181818" points="1016,288.1641,1026,292.1641,1016,296.1641,1020,292.1641" style="stroke:#181818;stroke-width:1.0;"/><line style="stroke:#181818;stroke-width:1.0;" x1="732" x2="1022" y1="292.1641" y2="292.1641"/><text fill="#000000" font-family="sans-serif" font-size="13" lengthAdjust="spacing" textLength="140" x="739" y="287.3076">deleteCoworkingSpace()</text><polygon fill="#181818" points="1204,318.5156,1214,322.5156,1204,326.5156,1208,322.5156" style="stroke:#181818;stroke-width:1.0;"/><line style="stroke:#181818;stroke-width:1.0;" x1="1038" x2="1210" y1="322.5156" y2="322.5156"/><text fill="#000000" font-family="sans-serif" font-size="13" lengthAdjust="spacing" textLength="159" x="1045" y="317.6592">findById(coworkingSpaceId)</text><polygon fill="#181818" points="1439,348.8672,1449,352.8672,1439,356.8672,1443,352.8672" style="stroke:#181818;stroke-width:1.0;"/><line style="stroke:#181818;stroke-width:1.0;" x1="1226" x2="1445" y1="352.8672" y2="352.8672"/><text fill="#000000" font-family="sans-serif" font-size="13" lengthAdjust="spacing" textLength="136" x="1233" y="348.0107">query coworkingspaces</text><polygon fill="#181818" points="1237,379.2188,1227,383.2188,1237,387.2188,1233,383.2188" style="stroke:#181818;stroke-width:1.0;"/><line style="stroke:#181818;stroke-width:1.0;stroke-dasharray:2.0,2.0;" x1="1231" x2="1455" y1="383.2188" y2="383.2188"/><text fill="#000000" font-family="sans-serif" font-size="13" lengthAdjust="spacing" textLength="142" x="1243" y="378.3623">coworkingSpace (or null)</text><path d="M10,398.2188 L71,398.2188 L71,406.5703 L61,416.5703 L10,416.5703 L10,398.2188 " fill="#EEEEEE" style="stroke:#000000;stroke-width:1.5;"/><rect fill="none" height="277" style="stroke:#000000;stroke-width:1.5;" width="1648" x="10" y="398.2188"/><text fill="#000000" font-family="sans-serif" font-size="13" font-weight="bold" lengthAdjust="spacing" textLength="16" x="25" y="412.7139">alt</text><text fill="#000000" font-family="sans-serif" font-size="11" font-weight="bold" lengthAdjust="spacing" textLength="156" x="86" y="411.6377">[coworkingSpace not found]</text><polygon fill="#181818" points="56,434.9219,46,438.9219,56,442.9219,52,438.9219" style="stroke:#181818;stroke-width:1.0;"/><line style="stroke:#181818;stroke-width:1.0;" x1="50" x2="1032" y1="438.9219" y2="438.9219"/><text fill="#000000" font-family="sans-serif" font-size="13" lengthAdjust="spacing" textLength="174" x="62" y="434.0654">404 response {success: false}</text><line style="stroke:#000000;stroke-width:1.0;stroke-dasharray:2.0,2.0;" x1="10" x2="1658" y1="447.9219" y2="447.9219"/><text fill="#000000" font-family="sans-serif" font-size="11" font-weight="bold" lengthAdjust="spacing" textLength="135" x="15" y="459.3408">[coworkingSpace found]</text><polygon fill="#181818" points="1323,481.1094,1333,485.1094,1323,489.1094,1327,485.1094" style="stroke:#181818;stroke-width:1.0;"/><line style="stroke:#181818;stroke-width:1.0;" x1="1033" x2="1329" y1="485.1094" y2="485.1094"/><text fill="#000000" font-family="sans-serif" font-size="13" lengthAdjust="spacing" textLength="196" x="1040" y="480.2529">deleteMany({coworkingSpace: id})</text><polygon fill="#181818" points="1587,511.4609,1597,515.4609,1587,519.4609,1591,515.4609" style="stroke:#181818;stroke-width:1.0;"/><line style="stroke:#181818;stroke-width:1.0;" x1="1345" x2="1593" y1="515.4609" y2="515.4609"/><text fill="#000000" font-family="sans-serif" font-size="13" lengthAdjust="spacing" textLength="235" x="1352" y="510.6045">delete reservations by coworkingSpaceId</text><polygon fill="#181818" points="1356,541.8125,1346,545.8125,1356,549.8125,1352,545.8125" style="stroke:#181818;stroke-width:1.0;"/><line style="stroke:#181818;stroke-width:1.0;stroke-dasharray:2.0,2.0;" x1="1350" x2="1603" y1="545.8125" y2="545.8125"/><text fill="#000000" font-family="sans-serif" font-size="13" lengthAdjust="spacing" textLength="32" x="1362" y="540.9561">result</text><polygon fill="#181818" points="1209,572.1641,1219,576.1641,1209,580.1641,1213,576.1641" style="stroke:#181818;stroke-width:1.0;"/><line style="stroke:#181818;stroke-width:1.0;" x1="1033" x2="1215" y1="576.1641" y2="576.1641"/><text fill="#000000" font-family="sans-serif" font-size="13" lengthAdjust="spacing" textLength="110" x="1040" y="571.3076">deleteOne({_id: id})</text><polygon fill="#181818" points="1439,602.5156,1449,606.5156,1439,610.5156,1443,606.5156" style="stroke:#181818;stroke-width:1.0;"/><line style="stroke:#181818;stroke-width:1.0;" x1="1231" x2="1445" y1="606.5156" y2="606.5156"/><text fill="#000000" font-family="sans-serif" font-size="13" lengthAdjust="spacing" textLength="134" x="1238" y="601.6592">delete coworkingSpace</text><polygon fill="#181818" points="1242,632.8672,1232,636.8672,1242,640.8672,1238,636.8672" style="stroke:#181818;stroke-width:1.0;"/><line style="stroke:#181818;stroke-width:1.0;stroke-dasharray:2.0,2.0;" x1="1236" x2="1455" y1="636.8672" y2="636.8672"/><text fill="#000000" font-family="sans-serif" font-size="13" lengthAdjust="spacing" textLength="32" x="1248" y="632.0107">result</text><polygon fill="#181818" points="56,663.2188,46,667.2188,56,671.2188,52,667.2188" style="stroke:#181818;stroke-width:1.0;"/><line style="stroke:#181818;stroke-width:1.0;" x1="50" x2="1032" y1="667.2188" y2="667.2188"/><text fill="#000000" font-family="sans-serif" font-size="13" lengthAdjust="spacing" textLength="184" x="62" y="662.3623">200 response {success, data:{}}</text><text fill="#888888" font-family="sans-serif" font-size="10" lengthAdjust="spacing" textLength="183" x="1484" y="15.3809">Sample Coworking Sequence Diagram</text><!--SRC=[XLJ1RXen4BtxAqPSM9Hie5LEA5ef0GwH6bKglRLLDLbFY5jZRsmlAKNyUxtU5DQcIozeiTzxysRUx3uJSZAmn7Kb2MRwLPkVGgrWIIyrgP9WBd1bSCsSS1umc9Carm4kA_IWRBxuiFYy6C6NMxuMwjk0iGgD4wMeK3aOpAGWvGQ05ihm65_VtFp03IvB8ofN55_Lr9BPa0duzZ756rqxCW5R_hLY6oisaDhhuCscrBNWND8h6WfqhDrpu1pFR_rHoYgrSaPBISR6LKEHjhCZfAUovYG3UtRA3fVXRp_j4pNJG2UqEdByuOPnTFY8bXhyWrOhFR_h7KvhRlx6wAMQOx6MrnGwi5YROrwq-S35nHGClLpni1_PS8oL66_UZHC3urqyk7k-7uvOgv4NtTY28bRLLMtxvOQN4EkDM5SZB-9GWsPbjAFImGKqqMiZVdjzRDRMEudnUM8fpwUWw9VBHYofSv9zADKE8mwxuPwWlT53_87v91I_szxpB1sNjtX0vaKSPM3wrzPi8PaJYu5vLA_fgapUPsr0rL9whoXTUgkqWoTTAyu0_j5Aknb1zdfoxRV2Ldw527QsBZt0-kvGMjepyh-fzXdTmxPtPlk0QfibEpK5mVSZht4Wv4LtTpjqw2uvF6uX7RTNwLBphekcGS-lfMDd31ypRKj-L9JjlWiUk-pFyyreRCpJ_fVeMMUTYDvF9gSHNKBpLPZkzZua7ySV]--></g></svg>