<?xml version="1.0" encoding="us-ascii" standalone="no"?><svg xmlns="http://www.w3.org/2000/svg" xmlns:xlink="http://www.w3.org/1999/xlink" contentStyleType="text/css" height="498px" preserveAspectRatio="none" style="width:1176px;height:498px;background:#FFFFFF;" version="1.1" viewBox="0 0 1176 498" width="1176px" zoomAndPan="magnify"><defs/><g><text fill="#000000" font-family="sans-serif" font-size="14" font-weight="bold" lengthAdjust="spacing" textLength="197" x="485.5" y="43.1113">Get CoworkingSpaces (GET)</text><rect fill="#FFFFFF" height="221.4609" style="stroke:#181818;stroke-width:1.0;" width="10" x="242" y="170.7578"/><rect fill="#FFFFFF" height="191.1094" style="stroke:#181818;stroke-width:1.0;" width="10" x="573" y="201.1094"/><rect fill="#FFFFFF" height="151.7578" style="stroke:#181818;stroke-width:1.0;" width="10" x="732" y="231.4609"/><rect fill="#FFFFFF" height="91.0547" style="stroke:#181818;stroke-width:1.0;" width="10" x="935" y="261.8125"/><rect fill="#FFFFFF" height="30.3516" style="stroke:#181818;stroke-width:1.0;" width="10" x="1100" y="292.1641"/><line style="stroke:#181818;stroke-width:0.5;stroke-dasharray:5.0,5.0;" x1="30" x2="30" y1="138.4063" y2="401.2188"/><line style="stroke:#181818;stroke-width:0.5;stroke-dasharray:5.0,5.0;" x1="247" x2="247" y1="138.4063" y2="401.2188"/><line style="stroke:#181818;stroke-width:0.5;stroke-dasharray:5.0,5.0;" x1="578" x2="578" y1="138.4063" y2="401.2188"/><line style="stroke:#181818;stroke-width:0.5;stroke-dasharray:5.0,5.0;" x1="736.5" x2="736.5" y1="138.4063" y2="401.2188"/><line style="stroke:#181818;stroke-width:0.5;stroke-dasharray:5.0,5.0;" x1="940" x2="940" y1="138.4063" y2="401.2188"/><line style="stroke:#181818;stroke-width:0.5;stroke-dasharray:5.0,5.0;" x1="1105" x2="1105" y1="138.4063" y2="401.2188"/><rect fill="#E2E2F0" height="31.6094" rx="2.5" ry="2.5" style="stroke:#181818;stroke-width:0.5;" width="50" x="5" y="105.7969"/><text fill="#000000" font-family="sans-serif" font-size="14" lengthAdjust="spacing" textLength="36" x="12" y="127.3301">Client</text><rect fill="#E2E2F0" height="31.6094" rx="2.5" ry="2.5" style="stroke:#181818;stroke-width:0.5;" width="50" x="5" y="400.2188"/><text fill="#000000" font-family="sans-serif" font-size="14" lengthAdjust="spacing" textLength="36" x="12" y="421.752">Client</text><rect fill="#E2E2F0" height="49.2188" rx="2.5" ry="2.5" style="stroke:#181818;stroke-width:0.5;" width="92" x="201" y="88.1875"/><text fill="#000000" font-family="sans-serif" font-size="14" lengthAdjust="spacing" textLength="78" x="208" y="109.7207">&#171;javaScript&#187;</text><text fill="#000000" font-family="sans-serif" font-size="14" lengthAdjust="spacing" textLength="44" x="225" y="127.3301">:server</text><rect fill="#E2E2F0" height="49.2188" rx="2.5" ry="2.5" style="stroke:#181818;stroke-width:0.5;" width="92" x="201" y="400.2188"/><text fill="#000000" font-family="sans-serif" font-size="14" lengthAdjust="spacing" textLength="78" x="208" y="421.752">&#171;javaScript&#187;</text><text fill="#000000" font-family="sans-serif" font-size="14" lengthAdjust="spacing" textLength="44" x="225" y="439.3613">:server</text><rect fill="#E2E2F0" height="49.2188" rx="2.5" ry="2.5" style="stroke:#181818;stroke-width:0.5;" width="126" x="515" y="88.1875"/><text fill="#000000" font-family="sans-serif" font-size="14" lengthAdjust="spacing" textLength="54" x="551" y="109.7207">&#171;router&#187;</text><text fill="#000000" font-family="sans-serif" font-size="14" lengthAdjust="spacing" textLength="112" x="522" y="127.3301">:coworkingspaces</text><rect fill="#E2E2F0" height="49.2188" rx="2.5" ry="2.5" style="stroke:#181818;stroke-width:0.5;" width="126" x="515" y="400.2188"/><text fill="#000000" font-family="sans-serif" font-size="14" lengthAdjust="spacing" textLength="54" x="551" y="421.752">&#171;router&#187;</text><text fill="#000000" font-family="sans-serif" font-size="14" lengthAdjust="spacing" textLength="112" x="522" y="439.3613">:coworkingspaces</text><rect fill="#E2E2F0" height="49.2188" rx="2.5" ry="2.5" style="stroke:#181818;stroke-width:0.5;" width="121" x="676.5" y="88.1875"/><text fill="#000000" font-family="sans-serif" font-size="14" lengthAdjust="spacing" textLength="82" x="696" y="109.7207">&#171;controllers&#187;</text><text fill="#000000" font-family="sans-serif" font-size="14" lengthAdjust="spacing" textLength="107" x="683.5" y="127.3301">:coworkingSpace</text><rect fill="#E2E2F0" height="49.2188" rx="2.5" ry="2.5" style="stroke:#181818;stroke-width:0.5;" width="121" x="676.5" y="400.2188"/><text fill="#000000" font-family="sans-serif" font-size="14" lengthAdjust="spacing" textLength="82" x="696" y="421.752">&#171;controllers&#187;</text><text fill="#000000" font-family="sans-serif" font-size="14" lengthAdjust="spacing" textLength="107" x="683.5" y="439.3613">:coworkingSpace</text><rect fill="#E2E2F0" height="49.2188" rx="2.5" ry="2.5" style="stroke:#181818;stroke-width:0.5;" width="124" x="878" y="88.1875"/><text fill="#000000" font-family="sans-serif" font-size="14" lengthAdjust="spacing" textLength="54" x="913" y="109.7207">&#171;model&#187;</text><text fill="#000000" font-family="sans-serif" font-size="14" lengthAdjust="spacing" textLength="110" x="885" y="127.3301">:CoworkingSpace</text><rect fill="#E2E2F0" height="49.2188" rx="2.5" ry="2.5" style="stroke:#181818;stroke-width:0.5;" width="124" x="878" y="400.2188"/><text fill="#000000" font-family="sans-serif" font-size="14" lengthAdjust="spacing" textLength="54" x="913" y="421.752">&#171;model&#187;</text><text fill="#000000" font-family="sans-serif" font-size="14" lengthAdjust="spacing" textLength="110" x="885" y="439.3613">:CoworkingSpace</text><text fill="#000000" font-family="sans-serif" font-size="14" lengthAdjust="spacing" textLength="78" x="1063" y="117.7207">&#171;MongoDB&#187;</text><text fill="#000000" font-family="sans-serif" font-size="14" lengthAdjust="spacing" textLength="112" x="1046" y="135.3301">:coworkingspaces</text><path d="M1087,67.1875 C1087,57.1875 1105,57.1875 1105,57.1875 C1105,57.1875 1123,57.1875 1123,67.1875 L1123,93.1875 C1123,103.1875 1105,103.1875 1105,103.1875 C1105,103.1875 1087,103.1875 1087,93.1875 L1087,67.1875 " fill="#E2E2F0" style="stroke:#181818;stroke-width:1.5;"/><path d="M1087,67.1875 C1087,77.1875 1105,77.1875 1105,77.1875 C1105,77.1875 1123,77.1875 1123,67.1875 " fill="none" style="stroke:#181818;stroke-width:1.5;"/><text fill="#000000" font-family="sans-serif" font-size="14" lengthAdjust="spacing" textLength="78" x="1063" y="414.752">&#171;MongoDB&#187;</text><text fill="#000000" font-family="sans-serif" font-size="14" lengthAdjust="spacing" textLength="112" x="1046" y="432.3613">:coworkingspaces</text><path d="M1087,445.4375 C1087,435.4375 1105,435.4375 1105,435.4375 C1105,435.4375 1123,435.4375 1123,445.4375 L1123,471.4375 C1123,481.4375 1105,481.4375 1105,481.4375 C1105,481.4375 1087,481.4375 1087,471.4375 L1087,445.4375 " fill="#E2E2F0" style="stroke:#181818;stroke-width:1.5;"/><path d="M1087,445.4375 C1087,455.4375 1105,455.4375 1105,455.4375 C1105,455.4375 1123,455.4375 1123,445.4375 " fill="none" style="stroke:#181818;stroke-width:1.5;"/><rect fill="#FFFFFF" height="221.4609" style="stroke:#181818;stroke-width:1.0;" width="10" x="242" y="170.7578"/><rect fill="#FFFFFF" height="191.1094" style="stroke:#181818;stroke-width:1.0;" width="10" x="573" y="201.1094"/><rect fill="#FFFFFF" height="151.7578" style="stroke:#181818;stroke-width:1.0;" width="10" x="732" y="231.4609"/><rect fill="#FFFFFF" height="91.0547" style="stroke:#181818;stroke-width:1.0;" width="10" x="935" y="261.8125"/><rect fill="#FFFFFF" height="30.3516" style="stroke:#181818;stroke-width:1.0;" width="10" x="1100" y="292.1641"/><polygon fill="#181818" points="230,166.7578,240,170.7578,230,174.7578,234,170.7578" style="stroke:#181818;stroke-width:1.0;"/><line style="stroke:#181818;stroke-width:1.0;" x1="30" x2="236" y1="170.7578" y2="170.7578"/><text fill="#000000" font-family="sans-serif" font-size="13" lengthAdjust="spacing" textLength="193" x="37" y="165.9014">req.get('/api/v1/coworkingspaces')</text><polygon fill="#181818" points="561,197.1094,571,201.1094,561,205.1094,565,201.1094" style="stroke:#181818;stroke-width:1.0;"/><line style="stroke:#181818;stroke-width:1.0;" x1="252" x2="567" y1="201.1094" y2="201.1094"/><text fill="#000000" font-family="sans-serif" font-size="13" lengthAdjust="spacing" textLength="302" x="259" y="196.2529">app.use('/api/v1/coworkingspaces', coworkingSpace)</text><polygon fill="#181818" points="720,227.4609,730,231.4609,720,235.4609,724,231.4609" style="stroke:#181818;stroke-width:1.0;"/><line style="stroke:#181818;stroke-width:1.0;" x1="583" x2="726" y1="231.4609" y2="231.4609"/><text fill="#000000" font-family="sans-serif" font-size="13" lengthAdjust="spacing" textLength="130" x="590" y="226.6045">getCoworkingSpaces()</text><polygon fill="#181818" points="923,257.8125,933,261.8125,923,265.8125,927,261.8125" style="stroke:#181818;stroke-width:1.0;"/><line style="stroke:#181818;stroke-width:1.0;" x1="742" x2="929" y1="261.8125" y2="261.8125"/><text fill="#000000" font-family="sans-serif" font-size="13" lengthAdjust="spacing" textLength="174" x="749" y="256.9561">find(...).populate('reservations')</text><polygon fill="#181818" points="1088,288.1641,1098,292.1641,1088,296.1641,1092,292.1641" style="stroke:#181818;stroke-width:1.0;"/><line style="stroke:#181818;stroke-width:1.0;" x1="945" x2="1094" y1="292.1641" y2="292.1641"/><text fill="#000000" font-family="sans-serif" font-size="13" lengthAdjust="spacing" textLength="136" x="952" y="287.3076">query coworkingspaces</text><polygon fill="#181818" points="956,318.5156,946,322.5156,956,326.5156,952,322.5156" style="stroke:#181818;stroke-width:1.0;"/><line style="stroke:#181818;stroke-width:1.0;stroke-dasharray:2.0,2.0;" x1="950" x2="1104" y1="322.5156" y2="322.5156"/><text fill="#000000" font-family="sans-serif" font-size="13" lengthAdjust="spacing" textLength="110" x="962" y="317.6592">coworkingSpaces[]</text><polygon fill="#181818" points="753,348.8672,743,352.8672,753,356.8672,749,352.8672" style="stroke:#181818;stroke-width:1.0;"/><line style="stroke:#181818;stroke-width:1.0;stroke-dasharray:2.0,2.0;" x1="747" x2="939" y1="352.8672" y2="352.8672"/><text fill="#000000" font-family="sans-serif" font-size="13" lengthAdjust="spacing" textLength="110" x="759" y="348.0107">coworkingSpaces[]</text><polygon fill="#181818" points="41,379.2188,31,383.2188,41,387.2188,37,383.2188" style="stroke:#181818;stroke-width:1.0;"/><line style="stroke:#181818;stroke-width:1.0;" x1="35" x2="736" y1="383.2188" y2="383.2188"/><text fill="#000000" font-family="sans-serif" font-size="13" lengthAdjust="spacing" textLength="172" x="47" y="378.3623">200 response {success, data}</text><text fill="#888888" font-family="sans-serif" font-size="10" lengthAdjust="spacing" textLength="183" x="985" y="15.3809">Sample Coworking Sequence Diagram</text><!--SRC=[bP8nJyCm48Lt_mehInErJWjZLMMWHPsOmWOCXtC4GsgxjbE44FyTnmQbIM1WitNlExzxlcU42WqjuQ0Rf5lrfioha3KjyTYYv4Xt0ce31-A4yu9aZwvNbHeuMfhkhs-pX10DnWakD4X7asqZKBg4WgKy78VbpUO5Jb1o8xGhYdkvjcXEQ88-7iTwerg79cZvZm4R30GebgEZCSgLT4Or3Hexv8CyUkmbl_Sug0gRG6-dT2Y6Awd0mIDOx9WR9Mkrk_hJStnfzqqG4eDYHGo0pkThQl2Or-ZIsHAqM9ukbgC-iun4DIlE4mWiQ9st5lzc5tIOH4REUx1Y4afew-sCDY3Do4JAYZwKW3q9MQLvdcUvLhfjm7bZ1Zlpu8IItIGzmOfXDg63tqZpJaT3aA6G3TvbR3qQqTuzJBrk6Fi_vEC9tnNqbwkL_ogh_Hn8FspBlS0kQBSCd-GB]--></g></svg>