<?xml version="1.0" encoding="us-ascii" standalone="no"?><svg xmlns="http://www.w3.org/2000/svg" xmlns:xlink="http://www.w3.org/1999/xlink" contentStyleType="text/css" height="546px" preserveAspectRatio="none" style="width:1297px;height:546px;background:#FFFFFF;" version="1.1" viewBox="0 0 1297 546" width="1297px" zoomAndPan="magnify"><defs/><g><text fill="#000000" font-family="sans-serif" font-size="14" font-weight="bold" lengthAdjust="spacing" textLength="222" x="533.5" y="43.1113">Get One CoworkingSpace (GET)</text><rect fill="#FFFFFF" height="269.6484" style="stroke:#181818;stroke-width:1.0;" width="10" x="374" y="170.7578"/><rect fill="#FFFFFF" height="239.2969" style="stroke:#181818;stroke-width:1.0;" width="10" x="705" y="201.1094"/><rect fill="#FFFFFF" height="146.7578" style="stroke:#181818;stroke-width:1.0;" width="10" x="857" y="231.4609"/><rect fill="#FFFFFF" height="178.5938" style="stroke:#181818;stroke-width:1.0;" width="10" x="1045" y="261.8125"/><rect fill="#FFFFFF" height="30.3516" style="stroke:#181818;stroke-width:1.0;" width="10" x="1221" y="292.1641"/><rect fill="none" height="94.8906" style="stroke:#000000;stroke-width:1.5;" width="922.5" x="10" y="337.5156"/><line style="stroke:#181818;stroke-width:0.5;stroke-dasharray:5.0,5.0;" x1="45" x2="45" y1="138.4063" y2="449.4063"/><line style="stroke:#181818;stroke-width:0.5;stroke-dasharray:5.0,5.0;" x1="379" x2="379" y1="138.4063" y2="449.4063"/><line style="stroke:#181818;stroke-width:0.5;stroke-dasharray:5.0,5.0;" x1="710" x2="710" y1="138.4063" y2="449.4063"/><line style="stroke:#181818;stroke-width:0.5;stroke-dasharray:5.0,5.0;" x1="861.5" x2="861.5" y1="138.4063" y2="449.4063"/><line style="stroke:#181818;stroke-width:0.5;stroke-dasharray:5.0,5.0;" x1="1050" x2="1050" y1="138.4063" y2="449.4063"/><line style="stroke:#181818;stroke-width:0.5;stroke-dasharray:5.0,5.0;" x1="1226" x2="1226" y1="138.4063" y2="449.4063"/><rect fill="#E2E2F0" height="31.6094" rx="2.5" ry="2.5" style="stroke:#181818;stroke-width:0.5;" width="50" x="20" y="105.7969"/><text fill="#000000" font-family="sans-serif" font-size="14" lengthAdjust="spacing" textLength="36" x="27" y="127.3301">Client</text><rect fill="#E2E2F0" height="31.6094" rx="2.5" ry="2.5" style="stroke:#181818;stroke-width:0.5;" width="50" x="20" y="448.4063"/><text fill="#000000" font-family="sans-serif" font-size="14" lengthAdjust="spacing" textLength="36" x="27" y="469.9395">Client</text><rect fill="#E2E2F0" height="49.2188" rx="2.5" ry="2.5" style="stroke:#181818;stroke-width:0.5;" width="92" x="333" y="88.1875"/><text fill="#000000" font-family="sans-serif" font-size="14" lengthAdjust="spacing" textLength="78" x="340" y="109.7207">&#171;javaScript&#187;</text><text fill="#000000" font-family="sans-serif" font-size="14" lengthAdjust="spacing" textLength="44" x="357" y="127.3301">:server</text><rect fill="#E2E2F0" height="49.2188" rx="2.5" ry="2.5" style="stroke:#181818;stroke-width:0.5;" width="92" x="333" y="448.4063"/><text fill="#000000" font-family="sans-serif" font-size="14" lengthAdjust="spacing" textLength="78" x="340" y="469.9395">&#171;javaScript&#187;</text><text fill="#000000" font-family="sans-serif" font-size="14" lengthAdjust="spacing" textLength="44" x="357" y="487.5488">:server</text><rect fill="#E2E2F0" height="49.2188" rx="2.5" ry="2.5" style="stroke:#181818;stroke-width:0.5;" width="126" x="647" y="88.1875"/><text fill="#000000" font-family="sans-serif" font-size="14" lengthAdjust="spacing" textLength="54" x="683" y="109.7207">&#171;router&#187;</text><text fill="#000000" font-family="sans-serif" font-size="14" lengthAdjust="spacing" textLength="112" x="654" y="127.3301">:coworkingspaces</text><rect fill="#E2E2F0" height="49.2188" rx="2.5" ry="2.5" style="stroke:#181818;stroke-width:0.5;" width="126" x="647" y="448.4063"/><text fill="#000000" font-family="sans-serif" font-size="14" lengthAdjust="spacing" textLength="54" x="683" y="469.9395">&#171;router&#187;</text><text fill="#000000" font-family="sans-serif" font-size="14" lengthAdjust="spacing" textLength="112" x="654" y="487.5488">:coworkingspaces</text><rect fill="#E2E2F0" height="49.2188" rx="2.5" ry="2.5" style="stroke:#181818;stroke-width:0.5;" width="121" x="801.5" y="88.1875"/><text fill="#000000" font-family="sans-serif" font-size="14" lengthAdjust="spacing" textLength="82" x="821" y="109.7207">&#171;controllers&#187;</text><text fill="#000000" font-family="sans-serif" font-size="14" lengthAdjust="spacing" textLength="107" x="808.5" y="127.3301">:coworkingSpace</text><rect fill="#E2E2F0" height="49.2188" rx="2.5" ry="2.5" style="stroke:#181818;stroke-width:0.5;" width="121" x="801.5" y="448.4063"/><text fill="#000000" font-family="sans-serif" font-size="14" lengthAdjust="spacing" textLength="82" x="821" y="469.9395">&#171;controllers&#187;</text><text fill="#000000" font-family="sans-serif" font-size="14" lengthAdjust="spacing" textLength="107" x="808.5" y="487.5488">:coworkingSpace</text><rect fill="#E2E2F0" height="49.2188" rx="2.5" ry="2.5" style="stroke:#181818;stroke-width:0.5;" width="124" x="988" y="88.1875"/><text fill="#000000" font-family="sans-serif" font-size="14" lengthAdjust="spacing" textLength="54" x="1023" y="109.7207">&#171;model&#187;</text><text fill="#000000" font-family="sans-serif" font-size="14" lengthAdjust="spacing" textLength="110" x="995" y="127.3301">:CoworkingSpace</text><rect fill="#E2E2F0" height="49.2188" rx="2.5" ry="2.5" style="stroke:#181818;stroke-width:0.5;" width="124" x="988" y="448.4063"/><text fill="#000000" font-family="sans-serif" font-size="14" lengthAdjust="spacing" textLength="54" x="1023" y="469.9395">&#171;model&#187;</text><text fill="#000000" font-family="sans-serif" font-size="14" lengthAdjust="spacing" textLength="110" x="995" y="487.5488">:CoworkingSpace</text><text fill="#000000" font-family="sans-serif" font-size="14" lengthAdjust="spacing" textLength="78" x="1184" y="117.7207">&#171;MongoDB&#187;</text><text fill="#000000" font-family="sans-serif" font-size="14" lengthAdjust="spacing" textLength="112" x="1167" y="135.3301">:coworkingspaces</text><path d="M1208,67.1875 C1208,57.1875 1226,57.1875 1226,57.1875 C1226,57.1875 1244,57.1875 1244,67.1875 L1244,93.1875 C1244,103.1875 1226,103.1875 1226,103.1875 C1226,103.1875 1208,103.1875 1208,93.1875 L1208,67.1875 " fill="#E2E2F0" style="stroke:#181818;stroke-width:1.5;"/><path d="M1208,67.1875 C1208,77.1875 1226,77.1875 1226,77.1875 C1226,77.1875 1244,77.1875 1244,67.1875 " fill="none" style="stroke:#181818;stroke-width:1.5;"/><text fill="#000000" font-family="sans-serif" font-size="14" lengthAdjust="spacing" textLength="78" x="1184" y="462.9395">&#171;MongoDB&#187;</text><text fill="#000000" font-family="sans-serif" font-size="14" lengthAdjust="spacing" textLength="112" x="1167" y="480.5488">:coworkingspaces</text><path d="M1208,493.625 C1208,483.625 1226,483.625 1226,483.625 C1226,483.625 1244,483.625 1244,493.625 L1244,519.625 C1244,529.625 1226,529.625 1226,529.625 C1226,529.625 1208,529.625 1208,519.625 L1208,493.625 " fill="#E2E2F0" style="stroke:#181818;stroke-width:1.5;"/><path d="M1208,493.625 C1208,503.625 1226,503.625 1226,503.625 C1226,503.625 1244,503.625 1244,493.625 " fill="none" style="stroke:#181818;stroke-width:1.5;"/><rect fill="#FFFFFF" height="269.6484" style="stroke:#181818;stroke-width:1.0;" width="10" x="374" y="170.7578"/><rect fill="#FFFFFF" height="239.2969" style="stroke:#181818;stroke-width:1.0;" width="10" x="705" y="201.1094"/><rect fill="#FFFFFF" height="146.7578" style="stroke:#181818;stroke-width:1.0;" width="10" x="857" y="231.4609"/><rect fill="#FFFFFF" height="178.5938" style="stroke:#181818;stroke-width:1.0;" width="10" x="1045" y="261.8125"/><rect fill="#FFFFFF" height="30.3516" style="stroke:#181818;stroke-width:1.0;" width="10" x="1221" y="292.1641"/><polygon fill="#181818" points="362,166.7578,372,170.7578,362,174.7578,366,170.7578" style="stroke:#181818;stroke-width:1.0;"/><line style="stroke:#181818;stroke-width:1.0;" x1="45" x2="368" y1="170.7578" y2="170.7578"/><text fill="#000000" font-family="sans-serif" font-size="13" lengthAdjust="spacing" textLength="310" x="52" y="165.9014">req.get('/api/v1/coworkingspaces/{coworkingSpaceId}')</text><polygon fill="#181818" points="693,197.1094,703,201.1094,693,205.1094,697,201.1094" style="stroke:#181818;stroke-width:1.0;"/><line style="stroke:#181818;stroke-width:1.0;" x1="384" x2="699" y1="201.1094" y2="201.1094"/><text fill="#000000" font-family="sans-serif" font-size="13" lengthAdjust="spacing" textLength="302" x="391" y="196.2529">app.use('/api/v1/coworkingspaces', coworkingSpace)</text><polygon fill="#181818" points="845,227.4609,855,231.4609,845,235.4609,849,231.4609" style="stroke:#181818;stroke-width:1.0;"/><line style="stroke:#181818;stroke-width:1.0;" x1="715" x2="851" y1="231.4609" y2="231.4609"/><text fill="#000000" font-family="sans-serif" font-size="13" lengthAdjust="spacing" textLength="123" x="722" y="226.6045">getCoworkingSpace()</text><polygon fill="#181818" points="1033,257.8125,1043,261.8125,1033,265.8125,1037,261.8125" style="stroke:#181818;stroke-width:1.0;"/><line style="stroke:#181818;stroke-width:1.0;" x1="867" x2="1039" y1="261.8125" y2="261.8125"/><text fill="#000000" font-family="sans-serif" font-size="13" lengthAdjust="spacing" textLength="159" x="874" y="256.9561">findById(coworkingSpaceId)</text><polygon fill="#181818" points="1209,288.1641,1219,292.1641,1209,296.1641,1213,292.1641" style="stroke:#181818;stroke-width:1.0;"/><line style="stroke:#181818;stroke-width:1.0;" x1="1055" x2="1215" y1="292.1641" y2="292.1641"/><text fill="#000000" font-family="sans-serif" font-size="13" lengthAdjust="spacing" textLength="136" x="1062" y="287.3076">query coworkingspaces</text><polygon fill="#181818" points="1066,318.5156,1056,322.5156,1066,326.5156,1062,322.5156" style="stroke:#181818;stroke-width:1.0;"/><line style="stroke:#181818;stroke-width:1.0;stroke-dasharray:2.0,2.0;" x1="1060" x2="1225" y1="322.5156" y2="322.5156"/><text fill="#000000" font-family="sans-serif" font-size="13" lengthAdjust="spacing" textLength="142" x="1072" y="317.6592">coworkingSpace (or null)</text><path d="M10,337.5156 L71,337.5156 L71,345.8672 L61,355.8672 L10,355.8672 L10,337.5156 " fill="#EEEEEE" style="stroke:#000000;stroke-width:1.5;"/><rect fill="none" height="94.8906" style="stroke:#000000;stroke-width:1.5;" width="922.5" x="10" y="337.5156"/><text fill="#000000" font-family="sans-serif" font-size="13" font-weight="bold" lengthAdjust="spacing" textLength="16" x="25" y="352.0107">alt</text><text fill="#000000" font-family="sans-serif" font-size="11" font-weight="bold" lengthAdjust="spacing" textLength="156" x="86" y="350.9346">[coworkingSpace not found]</text><polygon fill="#181818" points="56,374.2188,46,378.2188,56,382.2188,52,378.2188" style="stroke:#181818;stroke-width:1.0;"/><line style="stroke:#181818;stroke-width:1.0;" x1="50" x2="861" y1="378.2188" y2="378.2188"/><text fill="#000000" font-family="sans-serif" font-size="13" lengthAdjust="spacing" textLength="142" x="62" y="373.3623">404 No CoworkingSpace</text><line style="stroke:#000000;stroke-width:1.0;stroke-dasharray:2.0,2.0;" x1="10" x2="932.5" y1="387.2188" y2="387.2188"/><text fill="#000000" font-family="sans-serif" font-size="11" font-weight="bold" lengthAdjust="spacing" textLength="135" x="15" y="398.6377">[coworkingSpace found]</text><polygon fill="#181818" points="56,420.4063,46,424.4063,56,428.4063,52,424.4063" style="stroke:#181818;stroke-width:1.0;"/><line style="stroke:#181818;stroke-width:1.0;" x1="50" x2="861" y1="424.4063" y2="424.4063"/><text fill="#000000" font-family="sans-serif" font-size="13" lengthAdjust="spacing" textLength="172" x="62" y="419.5498">200 response {success, data}</text><text fill="#888888" font-family="sans-serif" font-size="10" lengthAdjust="spacing" textLength="183" x="1106" y="15.3809">Sample Coworking Sequence Diagram</text><!--SRC=[ZPCnRy8m48Lt_ufJ5XAL45en8PG1g113so4TkxZ9aRerjh4TAeJuxpLEAuW1gPkZU- -xTsVd0sc56WgwLXnX9h-b_cAYXW8t3OeIOSvehUcQM6QT85gWXHTnfYmKTQfuyVYQH8GegYqhcQB2GZJZ38MDW1ee_R5Rdam-wPOMfMRAvlcR61lKMzHUtnv3lPQDHUsrvLz_S-nllAaj-q0cj9PIM2qvHsswVYzlCvuarnbhMI7txjcbsnVz9wcefU_KuD7p94KjvzERcTjEyry78UsYqhnT0DpTZK7ZPb2ZZNiPLIpRtcS19zjtXrbMXrv2Ma2Qdo_5uwXIWyRWJLol3rrUGiuPQNwn9uzr2RjRYHCtJIXDyzEUl6t5H3NTBQiud24X9sMQTzVadUvzwXq4uKbNc7RwfUau60rYgK4qdBkibDkmAgI5bMn4HG2kZDBUbSUEXYDubi5VGP2xh07pVxo7uT3Tkr5IECBUDAKJc3uSNzQ1e0Fy0000]--></g></svg>