<?xml version="1.0" encoding="us-ascii" standalone="no"?><svg xmlns="http://www.w3.org/2000/svg" xmlns:xlink="http://www.w3.org/1999/xlink" contentStyleType="text/css" height="607px" preserveAspectRatio="none" style="width:1796px;height:607px;background:#FFFFFF;" version="1.1" viewBox="0 0 1796 607" width="1796px" zoomAndPan="magnify"><defs/><g><text fill="#000000" font-family="sans-serif" font-size="14" font-weight="bold" lengthAdjust="spacing" textLength="270" x="759" y="43.1113">Update CoworkingSpace (PUT) [Admin]</text><rect fill="#FFFFFF" height="330.3516" style="stroke:#181818;stroke-width:1.0;" width="10" x="374" y="170.7578"/><rect fill="#FFFFFF" height="300" style="stroke:#181818;stroke-width:1.0;" width="10" x="705" y="201.1094"/><rect fill="#FFFFFF" height="30.3516" style="stroke:#181818;stroke-width:1.0;" width="10" x="890" y="231.4609"/><rect fill="#FFFFFF" height="146.7578" style="stroke:#181818;stroke-width:1.0;" width="10" x="1011" y="292.1641"/><rect fill="#FFFFFF" height="178.5938" style="stroke:#181818;stroke-width:1.0;" width="10" x="1496" y="322.5156"/><rect fill="#FFFFFF" height="30.3516" style="stroke:#181818;stroke-width:1.0;" width="10" x="1720" y="352.8672"/><rect fill="none" height="94.8906" style="stroke:#000000;stroke-width:1.5;" width="1076.5" x="10" y="398.2188"/><line style="stroke:#181818;stroke-width:0.5;stroke-dasharray:5.0,5.0;" x1="45" x2="45" y1="138.4063" y2="510.1094"/><line style="stroke:#181818;stroke-width:0.5;stroke-dasharray:5.0,5.0;" x1="379" x2="379" y1="138.4063" y2="510.1094"/><line style="stroke:#181818;stroke-width:0.5;stroke-dasharray:5.0,5.0;" x1="710" x2="710" y1="138.4063" y2="510.1094"/><line style="stroke:#181818;stroke-width:0.5;stroke-dasharray:5.0,5.0;" x1="894.5" x2="894.5" y1="138.4063" y2="510.1094"/><line style="stroke:#181818;stroke-width:0.5;stroke-dasharray:5.0,5.0;" x1="1015.5" x2="1015.5" y1="138.4063" y2="510.1094"/><line style="stroke:#181818;stroke-width:0.5;stroke-dasharray:5.0,5.0;" x1="1501" x2="1501" y1="138.4063" y2="510.1094"/><line style="stroke:#181818;stroke-width:0.5;stroke-dasharray:5.0,5.0;" x1="1725" x2="1725" y1="138.4063" y2="510.1094"/><rect fill="#E2E2F0" height="31.6094" rx="2.5" ry="2.5" style="stroke:#181818;stroke-width:0.5;" width="50" x="20" y="105.7969"/><text fill="#000000" font-family="sans-serif" font-size="14" lengthAdjust="spacing" textLength="36" x="27" y="127.3301">Client</text><rect fill="#E2E2F0" height="31.6094" rx="2.5" ry="2.5" style="stroke:#181818;stroke-width:0.5;" width="50" x="20" y="509.1094"/><text fill="#000000" font-family="sans-serif" font-size="14" lengthAdjust="spacing" textLength="36" x="27" y="530.6426">Client</text><rect fill="#E2E2F0" height="49.2188" rx="2.5" ry="2.5" style="stroke:#181818;stroke-width:0.5;" width="92" x="333" y="88.1875"/><text fill="#000000" font-family="sans-serif" font-size="14" lengthAdjust="spacing" textLength="78" x="340" y="109.7207">&#171;javaScript&#187;</text><text fill="#000000" font-family="sans-serif" font-size="14" lengthAdjust="spacing" textLength="44" x="357" y="127.3301">:server</text><rect fill="#E2E2F0" height="49.2188" rx="2.5" ry="2.5" style="stroke:#181818;stroke-width:0.5;" width="92" x="333" y="509.1094"/><text fill="#000000" font-family="sans-serif" font-size="14" lengthAdjust="spacing" textLength="78" x="340" y="530.6426">&#171;javaScript&#187;</text><text fill="#000000" font-family="sans-serif" font-size="14" lengthAdjust="spacing" textLength="44" x="357" y="548.252">:server</text><rect fill="#E2E2F0" height="49.2188" rx="2.5" ry="2.5" style="stroke:#181818;stroke-width:0.5;" width="126" x="647" y="88.1875"/><text fill="#000000" font-family="sans-serif" font-size="14" lengthAdjust="spacing" textLength="54" x="683" y="109.7207">&#171;router&#187;</text><text fill="#000000" font-family="sans-serif" font-size="14" lengthAdjust="spacing" textLength="112" x="654" y="127.3301">:coworkingspaces</text><rect fill="#E2E2F0" height="49.2188" rx="2.5" ry="2.5" style="stroke:#181818;stroke-width:0.5;" width="126" x="647" y="509.1094"/><text fill="#000000" font-family="sans-serif" font-size="14" lengthAdjust="spacing" textLength="54" x="683" y="530.6426">&#171;router&#187;</text><text fill="#000000" font-family="sans-serif" font-size="14" lengthAdjust="spacing" textLength="112" x="654" y="548.252">:coworkingspaces</text><rect fill="#E2E2F0" height="49.2188" rx="2.5" ry="2.5" style="stroke:#181818;stroke-width:0.5;" width="101" x="844.5" y="88.1875"/><text fill="#000000" font-family="sans-serif" font-size="14" lengthAdjust="spacing" textLength="87" x="851.5" y="109.7207">&#171;middleware&#187;</text><text fill="#000000" font-family="sans-serif" font-size="14" lengthAdjust="spacing" textLength="32" x="879" y="127.3301">:auth</text><rect fill="#E2E2F0" height="49.2188" rx="2.5" ry="2.5" style="stroke:#181818;stroke-width:0.5;" width="101" x="844.5" y="509.1094"/><text fill="#000000" font-family="sans-serif" font-size="14" lengthAdjust="spacing" textLength="87" x="851.5" y="530.6426">&#171;middleware&#187;</text><text fill="#000000" font-family="sans-serif" font-size="14" lengthAdjust="spacing" textLength="32" x="879" y="548.252">:auth</text><rect fill="#E2E2F0" height="49.2188" rx="2.5" ry="2.5" style="stroke:#181818;stroke-width:0.5;" width="121" x="955.5" y="88.1875"/><text fill="#000000" font-family="sans-serif" font-size="14" lengthAdjust="spacing" textLength="82" x="975" y="109.7207">&#171;controllers&#187;</text><text fill="#000000" font-family="sans-serif" font-size="14" lengthAdjust="spacing" textLength="107" x="962.5" y="127.3301">:coworkingSpace</text><rect fill="#E2E2F0" height="49.2188" rx="2.5" ry="2.5" style="stroke:#181818;stroke-width:0.5;" width="121" x="955.5" y="509.1094"/><text fill="#000000" font-family="sans-serif" font-size="14" lengthAdjust="spacing" textLength="82" x="975" y="530.6426">&#171;controllers&#187;</text><text fill="#000000" font-family="sans-serif" font-size="14" lengthAdjust="spacing" textLength="107" x="962.5" y="548.252">:coworkingSpace</text><rect fill="#E2E2F0" height="49.2188" rx="2.5" ry="2.5" style="stroke:#181818;stroke-width:0.5;" width="124" x="1439" y="88.1875"/><text fill="#000000" font-family="sans-serif" font-size="14" lengthAdjust="spacing" textLength="54" x="1474" y="109.7207">&#171;model&#187;</text><text fill="#000000" font-family="sans-serif" font-size="14" lengthAdjust="spacing" textLength="110" x="1446" y="127.3301">:CoworkingSpace</text><rect fill="#E2E2F0" height="49.2188" rx="2.5" ry="2.5" style="stroke:#181818;stroke-width:0.5;" width="124" x="1439" y="509.1094"/><text fill="#000000" font-family="sans-serif" font-size="14" lengthAdjust="spacing" textLength="54" x="1474" y="530.6426">&#171;model&#187;</text><text fill="#000000" font-family="sans-serif" font-size="14" lengthAdjust="spacing" textLength="110" x="1446" y="548.252">:CoworkingSpace</text><text fill="#000000" font-family="sans-serif" font-size="14" lengthAdjust="spacing" textLength="78" x="1683" y="117.7207">&#171;MongoDB&#187;</text><text fill="#000000" font-family="sans-serif" font-size="14" lengthAdjust="spacing" textLength="112" x="1666" y="135.3301">:coworkingspaces</text><path d="M1707,67.1875 C1707,57.1875 1725,57.1875 1725,57.1875 C1725,57.1875 1743,57.1875 1743,67.1875 L1743,93.1875 C1743,103.1875 1725,103.1875 1725,103.1875 C1725,103.1875 1707,103.1875 1707,93.1875 L1707,67.1875 " fill="#E2E2F0" style="stroke:#181818;stroke-width:1.5;"/><path d="M1707,67.1875 C1707,77.1875 1725,77.1875 1725,77.1875 C1725,77.1875 1743,77.1875 1743,67.1875 " fill="none" style="stroke:#181818;stroke-width:1.5;"/><text fill="#000000" font-family="sans-serif" font-size="14" lengthAdjust="spacing" textLength="78" x="1683" y="523.6426">&#171;MongoDB&#187;</text><text fill="#000000" font-family="sans-serif" font-size="14" lengthAdjust="spacing" textLength="112" x="1666" y="541.252">:coworkingspaces</text><path d="M1707,554.3281 C1707,544.3281 1725,544.3281 1725,544.3281 C1725,544.3281 1743,544.3281 1743,554.3281 L1743,580.3281 C1743,590.3281 1725,590.3281 1725,590.3281 C1725,590.3281 1707,590.3281 1707,580.3281 L1707,554.3281 " fill="#E2E2F0" style="stroke:#181818;stroke-width:1.5;"/><path d="M1707,554.3281 C1707,564.3281 1725,564.3281 1725,564.3281 C1725,564.3281 1743,564.3281 1743,554.3281 " fill="none" style="stroke:#181818;stroke-width:1.5;"/><rect fill="#FFFFFF" height="330.3516" style="stroke:#181818;stroke-width:1.0;" width="10" x="374" y="170.7578"/><rect fill="#FFFFFF" height="300" style="stroke:#181818;stroke-width:1.0;" width="10" x="705" y="201.1094"/><rect fill="#FFFFFF" height="30.3516" style="stroke:#181818;stroke-width:1.0;" width="10" x="890" y="231.4609"/><rect fill="#FFFFFF" height="146.7578" style="stroke:#181818;stroke-width:1.0;" width="10" x="1011" y="292.1641"/><rect fill="#FFFFFF" height="178.5938" style="stroke:#181818;stroke-width:1.0;" width="10" x="1496" y="322.5156"/><rect fill="#FFFFFF" height="30.3516" style="stroke:#181818;stroke-width:1.0;" width="10" x="1720" y="352.8672"/><polygon fill="#181818" points="362,166.7578,372,170.7578,362,174.7578,366,170.7578" style="stroke:#181818;stroke-width:1.0;"/><line style="stroke:#181818;stroke-width:1.0;" x1="45" x2="368" y1="170.7578" y2="170.7578"/><text fill="#000000" font-family="sans-serif" font-size="13" lengthAdjust="spacing" textLength="310" x="52" y="165.9014">req.put('/api/v1/coworkingspaces/{coworkingSpaceId}')</text><polygon fill="#181818" points="693,197.1094,703,201.1094,693,205.1094,697,201.1094" style="stroke:#181818;stroke-width:1.0;"/><line style="stroke:#181818;stroke-width:1.0;" x1="384" x2="699" y1="201.1094" y2="201.1094"/><text fill="#000000" font-family="sans-serif" font-size="13" lengthAdjust="spacing" textLength="302" x="391" y="196.2529">app.use('/api/v1/coworkingspaces', coworkingSpace)</text><polygon fill="#181818" points="878,227.4609,888,231.4609,878,235.4609,882,231.4609" style="stroke:#181818;stroke-width:1.0;"/><line style="stroke:#181818;stroke-width:1.0;" x1="715" x2="884" y1="231.4609" y2="231.4609"/><text fill="#000000" font-family="sans-serif" font-size="13" lengthAdjust="spacing" textLength="156" x="722" y="226.6045">protect + authorize('admin')</text><polygon fill="#181818" points="726,257.8125,716,261.8125,726,265.8125,722,261.8125" style="stroke:#181818;stroke-width:1.0;"/><line style="stroke:#181818;stroke-width:1.0;stroke-dasharray:2.0,2.0;" x1="720" x2="894" y1="261.8125" y2="261.8125"/><text fill="#000000" font-family="sans-serif" font-size="13" lengthAdjust="spacing" textLength="33" x="732" y="256.9561">next()</text><polygon fill="#181818" points="999,288.1641,1009,292.1641,999,296.1641,1003,292.1641" style="stroke:#181818;stroke-width:1.0;"/><line style="stroke:#181818;stroke-width:1.0;" x1="715" x2="1005" y1="292.1641" y2="292.1641"/><text fill="#000000" font-family="sans-serif" font-size="13" lengthAdjust="spacing" textLength="144" x="722" y="287.3076">updateCoworkingSpace()</text><polygon fill="#181818" points="1484,318.5156,1494,322.5156,1484,326.5156,1488,322.5156" style="stroke:#181818;stroke-width:1.0;"/><line style="stroke:#181818;stroke-width:1.0;" x1="1021" x2="1490" y1="322.5156" y2="322.5156"/><text fill="#000000" font-family="sans-serif" font-size="13" lengthAdjust="spacing" textLength="456" x="1028" y="317.6592">findByIdAndUpdate(coworkingSpaceId, req.body, {new:true, runValidators:true})</text><polygon fill="#181818" points="1708,348.8672,1718,352.8672,1708,356.8672,1712,352.8672" style="stroke:#181818;stroke-width:1.0;"/><line style="stroke:#181818;stroke-width:1.0;" x1="1506" x2="1714" y1="352.8672" y2="352.8672"/><text fill="#000000" font-family="sans-serif" font-size="13" lengthAdjust="spacing" textLength="138" x="1513" y="348.0107">update coworkingSpace</text><polygon fill="#181818" points="1517,379.2188,1507,383.2188,1517,387.2188,1513,383.2188" style="stroke:#181818;stroke-width:1.0;"/><line style="stroke:#181818;stroke-width:1.0;stroke-dasharray:2.0,2.0;" x1="1511" x2="1724" y1="383.2188" y2="383.2188"/><text fill="#000000" font-family="sans-serif" font-size="13" lengthAdjust="spacing" textLength="190" x="1523" y="378.3623">updatedCoworkingSpace (or null)</text><path d="M10,398.2188 L71,398.2188 L71,406.5703 L61,416.5703 L10,416.5703 L10,398.2188 " fill="#EEEEEE" style="stroke:#000000;stroke-width:1.5;"/><rect fill="none" height="94.8906" style="stroke:#000000;stroke-width:1.5;" width="1076.5" x="10" y="398.2188"/><text fill="#000000" font-family="sans-serif" font-size="13" font-weight="bold" lengthAdjust="spacing" textLength="16" x="25" y="412.7139">alt</text><text fill="#000000" font-family="sans-serif" font-size="11" font-weight="bold" lengthAdjust="spacing" textLength="156" x="86" y="411.6377">[coworkingSpace not found]</text><polygon fill="#181818" points="56,434.9219,46,438.9219,56,442.9219,52,438.9219" style="stroke:#181818;stroke-width:1.0;"/><line style="stroke:#181818;stroke-width:1.0;" x1="50" x2="1015" y1="438.9219" y2="438.9219"/><text fill="#000000" font-family="sans-serif" font-size="13" lengthAdjust="spacing" textLength="142" x="62" y="434.0654">404 No CoworkingSpace</text><line style="stroke:#000000;stroke-width:1.0;stroke-dasharray:2.0,2.0;" x1="10" x2="1086.5" y1="447.9219" y2="447.9219"/><text fill="#000000" font-family="sans-serif" font-size="11" font-weight="bold" lengthAdjust="spacing" textLength="148" x="15" y="459.3408">[coworkingSpace updated]</text><polygon fill="#181818" points="56,481.1094,46,485.1094,56,489.1094,52,485.1094" style="stroke:#181818;stroke-width:1.0;"/><line style="stroke:#181818;stroke-width:1.0;" x1="50" x2="1015" y1="485.1094" y2="485.1094"/><text fill="#000000" font-family="sans-serif" font-size="13" lengthAdjust="spacing" textLength="172" x="62" y="480.2529">200 response {success, data}</text><text fill="#888888" font-family="sans-serif" font-size="10" lengthAdjust="spacing" textLength="183" x="1605" y="15.3809">Sample Coworking Sequence Diagram</text><!--SRC=[XLDDRnen4BtxLuou088DjCe9HIiHkEJGgX9DBsqFa_M4E3MsumzeYlZlzTfDmfgYt7R7xxrvyyP-8EHaOOKR8maMUgVjBw7MiAAdGAeXM0fSMzmmBtm4z6uDHty4N1cCeC6Nswz3-3xd6w5-zXWpQBreX47beRUGWfJl0JfeqcVt-Ehg4RUuQgmmlgv_g9aZkoMRyFcpn5iTFDc4RLvykDQ7IwHyd8ovaheHd4lQeQL4n-0V4kUjFe-bajLevQsMagphTarDycHla3ETDIUPs8jJTZfClop6YtVegELyqcgjbzTd9ysTblyOZELugph71gFH32mzNPZW1_q96Z7PVfWKEfDzTvWRVkWFMHQewkCeanmQSn4SdPNhZw6hDsJiMAIgkqadKMErfyR32DfzQ2l-n0ROtgLefOkl2azLDGD5l_tWfC_9GbAhaAvlTmCjzmGTZRxk937lXUBNppTyhdX-0uCok74A-qxpvp7i5UrctWQAnQ2-eHIHegrBjKESwbMyghjRFB9PHCcwmAfZiGqYitZvDhK55QICKwBqXIOexU5U1yKPm7z2o3SggLzEB-6pBbu-8-bAdoy-tbNyE9t6o9pHAchiNMWYm8sXVG47Hj7INm00]--></g></svg>