<?xml version="1.0" encoding="us-ascii" standalone="no"?><svg xmlns="http://www.w3.org/2000/svg" xmlns:xlink="http://www.w3.org/1999/xlink" contentStyleType="text/css" height="988px" preserveAspectRatio="none" style="width:2068px;height:988px;background:#FFFFFF;" version="1.1" viewBox="0 0 2068 988" width="2068px" zoomAndPan="magnify"><defs/><g><!--cluster Coworking Reservation API--><g id="cluster_Coworking Reservation API"><path d="M8.5,6 L200.5,6 A3.75,3.75 0 0 1 203,8.5 L210,29.6094 L2058.5,29.6094 A2.5,2.5 0 0 1 2061,32.1094 L2061,978.5 A2.5,2.5 0 0 1 2058.5,981 L8.5,981 A2.5,2.5 0 0 1 6,978.5 L6,8.5 A2.5,2.5 0 0 1 8.5,6 " fill="none" style="stroke:#000000;stroke-width:1.5;"/><line style="stroke:#000000;stroke-width:1.5;" x1="6" x2="210" y1="29.6094" y2="29.6094"/><text fill="#000000" font-family="sans-serif" font-size="14" font-weight="bold" lengthAdjust="spacing" textLength="191" x="10" y="22.5332">Coworking Reservation API</text></g><!--cluster Auth--><g id="cluster_Auth"><path d="M453,606 L486,606 A3.75,3.75 0 0 1 488.5,608.5 L495.5,629.6094 L1267.5,629.6094 A2.5,2.5 0 0 1 1270,632.1094 L1270,954.5 A2.5,2.5 0 0 1 1267.5,957 L453,957 A2.5,2.5 0 0 1 450.5,954.5 L450.5,608.5 A2.5,2.5 0 0 1 453,606 " fill="none" style="stroke:#000000;stroke-width:1.5;"/><line style="stroke:#000000;stroke-width:1.5;" x1="450.5" x2="495.5" y1="629.6094" y2="629.6094"/><text fill="#000000" font-family="sans-serif" font-size="14" font-weight="bold" lengthAdjust="spacing" textLength="32" x="454.5" y="622.5332">Auth</text></g><!--cluster CoworkingSpace--><g id="cluster_CoworkingSpace"><path d="M397.5,328 L516.5,328 A3.75,3.75 0 0 1 519,330.5 L526,351.6094 L1724.5,351.6094 A2.5,2.5 0 0 1 1727,354.1094 L1727,579.5 A2.5,2.5 0 0 1 1724.5,582 L397.5,582 A2.5,2.5 0 0 1 395,579.5 L395,330.5 A2.5,2.5 0 0 1 397.5,328 " fill="none" style="stroke:#000000;stroke-width:1.5;"/><line style="stroke:#000000;stroke-width:1.5;" x1="395" x2="526" y1="351.6094" y2="351.6094"/><text fill="#000000" font-family="sans-serif" font-size="14" font-weight="bold" lengthAdjust="spacing" textLength="118" x="399" y="344.5332">CoworkingSpace</text></g><!--cluster Reservation--><g id="cluster_Reservation"><path d="M1032,50 L1119,50 A3.75,3.75 0 0 1 1121.5,52.5 L1128.5,73.6094 L2034.5,73.6094 A2.5,2.5 0 0 1 2037,76.1094 L2037,301.5 A2.5,2.5 0 0 1 2034.5,304 L1032,304 A2.5,2.5 0 0 1 1029.5,301.5 L1029.5,52.5 A2.5,2.5 0 0 1 1032,50 " fill="none" style="stroke:#000000;stroke-width:1.5;"/><line style="stroke:#000000;stroke-width:1.5;" x1="1029.5" x2="1128.5" y1="73.6094" y2="73.6094"/><text fill="#000000" font-family="sans-serif" font-size="14" font-weight="bold" lengthAdjust="spacing" textLength="86" x="1033.5" y="66.5332">Reservation</text></g><!--class AppService--><g id="elem_AppService"><rect codeLine="5" fill="#F1F1F1" height="61.2188" id="AppService" rx="2.5" ry="2.5" style="stroke:#181818;stroke-width:0.5;" width="221" x="22" y="381.5"/><ellipse cx="37" cy="404.1094" fill="#ADD1B2" rx="11" ry="11" style="stroke:#181818;stroke-width:1.0;"/><path d="M39.7656,399.9844 Q39.9219,399.7656 40.1094,399.6563 Q40.2969,399.5469 40.5156,399.5469 Q40.8906,399.5469 41.125,399.8125 Q41.3594,400.0625 41.3594,400.6719 L41.3594,402.125 Q41.3594,402.7344 41.125,403 Q40.8906,403.2656 40.5156,403.2656 Q40.1719,403.2656 39.9688,403.0625 Q39.7656,402.875 39.6563,402.3594 Q39.6094,402 39.4219,401.8125 Q39.0938,401.4375 38.4844,401.2188 Q37.875,401 37.25,401 Q36.4844,401 35.8438,401.3281 Q35.2188,401.6563 34.7188,402.4063 Q34.2344,403.1563 34.2344,404.1875 L34.2344,405.2813 Q34.2344,406.5156 35.125,407.3438 Q36.0156,408.1563 37.6094,408.1563 Q38.5469,408.1563 39.2031,407.9063 Q39.5938,407.75 40.0156,407.3125 Q40.2813,407.0469 40.4219,406.9688 Q40.5781,406.8906 40.7813,406.8906 Q41.1094,406.8906 41.3594,407.1563 Q41.625,407.4063 41.625,407.75 Q41.625,408.0938 41.2813,408.5 Q40.7813,409.0781 39.9844,409.4063 Q38.9063,409.8594 37.6094,409.8594 Q36.0938,409.8594 34.8906,409.2344 Q33.9063,408.7344 33.2188,407.6719 Q32.5313,406.5938 32.5313,405.3125 L32.5313,404.1563 Q32.5313,402.8281 33.1406,401.6875 Q33.7656,400.5313 34.8594,399.9219 Q35.9531,399.2969 37.1875,399.2969 Q37.9219,399.2969 38.5625,399.4688 Q39.2188,399.625 39.7656,399.9844 Z " fill="#000000"/><text fill="#000000" font-family="sans-serif" font-size="14" lengthAdjust="spacing" textLength="85" x="103" y="401.0332">&#171;Application&#187;</text><text fill="#000000" font-family="sans-serif" font-size="14" lengthAdjust="spacing" textLength="189" x="51" y="418.6426">CoworkingReservationService</text><line style="stroke:#181818;stroke-width:0.5;" x1="23" x2="242" y1="426.7188" y2="426.7188"/><line style="stroke:#181818;stroke-width:0.5;" x1="23" x2="242" y1="434.7188" y2="434.7188"/></g><!--class ResourceAuth--><g id="elem_ResourceAuth"><rect codeLine="8" fill="#F1F1F1" height="131.6563" id="ResourceAuth" rx="2.5" ry="2.5" style="stroke:#181818;stroke-width:0.5;" width="237" x="466.5" y="642"/><ellipse cx="542.25" cy="664.6094" fill="#ADD1B2" rx="11" ry="11" style="stroke:#181818;stroke-width:1.0;"/><path d="M545.0156,660.4844 Q545.1719,660.2656 545.3594,660.1563 Q545.5469,660.0469 545.7656,660.0469 Q546.1406,660.0469 546.375,660.3125 Q546.6094,660.5625 546.6094,661.1719 L546.6094,662.625 Q546.6094,663.2344 546.375,663.5 Q546.1406,663.7656 545.7656,663.7656 Q545.4219,663.7656 545.2188,663.5625 Q545.0156,663.375 544.9063,662.8594 Q544.8594,662.5 544.6719,662.3125 Q544.3438,661.9375 543.7344,661.7188 Q543.125,661.5 542.5,661.5 Q541.7344,661.5 541.0938,661.8281 Q540.4688,662.1563 539.9688,662.9063 Q539.4844,663.6563 539.4844,664.6875 L539.4844,665.7813 Q539.4844,667.0156 540.375,667.8438 Q541.2656,668.6563 542.8594,668.6563 Q543.7969,668.6563 544.4531,668.4063 Q544.8438,668.25 545.2656,667.8125 Q545.5313,667.5469 545.6719,667.4688 Q545.8281,667.3906 546.0313,667.3906 Q546.3594,667.3906 546.6094,667.6563 Q546.875,667.9063 546.875,668.25 Q546.875,668.5938 546.5313,669 Q546.0313,669.5781 545.2344,669.9063 Q544.1563,670.3594 542.8594,670.3594 Q541.3438,670.3594 540.1406,669.7344 Q539.1563,669.2344 538.4688,668.1719 Q537.7813,667.0938 537.7813,665.8125 L537.7813,664.6563 Q537.7813,663.3281 538.3906,662.1875 Q539.0156,661.0313 540.1094,660.4219 Q541.2031,659.7969 542.4375,659.7969 Q543.1719,659.7969 543.8125,659.9688 Q544.4688,660.125 545.0156,660.4844 Z " fill="#000000"/><text fill="#000000" font-family="sans-serif" font-size="14" lengthAdjust="spacing" textLength="77" x="562.75" y="661.5332">&#171;Resource&#187;</text><text fill="#000000" font-family="sans-serif" font-size="14" lengthAdjust="spacing" textLength="29" x="586.75" y="679.1426">Auth</text><line style="stroke:#181818;stroke-width:0.5;" x1="467.5" x2="702.5" y1="687.2188" y2="687.2188"/><line style="stroke:#181818;stroke-width:0.5;" x1="467.5" x2="702.5" y1="695.2188" y2="695.2188"/><text fill="#000000" font-family="sans-serif" font-size="14" lengthAdjust="spacing" textLength="225" x="472.5" y="713.752">&#171;POST&#187; +register(): AuthResponse</text><text fill="#000000" font-family="sans-serif" font-size="14" lengthAdjust="spacing" textLength="207" x="472.5" y="731.3613">&#171;POST&#187; +login(): AuthResponse</text><text fill="#000000" font-family="sans-serif" font-size="14" lengthAdjust="spacing" textLength="140" x="472.5" y="748.9707">&#171;GET&#187; +logout(): void</text><text fill="#000000" font-family="sans-serif" font-size="14" lengthAdjust="spacing" textLength="143" x="472.5" y="766.5801">&#171;GET&#187; +getMe(): User</text></g><!--class RepresentationUser--><g id="elem_RepresentationUser"><rect codeLine="15" fill="#F1F1F1" height="166.875" id="RepresentationUser" rx="2.5" ry="2.5" style="stroke:#181818;stroke-width:0.5;" width="145" x="1109" y="773.5"/><ellipse cx="1124" cy="796.1094" fill="#ADD1B2" rx="11" ry="11" style="stroke:#181818;stroke-width:1.0;"/><path d="M1126.7656,791.9844 Q1126.9219,791.7656 1127.1094,791.6563 Q1127.2969,791.5469 1127.5156,791.5469 Q1127.8906,791.5469 1128.125,791.8125 Q1128.3594,792.0625 1128.3594,792.6719 L1128.3594,794.125 Q1128.3594,794.7344 1128.125,795 Q1127.8906,795.2656 1127.5156,795.2656 Q1127.1719,795.2656 1126.9688,795.0625 Q1126.7656,794.875 1126.6563,794.3594 Q1126.6094,794 1126.4219,793.8125 Q1126.0938,793.4375 1125.4844,793.2188 Q1124.875,793 1124.25,793 Q1123.4844,793 1122.8438,793.3281 Q1122.2188,793.6563 1121.7188,794.4063 Q1121.2344,795.1563 1121.2344,796.1875 L1121.2344,797.2813 Q1121.2344,798.5156 1122.125,799.3438 Q1123.0156,800.1563 1124.6094,800.1563 Q1125.5469,800.1563 1126.2031,799.9063 Q1126.5938,799.75 1127.0156,799.3125 Q1127.2813,799.0469 1127.4219,798.9688 Q1127.5781,798.8906 1127.7813,798.8906 Q1128.1094,798.8906 1128.3594,799.1563 Q1128.625,799.4063 1128.625,799.75 Q1128.625,800.0938 1128.2813,800.5 Q1127.7813,801.0781 1126.9844,801.4063 Q1125.9063,801.8594 1124.6094,801.8594 Q1123.0938,801.8594 1121.8906,801.2344 Q1120.9063,800.7344 1120.2188,799.6719 Q1119.5313,798.5938 1119.5313,797.3125 L1119.5313,796.1563 Q1119.5313,794.8281 1120.1406,793.6875 Q1120.7656,792.5313 1121.8594,791.9219 Q1122.9531,791.2969 1124.1875,791.2969 Q1124.9219,791.2969 1125.5625,791.4688 Q1126.2188,791.625 1126.7656,791.9844 Z " fill="#000000"/><text fill="#000000" font-family="sans-serif" font-size="14" lengthAdjust="spacing" textLength="113" x="1138" y="793.0332">&#171;Representation&#187;</text><text fill="#000000" font-family="sans-serif" font-size="14" lengthAdjust="spacing" textLength="29" x="1180" y="810.6426">User</text><line style="stroke:#181818;stroke-width:0.5;" x1="1110" x2="1253" y1="818.7188" y2="818.7188"/><rect fill="none" height="6" style="stroke:#C82930;stroke-width:1.0;" width="6" x="1117" y="830.0234"/><text fill="#000000" font-family="sans-serif" font-size="14" lengthAdjust="spacing" textLength="35" x="1129" y="837.252">name</text><rect fill="none" height="6" style="stroke:#C82930;stroke-width:1.0;" width="6" x="1117" y="847.6328"/><text fill="#000000" font-family="sans-serif" font-size="14" lengthAdjust="spacing" textLength="33" x="1129" y="854.8613">email</text><rect fill="none" height="6" style="stroke:#C82930;stroke-width:1.0;" width="6" x="1117" y="865.2422"/><text fill="#000000" font-family="sans-serif" font-size="14" lengthAdjust="spacing" textLength="15" x="1129" y="872.4707">tel</text><rect fill="none" height="6" style="stroke:#C82930;stroke-width:1.0;" width="6" x="1117" y="882.8516"/><text fill="#000000" font-family="sans-serif" font-size="14" lengthAdjust="spacing" textLength="60" x="1129" y="890.0801">password</text><rect fill="none" height="6" style="stroke:#C82930;stroke-width:1.0;" width="6" x="1117" y="900.4609"/><text fill="#000000" font-family="sans-serif" font-size="14" lengthAdjust="spacing" textLength="24" x="1129" y="907.6895">role</text><rect fill="none" height="6" style="stroke:#C82930;stroke-width:1.0;" width="6" x="1117" y="918.0703"/><text fill="#000000" font-family="sans-serif" font-size="14" lengthAdjust="spacing" textLength="61" x="1129" y="925.2988">createdAt</text><line style="stroke:#181818;stroke-width:0.5;" x1="1110" x2="1253" y1="932.375" y2="932.375"/></g><!--class RepresentationAuthResponse--><g id="elem_RepresentationAuthResponse"><rect codeLine="24" fill="#F1F1F1" height="96.4375" id="RepresentationAuthResponse" rx="2.5" ry="2.5" style="stroke:#181818;stroke-width:0.5;" width="145" x="1109" y="642"/><ellipse cx="1124" cy="664.6094" fill="#ADD1B2" rx="11" ry="11" style="stroke:#181818;stroke-width:1.0;"/><path d="M1126.7656,660.4844 Q1126.9219,660.2656 1127.1094,660.1563 Q1127.2969,660.0469 1127.5156,660.0469 Q1127.8906,660.0469 1128.125,660.3125 Q1128.3594,660.5625 1128.3594,661.1719 L1128.3594,662.625 Q1128.3594,663.2344 1128.125,663.5 Q1127.8906,663.7656 1127.5156,663.7656 Q1127.1719,663.7656 1126.9688,663.5625 Q1126.7656,663.375 1126.6563,662.8594 Q1126.6094,662.5 1126.4219,662.3125 Q1126.0938,661.9375 1125.4844,661.7188 Q1124.875,661.5 1124.25,661.5 Q1123.4844,661.5 1122.8438,661.8281 Q1122.2188,662.1563 1121.7188,662.9063 Q1121.2344,663.6563 1121.2344,664.6875 L1121.2344,665.7813 Q1121.2344,667.0156 1122.125,667.8438 Q1123.0156,668.6563 1124.6094,668.6563 Q1125.5469,668.6563 1126.2031,668.4063 Q1126.5938,668.25 1127.0156,667.8125 Q1127.2813,667.5469 1127.4219,667.4688 Q1127.5781,667.3906 1127.7813,667.3906 Q1128.1094,667.3906 1128.3594,667.6563 Q1128.625,667.9063 1128.625,668.25 Q1128.625,668.5938 1128.2813,669 Q1127.7813,669.5781 1126.9844,669.9063 Q1125.9063,670.3594 1124.6094,670.3594 Q1123.0938,670.3594 1121.8906,669.7344 Q1120.9063,669.2344 1120.2188,668.1719 Q1119.5313,667.0938 1119.5313,665.8125 L1119.5313,664.6563 Q1119.5313,663.3281 1120.1406,662.1875 Q1120.7656,661.0313 1121.8594,660.4219 Q1122.9531,659.7969 1124.1875,659.7969 Q1124.9219,659.7969 1125.5625,659.9688 Q1126.2188,660.125 1126.7656,660.4844 Z " fill="#000000"/><text fill="#000000" font-family="sans-serif" font-size="14" lengthAdjust="spacing" textLength="113" x="1138" y="661.5332">&#171;Representation&#187;</text><text fill="#000000" font-family="sans-serif" font-size="14" lengthAdjust="spacing" textLength="93" x="1148" y="679.1426">AuthResponse</text><line style="stroke:#181818;stroke-width:0.5;" x1="1110" x2="1253" y1="687.2188" y2="687.2188"/><rect fill="none" height="6" style="stroke:#C82930;stroke-width:1.0;" width="6" x="1117" y="698.5234"/><text fill="#000000" font-family="sans-serif" font-size="14" lengthAdjust="spacing" textLength="51" x="1129" y="705.752">success</text><rect fill="none" height="6" style="stroke:#C82930;stroke-width:1.0;" width="6" x="1117" y="716.1328"/><text fill="#000000" font-family="sans-serif" font-size="14" lengthAdjust="spacing" textLength="35" x="1129" y="723.3613">token</text><line style="stroke:#181818;stroke-width:0.5;" x1="1110" x2="1253" y1="730.4375" y2="730.4375"/></g><!--class ResourceCoworkingSpaces--><g id="elem_ResourceCoworkingSpaces"><rect codeLine="31" fill="#F1F1F1" height="96.4375" id="ResourceCoworkingSpaces" rx="2.5" ry="2.5" style="stroke:#181818;stroke-width:0.5;" width="348" x="411" y="364"/><ellipse cx="524.25" cy="386.6094" fill="#ADD1B2" rx="11" ry="11" style="stroke:#181818;stroke-width:1.0;"/><path d="M527.0156,382.4844 Q527.1719,382.2656 527.3594,382.1563 Q527.5469,382.0469 527.7656,382.0469 Q528.1406,382.0469 528.375,382.3125 Q528.6094,382.5625 528.6094,383.1719 L528.6094,384.625 Q528.6094,385.2344 528.375,385.5 Q528.1406,385.7656 527.7656,385.7656 Q527.4219,385.7656 527.2188,385.5625 Q527.0156,385.375 526.9063,384.8594 Q526.8594,384.5 526.6719,384.3125 Q526.3438,383.9375 525.7344,383.7188 Q525.125,383.5 524.5,383.5 Q523.7344,383.5 523.0938,383.8281 Q522.4688,384.1563 521.9688,384.9063 Q521.4844,385.6563 521.4844,386.6875 L521.4844,387.7813 Q521.4844,389.0156 522.375,389.8438 Q523.2656,390.6563 524.8594,390.6563 Q525.7969,390.6563 526.4531,390.4063 Q526.8438,390.25 527.2656,389.8125 Q527.5313,389.5469 527.6719,389.4688 Q527.8281,389.3906 528.0313,389.3906 Q528.3594,389.3906 528.6094,389.6563 Q528.875,389.9063 528.875,390.25 Q528.875,390.5938 528.5313,391 Q528.0313,391.5781 527.2344,391.9063 Q526.1563,392.3594 524.8594,392.3594 Q523.3438,392.3594 522.1406,391.7344 Q521.1563,391.2344 520.4688,390.1719 Q519.7813,389.0938 519.7813,387.8125 L519.7813,386.6563 Q519.7813,385.3281 520.3906,384.1875 Q521.0156,383.0313 522.1094,382.4219 Q523.2031,381.7969 524.4375,381.7969 Q525.1719,381.7969 525.8125,381.9688 Q526.4688,382.125 527.0156,382.4844 Z " fill="#000000"/><text fill="#000000" font-family="sans-serif" font-size="14" lengthAdjust="spacing" textLength="77" x="562.75" y="383.5332">&#171;Resource&#187;</text><text fill="#000000" font-family="sans-serif" font-size="14" lengthAdjust="spacing" textLength="113" x="544.75" y="401.1426">CoworkingSpaces</text><line style="stroke:#181818;stroke-width:0.5;" x1="412" x2="758" y1="409.2188" y2="409.2188"/><line style="stroke:#181818;stroke-width:0.5;" x1="412" x2="758" y1="417.2188" y2="417.2188"/><text fill="#000000" font-family="sans-serif" font-size="14" lengthAdjust="spacing" textLength="314" x="417" y="435.752">&#171;GET&#187; +getCoworkingSpaces(): CoworkingSpace</text><text fill="#000000" font-family="sans-serif" font-size="14" lengthAdjust="spacing" textLength="336" x="417" y="453.3613">&#171;POST&#187; +createCoworkingSpace(): CoworkingSpace</text></g><!--class ResourceCoworkingSpace--><g id="elem_ResourceCoworkingSpace"><rect codeLine="36" fill="#F1F1F1" height="114.0469" id="ResourceCoworkingSpace" rx="2.5" ry="2.5" style="stroke:#181818;stroke-width:0.5;" width="341" x="1011" y="452"/><ellipse cx="1124.25" cy="474.6094" fill="#ADD1B2" rx="11" ry="11" style="stroke:#181818;stroke-width:1.0;"/><path d="M1127.0156,470.4844 Q1127.1719,470.2656 1127.3594,470.1563 Q1127.5469,470.0469 1127.7656,470.0469 Q1128.1406,470.0469 1128.375,470.3125 Q1128.6094,470.5625 1128.6094,471.1719 L1128.6094,472.625 Q1128.6094,473.2344 1128.375,473.5 Q1128.1406,473.7656 1127.7656,473.7656 Q1127.4219,473.7656 1127.2188,473.5625 Q1127.0156,473.375 1126.9063,472.8594 Q1126.8594,472.5 1126.6719,472.3125 Q1126.3438,471.9375 1125.7344,471.7188 Q1125.125,471.5 1124.5,471.5 Q1123.7344,471.5 1123.0938,471.8281 Q1122.4688,472.1563 1121.9688,472.9063 Q1121.4844,473.6563 1121.4844,474.6875 L1121.4844,475.7813 Q1121.4844,477.0156 1122.375,477.8438 Q1123.2656,478.6563 1124.8594,478.6563 Q1125.7969,478.6563 1126.4531,478.4063 Q1126.8438,478.25 1127.2656,477.8125 Q1127.5313,477.5469 1127.6719,477.4688 Q1127.8281,477.3906 1128.0313,477.3906 Q1128.3594,477.3906 1128.6094,477.6563 Q1128.875,477.9063 1128.875,478.25 Q1128.875,478.5938 1128.5313,479 Q1128.0313,479.5781 1127.2344,479.9063 Q1126.1563,480.3594 1124.8594,480.3594 Q1123.3438,480.3594 1122.1406,479.7344 Q1121.1563,479.2344 1120.4688,478.1719 Q1119.7813,477.0938 1119.7813,475.8125 L1119.7813,474.6563 Q1119.7813,473.3281 1120.3906,472.1875 Q1121.0156,471.0313 1122.1094,470.4219 Q1123.2031,469.7969 1124.4375,469.7969 Q1125.1719,469.7969 1125.8125,469.9688 Q1126.4688,470.125 1127.0156,470.4844 Z " fill="#000000"/><text fill="#000000" font-family="sans-serif" font-size="14" lengthAdjust="spacing" textLength="77" x="1159.25" y="471.5332">&#171;Resource&#187;</text><text fill="#000000" font-family="sans-serif" font-size="14" lengthAdjust="spacing" textLength="106" x="1144.75" y="489.1426">CoworkingSpace</text><line style="stroke:#181818;stroke-width:0.5;" x1="1012" x2="1351" y1="497.2188" y2="497.2188"/><line style="stroke:#181818;stroke-width:0.5;" x1="1012" x2="1351" y1="505.2188" y2="505.2188"/><text fill="#000000" font-family="sans-serif" font-size="14" lengthAdjust="spacing" textLength="307" x="1017" y="523.752">&#171;GET&#187; +getCoworkingSpace(): CoworkingSpace</text><text fill="#000000" font-family="sans-serif" font-size="14" lengthAdjust="spacing" textLength="329" x="1017" y="541.3613">&#171;PUT&#187; +updateCoworkingSpace(): CoworkingSpace</text><text fill="#000000" font-family="sans-serif" font-size="14" lengthAdjust="spacing" textLength="271" x="1017" y="558.9707">&#171;DELETE&#187; +deleteCoworkingSpace(): void</text></g><!--class RepresentationCoworkingSpace--><g id="elem_RepresentationCoworkingSpace"><rect codeLine="42" fill="#F1F1F1" height="149.2656" id="RepresentationCoworkingSpace" rx="2.5" ry="2.5" style="stroke:#181818;stroke-width:0.5;" width="145" x="1566" y="390.5"/><ellipse cx="1581" cy="413.1094" fill="#ADD1B2" rx="11" ry="11" style="stroke:#181818;stroke-width:1.0;"/><path d="M1583.7656,408.9844 Q1583.9219,408.7656 1584.1094,408.6563 Q1584.2969,408.5469 1584.5156,408.5469 Q1584.8906,408.5469 1585.125,408.8125 Q1585.3594,409.0625 1585.3594,409.6719 L1585.3594,411.125 Q1585.3594,411.7344 1585.125,412 Q1584.8906,412.2656 1584.5156,412.2656 Q1584.1719,412.2656 1583.9688,412.0625 Q1583.7656,411.875 1583.6563,411.3594 Q1583.6094,411 1583.4219,410.8125 Q1583.0938,410.4375 1582.4844,410.2188 Q1581.875,410 1581.25,410 Q1580.4844,410 1579.8438,410.3281 Q1579.2188,410.6563 1578.7188,411.4063 Q1578.2344,412.1563 1578.2344,413.1875 L1578.2344,414.2813 Q1578.2344,415.5156 1579.125,416.3438 Q1580.0156,417.1563 1581.6094,417.1563 Q1582.5469,417.1563 1583.2031,416.9063 Q1583.5938,416.75 1584.0156,416.3125 Q1584.2813,416.0469 1584.4219,415.9688 Q1584.5781,415.8906 1584.7813,415.8906 Q1585.1094,415.8906 1585.3594,416.1563 Q1585.625,416.4063 1585.625,416.75 Q1585.625,417.0938 1585.2813,417.5 Q1584.7813,418.0781 1583.9844,418.4063 Q1582.9063,418.8594 1581.6094,418.8594 Q1580.0938,418.8594 1578.8906,418.2344 Q1577.9063,417.7344 1577.2188,416.6719 Q1576.5313,415.5938 1576.5313,414.3125 L1576.5313,413.1563 Q1576.5313,411.8281 1577.1406,410.6875 Q1577.7656,409.5313 1578.8594,408.9219 Q1579.9531,408.2969 1581.1875,408.2969 Q1581.9219,408.2969 1582.5625,408.4688 Q1583.2188,408.625 1583.7656,408.9844 Z " fill="#000000"/><text fill="#000000" font-family="sans-serif" font-size="14" lengthAdjust="spacing" textLength="113" x="1595" y="410.0332">&#171;Representation&#187;</text><text fill="#000000" font-family="sans-serif" font-size="14" lengthAdjust="spacing" textLength="106" x="1598.5" y="427.6426">CoworkingSpace</text><line style="stroke:#181818;stroke-width:0.5;" x1="1567" x2="1710" y1="435.7188" y2="435.7188"/><rect fill="none" height="6" style="stroke:#C82930;stroke-width:1.0;" width="6" x="1574" y="447.0234"/><text fill="#000000" font-family="sans-serif" font-size="14" lengthAdjust="spacing" textLength="35" x="1586" y="454.252">name</text><rect fill="none" height="6" style="stroke:#C82930;stroke-width:1.0;" width="6" x="1574" y="464.6328"/><text fill="#000000" font-family="sans-serif" font-size="14" lengthAdjust="spacing" textLength="51" x="1586" y="471.8613">address</text><rect fill="none" height="6" style="stroke:#C82930;stroke-width:1.0;" width="6" x="1574" y="482.2422"/><text fill="#000000" font-family="sans-serif" font-size="14" lengthAdjust="spacing" textLength="15" x="1586" y="489.4707">tel</text><rect fill="none" height="6" style="stroke:#C82930;stroke-width:1.0;" width="6" x="1574" y="499.8516"/><text fill="#000000" font-family="sans-serif" font-size="14" lengthAdjust="spacing" textLength="99" x="1586" y="507.0801">openCloseTime</text><rect fill="none" height="6" style="stroke:#C82930;stroke-width:1.0;" width="6" x="1574" y="517.4609"/><text fill="#000000" font-family="sans-serif" font-size="14" lengthAdjust="spacing" textLength="61" x="1586" y="524.6895">createdAt</text><line style="stroke:#181818;stroke-width:0.5;" x1="1567" x2="1710" y1="531.7656" y2="531.7656"/></g><!--class ResourceReservations--><g id="elem_ResourceReservations"><rect codeLine="52" fill="#F1F1F1" height="96.4375" id="ResourceReservations" rx="2.5" ry="2.5" style="stroke:#181818;stroke-width:0.5;" width="272" x="1045.5" y="189"/><ellipse cx="1135.75" cy="211.6094" fill="#ADD1B2" rx="11" ry="11" style="stroke:#181818;stroke-width:1.0;"/><path d="M1138.5156,207.4844 Q1138.6719,207.2656 1138.8594,207.1563 Q1139.0469,207.0469 1139.2656,207.0469 Q1139.6406,207.0469 1139.875,207.3125 Q1140.1094,207.5625 1140.1094,208.1719 L1140.1094,209.625 Q1140.1094,210.2344 1139.875,210.5 Q1139.6406,210.7656 1139.2656,210.7656 Q1138.9219,210.7656 1138.7188,210.5625 Q1138.5156,210.375 1138.4063,209.8594 Q1138.3594,209.5 1138.1719,209.3125 Q1137.8438,208.9375 1137.2344,208.7188 Q1136.625,208.5 1136,208.5 Q1135.2344,208.5 1134.5938,208.8281 Q1133.9688,209.1563 1133.4688,209.9063 Q1132.9844,210.6563 1132.9844,211.6875 L1132.9844,212.7813 Q1132.9844,214.0156 1133.875,214.8438 Q1134.7656,215.6563 1136.3594,215.6563 Q1137.2969,215.6563 1137.9531,215.4063 Q1138.3438,215.25 1138.7656,214.8125 Q1139.0313,214.5469 1139.1719,214.4688 Q1139.3281,214.3906 1139.5313,214.3906 Q1139.8594,214.3906 1140.1094,214.6563 Q1140.375,214.9063 1140.375,215.25 Q1140.375,215.5938 1140.0313,216 Q1139.5313,216.5781 1138.7344,216.9063 Q1137.6563,217.3594 1136.3594,217.3594 Q1134.8438,217.3594 1133.6406,216.7344 Q1132.6563,216.2344 1131.9688,215.1719 Q1131.2813,214.0938 1131.2813,212.8125 L1131.2813,211.6563 Q1131.2813,210.3281 1131.8906,209.1875 Q1132.5156,208.0313 1133.6094,207.4219 Q1134.7031,206.7969 1135.9375,206.7969 Q1136.6719,206.7969 1137.3125,206.9688 Q1137.9688,207.125 1138.5156,207.4844 Z " fill="#000000"/><text fill="#000000" font-family="sans-serif" font-size="14" lengthAdjust="spacing" textLength="77" x="1159.25" y="208.5332">&#171;Resource&#187;</text><text fill="#000000" font-family="sans-serif" font-size="14" lengthAdjust="spacing" textLength="83" x="1156.25" y="226.1426">Reservations</text><line style="stroke:#181818;stroke-width:0.5;" x1="1046.5" x2="1316.5" y1="234.2188" y2="234.2188"/><line style="stroke:#181818;stroke-width:0.5;" x1="1046.5" x2="1316.5" y1="242.2188" y2="242.2188"/><text fill="#000000" font-family="sans-serif" font-size="14" lengthAdjust="spacing" textLength="254" x="1051.5" y="260.752">&#171;GET&#187; +getReservations(): Reservation</text><text fill="#000000" font-family="sans-serif" font-size="14" lengthAdjust="spacing" textLength="260" x="1051.5" y="278.3613">&#171;POST&#187; +addReservation(): Reservation</text></g><!--class ResourceReservation--><g id="elem_ResourceReservation"><rect codeLine="57" fill="#F1F1F1" height="114.0469" id="ResourceReservation" rx="2.5" ry="2.5" style="stroke:#181818;stroke-width:0.5;" width="281" x="1498" y="174"/><ellipse cx="1595.75" cy="196.6094" fill="#ADD1B2" rx="11" ry="11" style="stroke:#181818;stroke-width:1.0;"/><path d="M1598.5156,192.4844 Q1598.6719,192.2656 1598.8594,192.1563 Q1599.0469,192.0469 1599.2656,192.0469 Q1599.6406,192.0469 1599.875,192.3125 Q1600.1094,192.5625 1600.1094,193.1719 L1600.1094,194.625 Q1600.1094,195.2344 1599.875,195.5 Q1599.6406,195.7656 1599.2656,195.7656 Q1598.9219,195.7656 1598.7188,195.5625 Q1598.5156,195.375 1598.4063,194.8594 Q1598.3594,194.5 1598.1719,194.3125 Q1597.8438,193.9375 1597.2344,193.7188 Q1596.625,193.5 1596,193.5 Q1595.2344,193.5 1594.5938,193.8281 Q1593.9688,194.1563 1593.4688,194.9063 Q1592.9844,195.6563 1592.9844,196.6875 L1592.9844,197.7813 Q1592.9844,199.0156 1593.875,199.8438 Q1594.7656,200.6563 1596.3594,200.6563 Q1597.2969,200.6563 1597.9531,200.4063 Q1598.3438,200.25 1598.7656,199.8125 Q1599.0313,199.5469 1599.1719,199.4688 Q1599.3281,199.3906 1599.5313,199.3906 Q1599.8594,199.3906 1600.1094,199.6563 Q1600.375,199.9063 1600.375,200.25 Q1600.375,200.5938 1600.0313,201 Q1599.5313,201.5781 1598.7344,201.9063 Q1597.6563,202.3594 1596.3594,202.3594 Q1594.8438,202.3594 1593.6406,201.7344 Q1592.6563,201.2344 1591.9688,200.1719 Q1591.2813,199.0938 1591.2813,197.8125 L1591.2813,196.6563 Q1591.2813,195.3281 1591.8906,194.1875 Q1592.5156,193.0313 1593.6094,192.4219 Q1594.7031,191.7969 1595.9375,191.7969 Q1596.6719,191.7969 1597.3125,191.9688 Q1597.9688,192.125 1598.5156,192.4844 Z " fill="#000000"/><text fill="#000000" font-family="sans-serif" font-size="14" lengthAdjust="spacing" textLength="77" x="1616.25" y="193.5332">&#171;Resource&#187;</text><text fill="#000000" font-family="sans-serif" font-size="14" lengthAdjust="spacing" textLength="76" x="1616.75" y="211.1426">Reservation</text><line style="stroke:#181818;stroke-width:0.5;" x1="1499" x2="1778" y1="219.2188" y2="219.2188"/><line style="stroke:#181818;stroke-width:0.5;" x1="1499" x2="1778" y1="227.2188" y2="227.2188"/><text fill="#000000" font-family="sans-serif" font-size="14" lengthAdjust="spacing" textLength="247" x="1504" y="245.752">&#171;GET&#187; +getReservation(): Reservation</text><text fill="#000000" font-family="sans-serif" font-size="14" lengthAdjust="spacing" textLength="269" x="1504" y="263.3613">&#171;PUT&#187; +updateReservation(): Reservation</text><text fill="#000000" font-family="sans-serif" font-size="14" lengthAdjust="spacing" textLength="241" x="1504" y="280.9707">&#171;DELETE&#187; +deleteReservation(): void</text></g><!--class RepresentationReservation--><g id="elem_RepresentationReservation"><rect codeLine="63" fill="#F1F1F1" height="131.6563" id="RepresentationReservation" rx="2.5" ry="2.5" style="stroke:#181818;stroke-width:0.5;" width="145" x="1876" y="121"/><ellipse cx="1891" cy="143.6094" fill="#ADD1B2" rx="11" ry="11" style="stroke:#181818;stroke-width:1.0;"/><path d="M1893.7656,139.4844 Q1893.9219,139.2656 1894.1094,139.1563 Q1894.2969,139.0469 1894.5156,139.0469 Q1894.8906,139.0469 1895.125,139.3125 Q1895.3594,139.5625 1895.3594,140.1719 L1895.3594,141.625 Q1895.3594,142.2344 1895.125,142.5 Q1894.8906,142.7656 1894.5156,142.7656 Q1894.1719,142.7656 1893.9688,142.5625 Q1893.7656,142.375 1893.6563,141.8594 Q1893.6094,141.5 1893.4219,141.3125 Q1893.0938,140.9375 1892.4844,140.7188 Q1891.875,140.5 1891.25,140.5 Q1890.4844,140.5 1889.8438,140.8281 Q1889.2188,141.1563 1888.7188,141.9063 Q1888.2344,142.6563 1888.2344,143.6875 L1888.2344,144.7813 Q1888.2344,146.0156 1889.125,146.8438 Q1890.0156,147.6563 1891.6094,147.6563 Q1892.5469,147.6563 1893.2031,147.4063 Q1893.5938,147.25 1894.0156,146.8125 Q1894.2813,146.5469 1894.4219,146.4688 Q1894.5781,146.3906 1894.7813,146.3906 Q1895.1094,146.3906 1895.3594,146.6563 Q1895.625,146.9063 1895.625,147.25 Q1895.625,147.5938 1895.2813,148 Q1894.7813,148.5781 1893.9844,148.9063 Q1892.9063,149.3594 1891.6094,149.3594 Q1890.0938,149.3594 1888.8906,148.7344 Q1887.9063,148.2344 1887.2188,147.1719 Q1886.5313,146.0938 1886.5313,144.8125 L1886.5313,143.6563 Q1886.5313,142.3281 1887.1406,141.1875 Q1887.7656,140.0313 1888.8594,139.4219 Q1889.9531,138.7969 1891.1875,138.7969 Q1891.9219,138.7969 1892.5625,138.9688 Q1893.2188,139.125 1893.7656,139.4844 Z " fill="#000000"/><text fill="#000000" font-family="sans-serif" font-size="14" lengthAdjust="spacing" textLength="113" x="1905" y="140.5332">&#171;Representation&#187;</text><text fill="#000000" font-family="sans-serif" font-size="14" lengthAdjust="spacing" textLength="76" x="1923.5" y="158.1426">Reservation</text><line style="stroke:#181818;stroke-width:0.5;" x1="1877" x2="2020" y1="166.2188" y2="166.2188"/><rect fill="none" height="6" style="stroke:#C82930;stroke-width:1.0;" width="6" x="1884" y="177.5234"/><text fill="#000000" font-family="sans-serif" font-size="14" lengthAdjust="spacing" textLength="57" x="1896" y="184.752">resvDate</text><rect fill="none" height="6" style="stroke:#C82930;stroke-width:1.0;" width="6" x="1884" y="195.1328"/><text fill="#000000" font-family="sans-serif" font-size="14" lengthAdjust="spacing" textLength="28" x="1896" y="202.3613">user</text><rect fill="none" height="6" style="stroke:#C82930;stroke-width:1.0;" width="6" x="1884" y="212.7422"/><text fill="#000000" font-family="sans-serif" font-size="14" lengthAdjust="spacing" textLength="103" x="1896" y="219.9707">coworkingSpace</text><rect fill="none" height="6" style="stroke:#C82930;stroke-width:1.0;" width="6" x="1884" y="230.3516"/><text fill="#000000" font-family="sans-serif" font-size="14" lengthAdjust="spacing" textLength="61" x="1896" y="237.5801">createdAt</text><line style="stroke:#181818;stroke-width:0.5;" x1="1877" x2="2020" y1="244.6563" y2="244.6563"/></g><!--link AppService to ResourceAuth--><g id="link_AppService_ResourceAuth"><path codeLine="73" d="M178.64,442.7 C229.18,476.98 313.64,533.95 387,582 C416.97,601.63 444.6344,619.4688 474.6444,638.6488 " fill="none" id="AppService-to-ResourceAuth" style="stroke:#181818;stroke-width:1.0;stroke-dasharray:7.0,7.0;"/><polygon fill="#181818" points="479.7,641.88,474.2706,633.6628,475.487,639.1874,469.9624,640.4037,479.7,641.88" style="stroke:#181818;stroke-width:1.0;"/><text fill="#000000" font-family="sans-serif" font-size="13" lengthAdjust="spacing" textLength="29" x="311.5" y="488.4951">/auth</text><text fill="#000000" font-family="sans-serif" font-size="13" lengthAdjust="spacing" textLength="41" x="305.5" y="504.8467">&#171;Path&#187;</text></g><!--link AppService to ResourceCoworkingSpaces--><g id="link_AppService_ResourceCoworkingSpaces"><path codeLine="74" d="M243.13,412 C293.53,412 348.52,412 404.9,412 " fill="none" id="AppService-to-ResourceCoworkingSpaces" style="stroke:#181818;stroke-width:1.0;stroke-dasharray:7.0,7.0;"/><polygon fill="#181818" points="410.9,412,401.9,408,405.9,412,401.9,416,410.9,412" style="stroke:#181818;stroke-width:1.0;"/><text fill="#000000" font-family="sans-serif" font-size="13" lengthAdjust="spacing" textLength="104" x="274" y="392.4951">/coworkingspaces</text><text fill="#000000" font-family="sans-serif" font-size="13" lengthAdjust="spacing" textLength="41" x="305.5" y="408.8467">&#171;Path&#187;</text></g><!--link AppService to ResourceReservations--><g id="link_AppService_ResourceReservations"><path codeLine="75" d="M230.33,381.46 C244.58,377.37 259.12,373.42 273,370 C323.1,357.66 336.1,356.47 387,348 C617.52,309.66 881.2679,274.5964 1039.4379,254.4964 " fill="none" id="AppService-to-ResourceReservations" style="stroke:#181818;stroke-width:1.0;stroke-dasharray:7.0,7.0;"/><polygon fill="#181818" points="1045.39,253.74,1035.9575,250.9065,1040.4299,254.3703,1036.9661,258.8427,1045.39,253.74" style="stroke:#181818;stroke-width:1.0;"/><text fill="#000000" font-family="sans-serif" font-size="13" lengthAdjust="spacing" textLength="73" x="548.5" y="274.4951">/reservations</text><text fill="#000000" font-family="sans-serif" font-size="13" lengthAdjust="spacing" textLength="41" x="564.5" y="290.8467">&#171;Path&#187;</text></g><!--link ResourceCoworkingSpaces to ResourceCoworkingSpace--><g id="link_ResourceCoworkingSpaces_ResourceCoworkingSpace"><path codeLine="78" d="M759.15,440.25 C838.42,453.19 926.1183,467.494 1004.9483,480.354 " fill="none" id="ResourceCoworkingSpaces-to-ResourceCoworkingSpace" style="stroke:#181818;stroke-width:1.0;stroke-dasharray:7.0,7.0;"/><polygon fill="#181818" points="1010.87,481.32,1002.6315,475.9231,1005.9352,480.515,1001.3434,483.8187,1010.87,481.32" style="stroke:#181818;stroke-width:1.0;"/><text fill="#000000" font-family="sans-serif" font-size="13" lengthAdjust="spacing" textLength="117" x="826.5" y="427.4951">/{coworkingSpaceId}</text><text fill="#000000" font-family="sans-serif" font-size="13" lengthAdjust="spacing" textLength="41" x="864.5" y="443.8467">&#171;Path&#187;</text></g><!--link ResourceCoworkingSpaces to ResourceReservations--><g id="link_ResourceCoworkingSpaces_ResourceReservations"><path codeLine="79" d="M759.14,377.7 C769.23,376.03 779.24,374.44 789,373 C873.87,360.45 899.43,379.6 981,353 C1028.42,337.54 1071.8875,312.9777 1109.1875,288.4377 " fill="none" id="ResourceCoworkingSpaces-to-ResourceReservations" style="stroke:#181818;stroke-width:1.0;stroke-dasharray:7.0,7.0;"/><polygon fill="#181818" points="1114.2,285.14,1104.4828,286.745,1110.0229,287.8881,1108.8798,293.4283,1114.2,285.14" style="stroke:#181818;stroke-width:1.0;"/><text fill="#000000" font-family="sans-serif" font-size="13" lengthAdjust="spacing" textLength="190" x="790" y="333.4951">/{coworkingSpaceId}/reservations</text><text fill="#000000" font-family="sans-serif" font-size="13" lengthAdjust="spacing" textLength="41" x="864.5" y="349.8467">&#171;Path&#187;</text></g><!--link ResourceReservations to ResourceReservation--><g id="link_ResourceReservations_ResourceReservation"><path codeLine="80" d="M1317.78,235.22 C1374.5,234.47 1434.4105,233.6797 1491.6105,232.9197 " fill="none" id="ResourceReservations-to-ResourceReservation" style="stroke:#181818;stroke-width:1.0;stroke-dasharray:7.0,7.0;"/><polygon fill="#181818" points="1497.61,232.84,1488.5577,228.9599,1492.6104,232.9064,1488.6639,236.9592,1497.61,232.84" style="stroke:#181818;stroke-width:1.0;"/><text fill="#000000" font-family="sans-serif" font-size="13" lengthAdjust="spacing" textLength="84" x="1383" y="214.4951">/{reservationId}</text><text fill="#000000" font-family="sans-serif" font-size="13" lengthAdjust="spacing" textLength="41" x="1404.5" y="230.8467">&#171;Path&#187;</text></g><!--link ResourceAuth to RepresentationUser--><g id="link_ResourceAuth_RepresentationUser"><path codeLine="83" d="M703.81,737.53 C824.49,767.77 1002.4,812.3614 1102.87,837.5414 " fill="none" id="ResourceAuth-to-RepresentationUser" style="stroke:#181818;stroke-width:1.0;stroke-dasharray:7.0,7.0;"/><polygon fill="#181818" points="1108.69,839,1100.9324,832.9321,1103.84,837.7845,1098.9876,840.6921,1108.69,839" style="stroke:#181818;stroke-width:1.0;"/><text fill="#000000" font-family="sans-serif" font-size="13" lengthAdjust="spacing" textLength="35" x="867.5" y="757.4951">&#171;use&#187;</text></g><!--link ResourceAuth to RepresentationAuthResponse--><g id="link_ResourceAuth_RepresentationAuthResponse"><path codeLine="84" d="M703.81,704.43 C824.49,700.78 1002.2228,695.4021 1102.6928,692.3521 " fill="none" id="ResourceAuth-to-RepresentationAuthResponse" style="stroke:#181818;stroke-width:1.0;stroke-dasharray:7.0,7.0;"/><polygon fill="#181818" points="1108.69,692.17,1099.5728,688.4449,1103.6923,692.3217,1099.8155,696.4412,1108.69,692.17" style="stroke:#181818;stroke-width:1.0;"/><text fill="#000000" font-family="sans-serif" font-size="13" lengthAdjust="spacing" textLength="35" x="867.5" y="693.4951">&#171;use&#187;</text></g><!--link ResourceCoworkingSpaces to RepresentationCoworkingSpace--><g id="link_ResourceCoworkingSpaces_RepresentationCoworkingSpace"><path codeLine="86" d="M759.03,405.63 C769.17,405.38 779.22,405.17 789,405 C874.32,403.53 895.73,401.67 981,405 C1146.27,411.45 1187.32,418.63 1352,434 C1424.97,440.81 1502.319,449.3372 1560.029,455.9472 " fill="none" id="ResourceCoworkingSpaces-to-RepresentationCoworkingSpace" style="stroke:#181818;stroke-width:1.0;stroke-dasharray:7.0,7.0;"/><polygon fill="#181818" points="1565.99,456.63,1557.5036,451.6318,1561.0225,456.061,1556.5933,459.5799,1565.99,456.63" style="stroke:#181818;stroke-width:1.0;"/><text fill="#000000" font-family="sans-serif" font-size="13" lengthAdjust="spacing" textLength="35" x="1164" y="403.4951">&#171;use&#187;</text></g><!--link ResourceCoworkingSpace to RepresentationCoworkingSpace--><g id="link_ResourceCoworkingSpace_RepresentationCoworkingSpace"><path codeLine="87" d="M1352.25,492.58 C1426.12,485.44 1502.7079,478.0382 1559.9279,472.4982 " fill="none" id="ResourceCoworkingSpace-to-RepresentationCoworkingSpace" style="stroke:#181818;stroke-width:1.0;stroke-dasharray:7.0,7.0;"/><polygon fill="#181818" points="1565.9,471.92,1556.5564,468.8059,1560.9233,472.4018,1557.3274,476.7687,1565.9,471.92" style="stroke:#181818;stroke-width:1.0;"/><text fill="#000000" font-family="sans-serif" font-size="13" lengthAdjust="spacing" textLength="35" x="1407.5" y="478.4951">&#171;use&#187;</text></g><!--link ResourceReservations to RepresentationReservation--><g id="link_ResourceReservations_RepresentationReservation"><path codeLine="89" d="M1317.71,194.33 C1373,178.98 1437.97,163.58 1498,156 C1621.9,140.35 1654.63,144.65 1779,156 C1810.99,158.92 1840.0957,163.7175 1869.8557,169.6475 " fill="none" id="ResourceReservations-to-RepresentationReservation" style="stroke:#181818;stroke-width:1.0;stroke-dasharray:7.0,7.0;"/><polygon fill="#181818" points="1875.74,170.82,1867.6952,165.1383,1870.8364,169.8429,1866.1318,172.9841,1875.74,170.82" style="stroke:#181818;stroke-width:1.0;"/><text fill="#000000" font-family="sans-serif" font-size="13" lengthAdjust="spacing" textLength="35" x="1621" y="142.4951">&#171;use&#187;</text></g><!--link ResourceReservation to RepresentationReservation--><g id="link_ResourceReservation_RepresentationReservation"><path codeLine="90" d="M1779.08,211.06 C1812.51,206.28 1840.9004,202.2294 1869.7804,198.0994 " fill="none" id="ResourceReservation-to-RepresentationReservation" style="stroke:#181818;stroke-width:1.0;stroke-dasharray:7.0,7.0;"/><polygon fill="#181818" points="1875.72,197.25,1866.2444,194.5644,1870.7704,197.9578,1867.3769,202.4838,1875.72,197.25" style="stroke:#181818;stroke-width:1.0;"/><text fill="#000000" font-family="sans-serif" font-size="13" lengthAdjust="spacing" textLength="35" x="1810" y="199.4951">&#171;use&#187;</text></g><!--SRC=[bLLDZzem4BtpAqQvj5N5zeve9BIBgfNwWGfxsukLp0QB44UsGmze_tljV35Ex93b57lUl7apVjWvlcdG0YJFZXfIBZ7HN1IBHScI4yiGeaVnJyWJBpBuYmhbXTauR7RF4LmN2u0aPqf1j5vloZBdIHsEuzUYpoDfU_F14uo0AJ3mTWdNTqlKLznK-cZ90GYxOH6LJD1IDm33qMtQZJO1OBtU_TaVuXY-IiouqYW_Vrc1XHXuAGg58s0kCbu4KJ-s7KXKsg8kWgV3Q8Rw5zhWY-cs3jPDEHsKqeoYqFs8BBJjWuRiTj_Dic3dJieIpupdtK9Z_rcQ4cRQdQYb57cVaqXa6jEDdYcAZi0ZZePl8bML9AXKBqsSi6ZhjJN7VjgRBPmyPnUgd2CVnCZftmvaWB6duswDZD0ComK5qiQJ30cVq3r3zfJgbpgbAjEvectMq_Rdzh2rYIdcw4li_NtVBTvEAIZGhsDhbgQIkkTcR55YyPWBXGT-3Zfww31ouKpQY-1SRz60zuGem0wCh4UMCisHi0yzvIId5x_4Umg30gbxPk27lXcaVC0quwOemjVQqiGlJqPdjwwwMzRwmUTphqkCj4_mtVvWn_HHmPiKPs2tXwi9BiZRzF0Gky_C2g9lp7oy5cQ4XYIEen1-U4VPr5wiglTci3Xkj1IIRD3ylhVVQ5wz56HBOFuPjjUcjP2siEwwvjKTydFwJYlF8HsrCQOCTkRb290tt8HfeBMVKfSBnalA38jwS32i-k2RUgE7UcKzRYYepW3UUJjftfq1Jjodlke3o8SufaOT-fFwDD3u_Ep_]--></g></svg>